<svg width="56" height="56" viewBox="0 0 56 56" fill="none" xmlns="http://www.w3.org/2000/svg">
<rect width="56" height="56" rx="28" fill="white"/>
<path d="M44 28.0977C44 19.2612 36.8365 12.0977 28 12.0977C19.1635 12.0977 12 19.2612 12 28.0977C12 36.0837 17.851 42.703 25.5 43.9033V32.7227H21.4375V28.0977H25.5V24.5727C25.5 20.5627 27.8888 18.3477 31.5435 18.3477C33.294 18.3477 35.125 18.6602 35.125 18.6602V22.5977H33.1075C31.1199 22.5977 30.5 23.831 30.5 25.0964V28.0977H34.9375L34.2281 32.7227H30.5V43.9033C38.149 42.703 44 36.0838 44 28.0977Z" fill="#1877F2"/>
<path d="M33.7906 32.375L34.5 27.75H30.0625V24.7487C30.0625 23.4832 30.6824 22.25 32.67 22.25H34.6875V18.3125C34.6875 18.3125 32.8565 18 31.1059 18C27.4513 18 25.0625 20.215 25.0625 24.225V27.75H21V32.375H25.0625V43.5556C25.8895 43.6852 26.7254 43.7502 27.5625 43.75C28.3996 43.7502 29.2355 43.6852 30.0625 43.5556V32.375H33.7906Z" fill="white"/>
</svg>
