<svg width="56" height="56" viewBox="0 0 56 56" fill="none" xmlns="http://www.w3.org/2000/svg">
<rect width="56" height="56" rx="28" fill="white"/>
<path d="M36.5 12H19.5C15.3579 12 12 15.3579 12 19.5V36.5C12 40.6421 15.3579 44 19.5 44H36.5C40.6421 44 44 40.6421 44 36.5V19.5C44 15.3579 40.6421 12 36.5 12Z" fill="url(#paint0_radial_269_2653)"/>
<path d="M36.5 12H19.5C15.3579 12 12 15.3579 12 19.5V36.5C12 40.6421 15.3579 44 19.5 44H36.5C40.6421 44 44 40.6421 44 36.5V19.5C44 15.3579 40.6421 12 36.5 12Z" fill="url(#paint1_radial_269_2653)"/>
<path d="M28.0011 15.5C24.6064 15.5 24.1803 15.5149 22.847 15.5755C21.5163 15.6365 20.6079 15.8471 19.8131 16.1562C18.9909 16.4755 18.2935 16.9026 17.5988 17.5976C16.9034 18.2925 16.4763 18.9899 16.156 19.8117C15.846 20.6068 15.6351 21.5155 15.5752 22.8456C15.5156 24.179 15.5 24.6053 15.5 28.0001C15.5 31.395 15.515 31.8197 15.5755 33.153C15.6368 34.4837 15.8474 35.3921 16.1562 36.1869C16.4757 37.0091 16.9029 37.7065 17.5979 38.4013C18.2925 39.0966 18.9899 39.5247 19.8115 39.844C20.6069 40.1531 21.5154 40.3637 22.8459 40.4247C24.1792 40.4854 24.605 40.5002 27.9996 40.5002C31.3948 40.5002 31.8195 40.4854 33.1528 40.4247C34.4835 40.3637 35.3929 40.1531 36.1882 39.844C37.0101 39.5247 37.7065 39.0966 38.401 38.4013C39.0964 37.7065 39.5234 37.0091 39.8438 36.1873C40.151 35.3921 40.362 34.4835 40.4245 33.1532C40.4844 31.82 40.5 31.395 40.5 28.0001C40.5 24.6053 40.4844 24.1792 40.4245 22.8459C40.362 21.5151 40.151 20.6069 39.8438 19.8121C39.5234 18.9899 39.0964 18.2925 38.401 17.5976C37.7057 16.9024 37.0104 16.4752 36.1875 16.1564C35.3906 15.8471 34.4817 15.6364 33.151 15.5755C31.8176 15.5149 31.3931 15.5 27.9972 15.5H28.0011ZM26.8798 17.7526C27.2126 17.7521 27.584 17.7526 28.0011 17.7526C31.3388 17.7526 31.7342 17.7646 33.0522 17.8245C34.271 17.8802 34.9325 18.0839 35.3731 18.255C35.9565 18.4815 36.3724 18.7524 36.8096 19.19C37.2471 19.6275 37.5179 20.0441 37.745 20.6275C37.9161 21.0675 38.12 21.729 38.1755 22.9478C38.2354 24.2655 38.2484 24.6612 38.2484 27.9972C38.2484 31.3333 38.2354 31.7291 38.1755 33.0467C38.1198 34.2655 37.9161 34.927 37.745 35.3671C37.5185 35.9505 37.2471 36.3659 36.8096 36.8031C36.3721 37.2406 35.9568 37.5114 35.3731 37.738C34.933 37.9099 34.271 38.113 33.0522 38.1688C31.7345 38.2286 31.3388 38.2416 28.0011 38.2416C24.6634 38.2416 24.2677 38.2286 22.9501 38.1688C21.7314 38.1125 21.0699 37.9089 20.6289 37.7377C20.0456 37.5111 19.6289 37.2404 19.1914 36.8029C18.7539 36.3654 18.4831 35.9498 18.256 35.3661C18.0849 34.926 17.881 34.2645 17.8255 33.0457C17.7656 31.728 17.7536 31.3323 17.7536 27.9941C17.7536 24.6561 17.7656 24.2624 17.8255 22.9446C17.8812 21.7259 18.0849 21.0644 18.256 20.6237C18.4826 20.0404 18.7539 19.6238 19.1915 19.1863C19.629 18.7488 20.0456 18.4779 20.629 18.2509C21.0696 18.079 21.7314 17.8759 22.9501 17.8199C24.1032 17.7677 24.5501 17.7521 26.8798 17.7495V17.7526ZM34.6736 19.8281C33.8455 19.8281 33.1736 20.4994 33.1736 21.3276C33.1736 22.1558 33.8455 22.8276 34.6736 22.8276C35.5018 22.8276 36.1736 22.1558 36.1736 21.3276C36.1736 20.4995 35.5018 19.8276 34.6736 19.8276V19.8281ZM28.0011 21.5808C24.4561 21.5808 21.5819 24.455 21.5819 28.0001C21.5819 31.5452 24.4561 34.4181 28.0011 34.4181C31.5462 34.4181 34.4195 31.5452 34.4195 28.0001C34.4195 24.4551 31.546 21.5808 28.0009 21.5808H28.0011ZM28.0011 23.8334C30.3022 23.8334 32.1679 25.6988 32.1679 28.0001C32.1679 30.3013 30.3022 32.1669 28.0011 32.1669C25.6999 32.1669 23.8345 30.3013 23.8345 28.0001C23.8345 25.6988 25.6999 23.8334 28.0011 23.8334Z" fill="white"/>
<defs>
<radialGradient id="paint0_radial_269_2653" cx="0" cy="0" r="1" gradientUnits="userSpaceOnUse" gradientTransform="translate(20.5 46.4646) rotate(-90) scale(31.7144 29.4969)">
<stop stop-color="#FFDD55"/>
<stop offset="0.1" stop-color="#FFDD55"/>
<stop offset="0.5" stop-color="#FF543E"/>
<stop offset="1" stop-color="#C837AB"/>
</radialGradient>
<radialGradient id="paint1_radial_269_2653" cx="0" cy="0" r="1" gradientUnits="userSpaceOnUse" gradientTransform="translate(6.63988 14.3051) rotate(78.681) scale(14.1765 58.436)">
<stop stop-color="#3771C8"/>
<stop offset="0.128" stop-color="#3771C8"/>
<stop offset="1" stop-color="#6600FF" stop-opacity="0"/>
</radialGradient>
</defs>
</svg>
