<svg width="56" height="56" viewBox="0 0 56 56" fill="none" xmlns="http://www.w3.org/2000/svg">
<rect width="56" height="56" rx="28" fill="white"/>
<path d="M36.5 12H19.5C15.3579 12 12 15.3579 12 19.5V36.5C12 40.6421 15.3579 44 19.5 44H36.5C40.6421 44 44 40.6421 44 36.5V19.5C44 15.3579 40.6421 12 36.5 12Z" fill="white"/>
<path d="M36.5 12H19.5C15.3579 12 12 15.3579 12 19.5V36.5C12 40.6421 15.3579 44 19.5 44H36.5C40.6421 44 44 40.6421 44 36.5V19.5C44 15.3579 40.6421 12 36.5 12Z" fill="#0A66C2"/>
<path d="M35.0894 39.2106H38.7481C38.8807 39.2106 39.0079 39.158 39.1016 39.0642C39.1954 38.9705 39.2481 38.8433 39.2481 38.7108L39.25 30.9805C39.25 26.9401 38.3794 23.8345 33.6577 23.8345C31.8629 23.7678 30.1702 24.693 29.2569 26.238C29.2524 26.2455 29.2456 26.2513 29.2375 26.2546C29.2294 26.2579 29.2205 26.2584 29.2121 26.2562C29.2036 26.2539 29.1962 26.2489 29.1908 26.242C29.1855 26.2351 29.1826 26.2266 29.1825 26.2179V24.7075C29.1825 24.5749 29.1298 24.4477 29.0361 24.3539C28.9423 24.2602 28.8151 24.2075 28.6825 24.2075H25.2104C25.0778 24.2075 24.9506 24.2602 24.8568 24.3539C24.7631 24.4477 24.7104 24.5749 24.7104 24.7075V38.71C24.7104 38.8426 24.7631 38.9698 24.8568 39.0636C24.9506 39.1573 25.0778 39.21 25.2104 39.21H28.8689C29.0015 39.21 29.1287 39.1573 29.2224 39.0636C29.3162 38.9698 29.3689 38.8426 29.3689 38.71V31.7884C29.3689 29.8313 29.7401 27.9359 32.1665 27.9359C34.5584 27.9359 34.5894 30.1754 34.5894 31.9151V38.7106C34.5894 38.8432 34.6421 38.9704 34.7358 39.0642C34.8296 39.1579 34.9568 39.2106 35.0894 39.2106ZM16.75 19.4535C16.75 20.9365 17.9709 22.1567 19.454 22.1567C20.9367 22.1566 22.1569 20.9356 22.1569 19.4529C22.1566 17.9701 20.9364 16.75 19.4535 16.75C17.9702 16.75 16.75 17.9705 16.75 19.4535ZM17.6199 39.2106H21.2832C21.4159 39.2106 21.543 39.1579 21.6368 39.0642C21.7306 38.9704 21.7832 38.8432 21.7832 38.7106V24.7075C21.7832 24.5749 21.7306 24.4477 21.6368 24.3539C21.543 24.2602 21.4159 24.2075 21.2832 24.2075H17.6199C17.4873 24.2075 17.3601 24.2602 17.2663 24.3539C17.1726 24.4477 17.1199 24.5749 17.1199 24.7075V38.7106C17.1199 38.8432 17.1726 38.9704 17.2663 39.0642C17.3601 39.1579 17.4873 39.2106 17.6199 39.2106Z" fill="white"/>
</svg>
