<svg width="36" height="40" viewBox="0 0 36 40" fill="none" xmlns="http://www.w3.org/2000/svg">
<path d="M15 29.5C16.5 30.8333 19.5 30.8333 21 29.5" stroke="#727F8F" stroke-width="2" stroke-linecap="round" stroke-linejoin="round"/>
<path fill-rule="evenodd" clip-rule="evenodd" d="M18.9987 9.55208C18.9996 9.53483 19 9.51747 19 9.5C19 8.94772 18.5523 8.5 18 8.5C17.4477 8.5 17 8.94772 17 9.5C17 9.51748 17.0004 9.53486 17.0013 9.55212C13.6537 10.0346 10.5037 13.7995 11 18C11.2571 19.2854 10.4477 19.9664 9.60517 20.6752C8.80905 21.345 7.98342 22.0396 8.00025 23.2925C8.00025 25.0484 9.00001 26 10.4683 26.4719C10.4683 26.4719 13.1574 27.5 18.0001 27.5C22.8429 27.5 25.5319 26.4719 25.5319 26.4719C27.0002 26 28.0002 25 28 23.2925C27.9998 22.0288 27.1747 21.3339 26.383 20.6672C25.5442 19.9609 24.743 19.2861 25.0002 18C25.0894 17.2448 25.0608 16.5037 24.9344 15.7932C24.416 16.2308 23.7473 16.496 23.0167 16.5C23.0611 16.894 23.0643 17.2967 23.0211 17.7027C22.8228 18.8108 23.0604 19.7779 23.5647 20.5801C24.0023 21.2762 24.6175 21.7948 24.9944 22.1125L25.0229 22.1365C25.97 22.9354 26 23.0596 26 23.2927C26.0001 23.7288 25.8833 23.9409 25.7775 24.0684C25.6501 24.222 25.3987 24.414 24.92 24.5679L24.8684 24.5844L24.8252 24.6009L24.822 24.6021C24.8132 24.6053 24.7943 24.612 24.7653 24.6218C24.7073 24.6415 24.6091 24.6734 24.4719 24.7138C24.1974 24.7945 23.7666 24.9088 23.1876 25.0252C22.0301 25.2581 20.2794 25.5 18.0001 25.5C15.7209 25.5 13.9702 25.2581 12.8126 25.0252C12.2337 24.9088 11.8029 24.7945 11.5284 24.7138C11.3911 24.6734 11.293 24.6415 11.235 24.6218C11.206 24.612 11.187 24.6053 11.1782 24.6021L11.1751 24.601L11.1319 24.5844L11.0803 24.5678C10.579 24.4067 10.3338 24.2188 10.2155 24.0778C10.1229 23.9676 10.0003 23.7637 10.0003 23.2925V23.279L10.0001 23.2656C9.9974 23.0665 10.0024 22.9559 10.9634 22.1461L10.9923 22.1218L10.9923 22.1218C11.3711 21.8028 11.9879 21.2834 12.4277 20.588C12.9343 19.787 13.1784 18.817 12.9792 17.7028C12.8069 16.0846 13.3713 14.5193 14.3502 13.3396C15.3623 12.1199 16.6503 11.5 17.7191 11.5H18.2811C18.9172 11.5 19.6309 11.7195 20.3179 12.1544C20.6321 11.5295 21.1583 11.0294 21.8021 10.7487C20.9423 10.116 19.979 9.69333 18.9987 9.55208Z" fill="#727F8F"/>
<circle cx="23" cy="13.5" r="2" fill="#4779E8"/>
</svg>
