<svg width="20" height="20" viewBox="0 0 20 20" fill="none" xmlns="http://www.w3.org/2000/svg">
<path d="M4.375 6.875H5.625V13.125H4.375V6.875ZM6.875 6.875H8.125V13.125H6.875V6.875ZM9.375 6.875H10.625V13.125H9.375V6.875ZM11.875 6.875H13.125V13.125H11.875V6.875ZM14.375 6.875H15.625V13.125H14.375V6.875Z" fill="white"/>
<path d="M17.5 16.25H2.5C2.16848 16.25 1.85054 16.1183 1.61612 15.8839C1.3817 15.6495 1.25 15.3315 1.25 15V5C1.25 4.66848 1.3817 4.35054 1.61612 4.11612C1.85054 3.8817 2.16848 3.75 2.5 3.75H17.5C17.8315 3.75 18.1495 3.8817 18.3839 4.11612C18.6183 4.35054 18.75 4.66848 18.75 5V15C18.75 15.3315 18.6183 15.6495 18.3839 15.8839C18.1495 16.1183 17.8315 16.25 17.5 16.25ZM2.5 5V15H17.5V5H2.5Z" fill="white"/>
</svg>
