<svg width="16" height="16" viewBox="0 0 16 16" fill="none" xmlns="http://www.w3.org/2000/svg">
<path d="M2.82115 0.142578C2.11075 0.142578 1.42944 0.424784 0.927114 0.927114C0.424784 1.42944 0.142578 2.11075 0.142578 2.82115V13.1783C0.142578 13.8887 0.424784 14.57 0.927114 15.0723C1.42944 15.5747 2.11075 15.8569 2.82115 15.8569H13.1783C13.8887 15.8569 14.57 15.5747 15.0723 15.0723C15.5747 14.57 15.8569 13.8887 15.8569 13.1783V2.82115C15.8569 2.11075 15.5747 1.42944 15.0723 0.927114C14.57 0.424784 13.8887 0.142578 13.1783 0.142578H2.82115ZM1.21401 2.82115C1.21401 2.39491 1.38333 1.98613 1.68473 1.68473C1.98613 1.38333 2.39491 1.21401 2.82115 1.21401H13.1783C13.6045 1.21401 14.0133 1.38333 14.3147 1.68473C14.6161 1.98613 14.7854 2.39491 14.7854 2.82115V13.1783C14.7854 13.6045 14.6161 14.0133 14.3147 14.3147C14.0133 14.6161 13.6045 14.7854 13.1783 14.7854H2.82115C2.39491 14.7854 1.98613 14.6161 1.68473 14.3147C1.38333 14.0133 1.21401 13.6045 1.21401 13.1783V2.82115ZM2.28544 4.42829C2.28544 4.04941 2.43595 3.68605 2.70385 3.41814C2.97176 3.15023 3.33513 2.99972 3.71401 2.99972H12.2854C12.6643 2.99972 13.0277 3.15023 13.2956 3.41814C13.5635 3.68605 13.714 4.04941 13.714 4.42829V5.85686C13.714 6.23574 13.5635 6.59911 13.2956 6.86702C13.0277 7.13493 12.6643 7.28544 12.2854 7.28544H3.71401C3.33513 7.28544 2.97176 7.13493 2.70385 6.86702C2.43595 6.59911 2.28544 6.23574 2.28544 5.85686V4.42829ZM3.71401 4.07115C3.61929 4.07115 3.52845 4.10878 3.46147 4.17575C3.39449 4.24273 3.35686 4.33357 3.35686 4.42829V5.85686C3.35686 5.95158 3.39449 6.04243 3.46147 6.1094C3.52845 6.17638 3.61929 6.21401 3.71401 6.21401H12.2854C12.3802 6.21401 12.471 6.17638 12.538 6.1094C12.605 6.04243 12.6426 5.95158 12.6426 5.85686V4.42829C12.6426 4.33357 12.605 4.24273 12.538 4.17575C12.471 4.10878 12.3802 4.07115 12.2854 4.07115H3.71401ZM2.28544 9.24972C2.28544 9.10764 2.34188 8.97138 2.44234 8.87091C2.54281 8.77045 2.67907 8.71401 2.82115 8.71401H6.74972C6.8918 8.71401 7.02806 8.77045 7.12853 8.87091C7.22899 8.97138 7.28544 9.10764 7.28544 9.24972C7.28544 9.3918 7.22899 9.52806 7.12853 9.62853C7.02806 9.72899 6.8918 9.78544 6.74972 9.78544H2.82115C2.67907 9.78544 2.54281 9.72899 2.44234 9.62853C2.34188 9.52806 2.28544 9.3918 2.28544 9.24972ZM2.82115 11.3926C2.67907 11.3926 2.54281 11.449 2.44234 11.5495C2.34188 11.65 2.28544 11.7862 2.28544 11.9283C2.28544 12.0704 2.34188 12.2066 2.44234 12.3071C2.54281 12.4076 2.67907 12.464 2.82115 12.464H6.74972C6.8918 12.464 7.02806 12.4076 7.12853 12.3071C7.22899 12.2066 7.28544 12.0704 7.28544 11.9283C7.28544 11.7862 7.22899 11.65 7.12853 11.5495C7.02806 11.449 6.8918 11.3926 6.74972 11.3926H2.82115ZM9.07115 9.60686C9.07115 8.91686 9.63115 8.35686 10.3211 8.35686H12.464C13.154 8.35686 13.714 8.91686 13.714 9.60686V11.7497C13.714 12.0812 13.5823 12.3992 13.3479 12.6336C13.1135 12.868 12.7955 12.9997 12.464 12.9997H10.3211C9.98963 12.9997 9.67169 12.868 9.43727 12.6336C9.20285 12.3992 9.07115 12.0812 9.07115 11.7497V9.60686ZM10.3211 9.42829C10.2738 9.42829 10.2284 9.44711 10.1949 9.48059C10.1614 9.51408 10.1426 9.5595 10.1426 9.60686V11.7497C10.1426 11.8483 10.2226 11.9283 10.3211 11.9283H12.464C12.5114 11.9283 12.5568 11.9095 12.5903 11.876C12.6238 11.8425 12.6426 11.7971 12.6426 11.7497V9.60686C12.6426 9.5595 12.6238 9.51408 12.5903 9.48059C12.5568 9.44711 12.5114 9.42829 12.464 9.42829H10.3211Z" fill="white"/>
</svg>
