<svg width="20" height="20" viewBox="0 0 20 20" fill="none" xmlns="http://www.w3.org/2000/svg">
<path d="M4.82115 2.14258C4.11075 2.14258 3.42944 2.42478 2.92711 2.92711C2.42478 3.42944 2.14258 4.11075 2.14258 4.82115V15.1783C2.14258 15.8887 2.42478 16.57 2.92711 17.0723C3.42944 17.5747 4.11075 17.8569 4.82115 17.8569H15.1783C15.8887 17.8569 16.57 17.5747 17.0723 17.0723C17.5747 16.57 17.8569 15.8887 17.8569 15.1783V4.82115C17.8569 4.11075 17.5747 3.42944 17.0723 2.92711C16.57 2.42478 15.8887 2.14258 15.1783 2.14258H4.82115ZM3.21401 4.82115C3.21401 4.39491 3.38333 3.98613 3.68473 3.68473C3.98613 3.38333 4.39491 3.21401 4.82115 3.21401H15.1783C15.6045 3.21401 16.0133 3.38333 16.3147 3.68473C16.6161 3.98613 16.7854 4.39491 16.7854 4.82115V15.1783C16.7854 15.6045 16.6161 16.0133 16.3147 16.3147C16.0133 16.6161 15.6045 16.7854 15.1783 16.7854H4.82115C4.39491 16.7854 3.98613 16.6161 3.68473 16.3147C3.38333 16.0133 3.21401 15.6045 3.21401 15.1783V4.82115ZM4.28544 6.42829C4.28544 6.04941 4.43595 5.68605 4.70385 5.41814C4.97176 5.15023 5.33513 4.99972 5.71401 4.99972H14.2854C14.6643 4.99972 15.0277 5.15023 15.2956 5.41814C15.5635 5.68605 15.714 6.04941 15.714 6.42829V7.85686C15.714 8.23574 15.5635 8.59911 15.2956 8.86702C15.0277 9.13493 14.6643 9.28544 14.2854 9.28544H5.71401C5.33513 9.28544 4.97176 9.13493 4.70385 8.86702C4.43595 8.59911 4.28544 8.23574 4.28544 7.85686V6.42829ZM5.71401 6.07115C5.61929 6.07115 5.52845 6.10878 5.46147 6.17575C5.39449 6.24273 5.35686 6.33357 5.35686 6.42829V7.85686C5.35686 7.95158 5.39449 8.04243 5.46147 8.1094C5.52845 8.17638 5.61929 8.21401 5.71401 8.21401H14.2854C14.3802 8.21401 14.471 8.17638 14.538 8.1094C14.605 8.04243 14.6426 7.95158 14.6426 7.85686V6.42829C14.6426 6.33357 14.605 6.24273 14.538 6.17575C14.471 6.10878 14.3802 6.07115 14.2854 6.07115H5.71401ZM4.28544 11.2497C4.28544 11.1076 4.34188 10.9714 4.44234 10.8709C4.54281 10.7704 4.67907 10.714 4.82115 10.714H8.74972C8.8918 10.714 9.02806 10.7704 9.12853 10.8709C9.22899 10.9714 9.28544 11.1076 9.28544 11.2497C9.28544 11.3918 9.22899 11.5281 9.12853 11.6285C9.02806 11.729 8.8918 11.7854 8.74972 11.7854H4.82115C4.67907 11.7854 4.54281 11.729 4.44234 11.6285C4.34188 11.5281 4.28544 11.3918 4.28544 11.2497ZM4.82115 13.3926C4.67907 13.3926 4.54281 13.449 4.44234 13.5495C4.34188 13.65 4.28544 13.7862 4.28544 13.9283C4.28544 14.0704 4.34188 14.2066 4.44234 14.3071C4.54281 14.4076 4.67907 14.464 4.82115 14.464H8.74972C8.8918 14.464 9.02806 14.4076 9.12853 14.3071C9.22899 14.2066 9.28544 14.0704 9.28544 13.9283C9.28544 13.7862 9.22899 13.65 9.12853 13.5495C9.02806 13.449 8.8918 13.3926 8.74972 13.3926H4.82115ZM11.0711 11.6069C11.0711 10.9169 11.6311 10.3569 12.3211 10.3569H14.464C15.154 10.3569 15.714 10.9169 15.714 11.6069V13.7497C15.714 14.0812 15.5823 14.3992 15.3479 14.6336C15.1135 14.868 14.7955 14.9997 14.464 14.9997H12.3211C11.9896 14.9997 11.6717 14.868 11.4373 14.6336C11.2028 14.3992 11.0711 14.0812 11.0711 13.7497V11.6069ZM12.3211 11.4283C12.2738 11.4283 12.2284 11.4471 12.1949 11.4806C12.1614 11.5141 12.1426 11.5595 12.1426 11.6069V13.7497C12.1426 13.8483 12.2226 13.9283 12.3211 13.9283H14.464C14.5114 13.9283 14.5568 13.9095 14.5903 13.876C14.6238 13.8425 14.6426 13.7971 14.6426 13.7497V11.6069C14.6426 11.5595 14.6238 11.5141 14.5903 11.4806C14.5568 11.4471 14.5114 11.4283 14.464 11.4283H12.3211Z" fill="#3E4C59"/>
</svg>
