<svg width="24" height="24" viewBox="0 0 24 24" fill="none" xmlns="http://www.w3.org/2000/svg">
<path d="M11.9998 15.2805C11.8665 15.2805 11.7375 15.2555 11.6128 15.2055C11.4875 15.1555 11.3831 15.0888 11.2998 15.0055L6.6998 10.4055C6.51647 10.2221 6.4248 9.9888 6.4248 9.70547C6.4248 9.42213 6.51647 9.1888 6.6998 9.00547C6.88314 8.82214 7.11647 8.73047 7.3998 8.73047C7.68314 8.73047 7.91647 8.82214 8.0998 9.00547L11.9998 12.9055L15.8998 9.00547C16.0831 8.82214 16.3165 8.73047 16.5998 8.73047C16.8831 8.73047 17.1165 8.82214 17.2998 9.00547C17.4831 9.1888 17.5748 9.42213 17.5748 9.70547C17.5748 9.9888 17.4831 10.2221 17.2998 10.4055L12.6998 15.0055C12.5998 15.1055 12.4915 15.1761 12.3748 15.2175C12.2581 15.2595 12.1331 15.2805 11.9998 15.2805Z" fill="#727F8F"/>
</svg>
