<svg width="40" height="40" viewBox="0 0 40 40" fill="none" xmlns="http://www.w3.org/2000/svg">
<path d="M21.125 24.875C21.125 25.0975 21.059 25.315 20.9354 25.5C20.8118 25.685 20.6361 25.8292 20.4305 25.9144C20.225 25.9995 19.9988 26.0218 19.7805 25.9784C19.5623 25.935 19.3618 25.8278 19.2045 25.6705C19.0472 25.5132 18.94 25.3127 18.8966 25.0945C18.8532 24.8762 18.8755 24.65 18.9606 24.4445C19.0458 24.2389 19.19 24.0632 19.375 23.9396C19.56 23.816 19.7775 23.75 20 23.75C20.2984 23.75 20.5845 23.8685 20.7955 24.0795C21.0065 24.2905 21.125 24.5766 21.125 24.875ZM20 14.75C17.9319 14.75 16.25 16.2641 16.25 18.125V18.5C16.25 18.6989 16.329 18.8897 16.4697 19.0303C16.6103 19.171 16.8011 19.25 17 19.25C17.1989 19.25 17.3897 19.171 17.5303 19.0303C17.671 18.8897 17.75 18.6989 17.75 18.5V18.125C17.75 17.0938 18.7597 16.25 20 16.25C21.2403 16.25 22.25 17.0938 22.25 18.125C22.25 19.1562 21.2403 20 20 20C19.8011 20 19.6103 20.079 19.4697 20.2197C19.329 20.3603 19.25 20.5511 19.25 20.75V21.5C19.25 21.6989 19.329 21.8897 19.4697 22.0303C19.6103 22.171 19.8011 22.25 20 22.25C20.1989 22.25 20.3897 22.171 20.5303 22.0303C20.671 21.8897 20.75 21.6989 20.75 21.5V21.4325C22.46 21.1184 23.75 19.7544 23.75 18.125C23.75 16.2641 22.0681 14.75 20 14.75ZM29.75 20C29.75 21.9284 29.1782 23.8134 28.1068 25.4168C27.0355 27.0202 25.5127 28.2699 23.7312 29.0078C21.9496 29.7458 19.9892 29.9389 18.0979 29.5627C16.2066 29.1865 14.4693 28.2579 13.1057 26.8943C11.7422 25.5307 10.8136 23.7934 10.4373 21.9021C10.0611 20.0108 10.2542 18.0504 10.9922 16.2688C11.7301 14.4873 12.9798 12.9645 14.5832 11.8932C16.1866 10.8218 18.0716 10.25 20 10.25C22.585 10.2527 25.0634 11.2808 26.8913 13.1087C28.7192 14.9366 29.7473 17.415 29.75 20ZM28.25 20C28.25 18.3683 27.7661 16.7733 26.8596 15.4165C25.9531 14.0598 24.6646 13.0024 23.1571 12.378C21.6497 11.7536 19.9909 11.5902 18.3905 11.9085C16.7902 12.2268 15.3202 13.0126 14.1664 14.1664C13.0126 15.3202 12.2269 16.7902 11.9085 18.3905C11.5902 19.9908 11.7536 21.6496 12.378 23.1571C13.0024 24.6646 14.0598 25.9531 15.4165 26.8596C16.7733 27.7661 18.3683 28.25 20 28.25C22.1873 28.2475 24.2843 27.3775 25.8309 25.8309C27.3775 24.2843 28.2475 22.1873 28.25 20Z" fill="#727F8F"/>
</svg>
