<svg width="20" height="20" viewBox="0 0 20 20" fill="none" xmlns="http://www.w3.org/2000/svg">
<path d="M9.99935 8.33268C11.8403 8.33268 13.3327 6.8403 13.3327 4.99935C13.3327 3.1584 11.8403 1.66602 9.99935 1.66602C8.1584 1.66602 6.66602 3.1584 6.66602 4.99935C6.66602 6.8403 8.1584 8.33268 9.99935 8.33268Z" stroke="#3E4C59" stroke-width="1.5"/>
<path d="M16.6647 14.9987C16.6663 14.862 16.6663 14.7229 16.6663 14.582C16.6663 12.5112 13.6813 10.832 9.99967 10.832C6.31801 10.832 3.33301 12.5112 3.33301 14.582C3.33301 16.6529 3.33301 18.332 9.99967 18.332C11.8588 18.332 13.1997 18.2012 14.1663 17.9679" stroke="#3E4C59" stroke-width="1.5" stroke-linecap="round"/>
</svg>
