<svg width="24" height="22" viewBox="0 0 24 22" fill="none" xmlns="http://www.w3.org/2000/svg">
<path d="M2.57143 0.5C1.15179 0.5 0 1.50781 0 2.75V19.25C0 20.4922 1.15179 21.5 2.57143 21.5H21.4286C22.8482 21.5 24 20.4922 24 19.25V2.75C24 1.50781 22.8482 0.5 21.4286 0.5H2.57143ZM12.0103 3.5C14.5309 3.5 16.5939 5.30516 16.5939 7.51062V11.2865C17.1074 12.0095 17.4049 12.861 17.4049 13.7707C17.4048 16.3731 14.9741 18.5 12 18.5C9.02588 18.5 6.59518 16.3731 6.59518 13.7708C6.59518 11.1684 9.02588 9.04156 12 9.04156C13.0061 9.04156 13.9497 9.28522 14.7583 9.70803V7.51062C14.7583 6.17314 13.5388 5.10617 12.0103 5.10617C10.4819 5.10617 9.2625 6.17314 9.2625 7.51062V8.05836H7.42687V7.51062C7.42687 5.30511 9.4898 3.5 12.0103 3.5ZM12 10.6477C10.0179 10.6477 8.4308 12.0365 8.4308 13.7707C8.4308 15.5051 10.0179 16.8938 12 16.8938C13.9821 16.8938 15.5692 15.5051 15.5692 13.7707C15.5692 12.0365 13.9821 10.6477 12 10.6477ZM12.0176 12.46C12.8539 12.46 13.532 13.0532 13.532 13.785C13.532 14.5168 12.8539 15.1102 12.0176 15.1102C11.1812 15.1102 10.5033 14.5168 10.5033 13.785C10.5033 13.0532 11.1812 12.46 12.0176 12.46Z" fill="#4779E8"/>
</svg>
