<svg width="20" height="16" viewBox="0 0 20 16" fill="none" xmlns="http://www.w3.org/2000/svg">
<path d="M2 16C1.45 16 0.979333 15.8043 0.588 15.413C0.196667 15.0217 0.000666667 14.5507 0 14V2C0 1.45 0.196 0.979333 0.588 0.588C0.98 0.196666 1.45067 0.000666667 2 0H18C18.55 0 19.021 0.196 19.413 0.588C19.805 0.98 20.0007 1.45067 20 2V14C20 14.55 19.8043 15.021 19.413 15.413C19.0217 15.805 18.5507 16.0007 18 16H2ZM2 14H18V4H2V14ZM8.95 9.65L12.425 6.175C12.625 5.975 12.8667 5.875 13.15 5.875C13.4333 5.875 13.675 5.975 13.875 6.175C14.075 6.375 14.175 6.61667 14.175 6.9C14.175 7.18333 14.075 7.425 13.875 7.625L9.65 11.85C9.45 12.05 9.21667 12.15 8.95 12.15C8.68333 12.15 8.45 12.05 8.25 11.85L6.125 9.725C5.925 9.525 5.825 9.28333 5.825 9C5.825 8.71667 5.925 8.475 6.125 8.275C6.325 8.075 6.56667 7.975 6.85 7.975C7.13333 7.975 7.375 8.075 7.575 8.275L8.95 9.65Z" fill="#4779E8"/>
</svg>
