<svg width="90" height="64" viewBox="0 0 90 64" fill="none" xmlns="http://www.w3.org/2000/svg">
<path d="M47.3153 50.7589C48.5018 50.721 49.6902 50.721 50.8767 50.7589C51.8041 50.7665 52.6412 51.3321 53.1538 52.0723C53.5762 52.7099 53.5973 53.5203 53.4879 54.2529C53.3919 55.0007 52.8197 55.5795 52.2265 55.997C51.1532 56.6537 49.8592 56.3519 48.6707 56.426C48.5594 57.6615 48.6631 58.9065 48.6247 60.1458C48.185 60.1837 47.7453 60.1837 47.3076 60.1458C47.3076 57.0162 47.2903 53.8866 47.3153 50.757M48.6803 52.0628C48.5786 53.0743 48.6055 54.0973 48.6592 55.1126C49.4848 55.1183 50.318 55.1772 51.1379 55.0766C52.2572 54.6989 52.5394 53.1085 51.639 52.3702C50.7635 51.8141 49.6576 52.1349 48.6803 52.0609M67.173 53.2812C67.192 52.6986 67.118 52.1045 67.252 51.5333C67.678 51.5238 68.106 51.5257 68.534 51.5541C68.573 52.1254 68.534 52.6967 68.573 53.2679C69.016 53.5032 69.6 53.3229 70.101 53.397C70.124 53.7974 70.124 54.1998 70.109 54.604C69.592 54.6268 69.074 54.6382 68.561 54.7065C68.554 55.923 68.548 57.1415 68.565 58.3599C68.55 58.6749 68.7 59.0526 69.043 59.1285C69.423 59.1646 69.807 59.0925 70.189 59.0792C70.235 59.491 70.189 59.9066 70.084 60.3071C69.468 60.3431 68.826 60.4267 68.225 60.2539C67.745 59.9636 67.248 59.5441 67.225 58.9444C67.091 57.54 67.265 56.1261 67.137 54.7217C66.743 54.659 66.351 54.604 65.96 54.5471C65.956 54.1694 65.966 53.7936 65.989 53.4178C66.382 53.378 66.795 53.4178 67.173 53.2812ZM54.636 54.6097C55.6996 52.6587 59.0595 52.6473 60.1289 54.6097C60.4304 55.2569 60.367 55.9894 60.3747 56.6841C60.3536 57.8418 60.4035 59.0014 60.3516 60.1591C60.0061 60.1799 59.6624 60.178 59.3187 60.1496C59.2074 59.9901 59.0998 59.8345 58.9885 59.6789C58.2071 60.1647 57.2874 60.6905 56.3351 60.3697C54.9566 60.1648 53.8968 58.6047 54.5035 57.2952C54.8817 56.2817 56.003 55.8395 57.0129 55.7655C57.729 55.7124 58.4164 55.9534 59.1248 55.997C59.0557 55.1753 58.4355 54.3858 57.537 54.4389C56.7479 54.3079 56.0894 54.7805 55.571 55.3062C55.2197 55.1316 54.9163 54.8792 54.636 54.6116M55.7438 58.2024C55.7995 58.8894 56.554 59.2652 57.1876 59.2272C58.1744 59.1817 59.0077 58.3295 59.0576 57.3597C58.5143 56.8776 57.7233 56.853 57.034 56.9099C56.3678 56.9422 55.6593 57.4888 55.7457 58.2024M72.58 53.9265C73.204 53.5564 73.835 53.0857 74.609 53.1692C75.926 53.0459 77.12 54.2074 77.13 55.4903C77.147 57.039 77.138 58.5876 77.138 60.1363C76.698 60.1818 76.256 60.1875 75.817 60.1458C75.761 58.6085 75.899 57.0617 75.746 55.5302C75.669 54.5452 74.44 54.2396 73.64 54.5433C72.937 54.8431 72.538 55.6023 72.538 56.3368C72.509 57.6026 72.553 58.8704 72.53 60.1382C72.075 60.1856 71.62 60.1837 71.167 60.1439C71.14 57.8968 71.138 55.6497 71.167 53.4065C71.581 53.3685 72 53.359 72.413 53.4273C72.453 53.5526 72.538 53.8031 72.58 53.9284M79.53 53.7993C80.824 52.8086 82.865 52.9851 83.953 54.2017C84.61 54.9988 84.931 56.0578 84.777 57.0826C83.041 57.1377 81.306 57.075 79.57 57.1073C79.415 58.358 80.726 59.3847 81.932 59.1703C82.648 59.1551 83.072 58.5383 83.552 58.1094C83.965 58.06 84.311 58.3694 84.67 58.5269C83.973 60.2426 81.686 60.9353 80.069 60.0964C77.671 59.0222 77.485 55.3081 79.53 53.8012M79.559 55.9591C80.816 56.0084 82.074 56.0084 83.331 55.9591C83.262 55.0595 82.346 54.3326 81.438 54.4408C80.517 54.3877 79.841 55.1715 79.561 55.9591M88.348 53.266C88.834 53.1047 89.358 53.1863 89.852 53.2736C89.894 53.7272 89.901 54.1846 89.892 54.642C89.391 54.6173 88.878 54.4825 88.383 54.6097C87.663 54.8526 87.204 55.6042 87.214 56.3406C87.185 57.6007 87.229 58.8647 87.208 60.1268C86.758 60.1875 86.303 60.1913 85.856 60.1439C85.829 57.8987 85.829 55.6516 85.856 53.4084C86.207 53.3799 86.563 53.3704 86.918 53.3799C87.031 53.5507 87.15 53.7177 87.275 53.8828C87.634 53.676 87.972 53.4311 88.35 53.2641M62.8303 54.0726C63.3218 53.7993 63.7787 53.3761 64.372 53.3704C64.685 53.3495 64.996 53.3704 65.309 53.3856C65.332 53.7974 65.334 54.2131 65.322 54.6287C64.723 54.7217 64.0187 54.5793 63.5311 55.0177C63.2085 55.3271 62.8994 55.7237 62.8898 56.1906C62.838 57.559 62.9186 58.9292 62.861 60.2995C62.429 60.3356 61.9932 60.3394 61.5631 60.3147C61.5267 58.0638 61.5343 55.8073 61.5593 53.5564C61.9337 53.5298 62.3119 53.5222 62.6863 53.5849C62.7228 53.7082 62.7919 53.953 62.8284 54.0745" fill="#606469"/>
<path d="M47.3153 50.7589C48.5018 50.721 49.6902 50.721 50.8767 50.7589C51.8041 50.7665 52.6412 51.3321 53.1538 52.0723C53.5762 52.7099 53.5973 53.5203 53.4879 54.2529C53.3919 55.0007 52.8197 55.5795 52.2265 55.997C51.1532 56.6537 49.8592 56.3519 48.6707 56.426C48.5594 57.6615 48.6631 58.9065 48.6247 60.1458C48.185 60.1837 47.7453 60.1837 47.3076 60.1458C47.3076 57.0162 47.2903 53.8866 47.3153 50.757M48.6803 52.0628C48.5786 53.0743 48.6055 54.0973 48.6592 55.1126C49.4848 55.1183 50.318 55.1772 51.1379 55.0766C52.2572 54.6989 52.5394 53.1085 51.639 52.3702C50.7635 51.8141 49.6576 52.1349 48.6803 52.0609M54.636 54.6097C55.6996 52.6587 59.0595 52.6473 60.1289 54.6097C60.4304 55.2569 60.367 55.9894 60.3747 56.6841C60.3536 57.8418 60.4035 59.0014 60.3516 60.1591C60.0061 60.1799 59.6624 60.178 59.3187 60.1496C59.2074 59.9901 59.0998 59.8345 58.9885 59.6789C58.2071 60.1647 57.2874 60.6905 56.3351 60.3697C54.9566 60.1648 53.8968 58.6047 54.5035 57.2952C54.8817 56.2817 56.003 55.8395 57.0129 55.7655C57.729 55.7124 58.4164 55.9534 59.1248 55.997C59.0557 55.1753 58.4355 54.3858 57.537 54.4389C56.7479 54.3079 56.0894 54.7805 55.571 55.3062C55.2197 55.1316 54.9163 54.8792 54.636 54.6116M55.7438 58.2024C55.7995 58.8894 56.554 59.2652 57.1876 59.2272C58.1744 59.1817 59.0077 58.3295 59.0576 57.3597C58.5143 56.8776 57.7233 56.853 57.034 56.9099C56.3678 56.9422 55.6593 57.4888 55.7457 58.2024M72.58 53.9265C73.204 53.5564 73.835 53.0857 74.609 53.1692C75.926 53.0459 77.12 54.2074 77.13 55.4903C77.147 57.039 77.138 58.5876 77.138 60.1363C76.698 60.1818 76.256 60.1875 75.817 60.1458C75.761 58.6085 75.899 57.0617 75.746 55.5302C75.669 54.5452 74.44 54.2396 73.64 54.5433C72.937 54.8431 72.538 55.6023 72.538 56.3368C72.509 57.6026 72.553 58.8704 72.53 60.1382C72.075 60.1856 71.62 60.1837 71.167 60.1439C71.14 57.8968 71.138 55.6497 71.167 53.4065C71.581 53.3685 72 53.359 72.413 53.4273C72.453 53.5526 72.538 53.8031 72.58 53.9284M79.53 53.7993C80.824 52.8086 82.865 52.9851 83.953 54.2017C84.61 54.9988 84.931 56.0578 84.777 57.0826C83.041 57.1377 81.306 57.075 79.57 57.1073C79.415 58.358 80.726 59.3847 81.932 59.1703C82.648 59.1551 83.072 58.5383 83.552 58.1094C83.965 58.06 84.311 58.3694 84.67 58.5269C83.973 60.2426 81.686 60.9353 80.069 60.0964C77.671 59.0222 77.485 55.3081 79.53 53.8012M79.559 55.9591C80.816 56.0084 82.074 56.0084 83.331 55.9591C83.262 55.0595 82.346 54.3326 81.438 54.4408C80.517 54.3877 79.841 55.1715 79.561 55.9591M88.348 53.266C88.834 53.1047 89.358 53.1863 89.852 53.2736C89.894 53.7272 89.901 54.1846 89.892 54.642C89.391 54.6173 88.878 54.4825 88.383 54.6097C87.663 54.8526 87.204 55.6042 87.214 56.3406C87.185 57.6007 87.229 58.8647 87.208 60.1268C86.758 60.1875 86.303 60.1913 85.856 60.1439C85.829 57.8987 85.829 55.6516 85.856 53.4084C86.207 53.3799 86.563 53.3704 86.918 53.3799C87.031 53.5507 87.15 53.7177 87.275 53.8828C87.634 53.676 87.972 53.4311 88.35 53.2641M67.173 53.2812C67.192 52.6986 67.118 52.1045 67.252 51.5333C67.678 51.5238 68.106 51.5257 68.534 51.5541C68.573 52.1254 68.534 52.6967 68.573 53.2679C69.016 53.5032 69.6 53.3229 70.101 53.397C70.124 53.7974 70.124 54.1998 70.109 54.604C69.592 54.6268 69.074 54.6382 68.561 54.7065C68.554 55.923 68.548 57.1415 68.565 58.3599C68.55 58.6749 68.7 59.0526 69.043 59.1285C69.423 59.1646 69.807 59.0925 70.189 59.0792C70.235 59.491 70.189 59.9066 70.084 60.3071C69.468 60.3431 68.826 60.4267 68.225 60.2539C67.745 59.9636 67.248 59.5441 67.225 58.9444C67.091 57.54 67.265 56.1261 67.137 54.7217C66.743 54.659 66.351 54.604 65.96 54.5471C65.956 54.1694 65.966 53.7936 65.989 53.4178C66.382 53.378 66.795 53.4178 67.173 53.2812ZM62.8303 54.0726C63.3218 53.7993 63.7787 53.3761 64.372 53.3704C64.685 53.3495 64.996 53.3704 65.309 53.3856C65.332 53.7974 65.334 54.2131 65.322 54.6287C64.723 54.7217 64.0187 54.5793 63.5311 55.0177C63.2085 55.3271 62.8994 55.7237 62.8898 56.1906C62.838 57.559 62.9186 58.9292 62.861 60.2995C62.429 60.3356 61.9932 60.3394 61.5631 60.3147C61.5267 58.0638 61.5343 55.8073 61.5593 53.5564C61.9337 53.5298 62.3119 53.5222 62.6863 53.5849C62.7228 53.7082 62.7919 53.953 62.8284 54.0745L62.8303 54.0726Z" stroke="#5F6368" stroke-width="0.0681275" stroke-miterlimit="10"/>
<path d="M31.307 6.4566C35.1161 2.57927 40.6628 0.533377 46.1001 0.736447C49.2872 0.947107 52.4743 1.76699 55.1987 3.44849C56.3276 4.1469 57.4565 4.8947 58.3532 5.8778C57.4949 6.8722 56.4889 7.732 55.5788 8.6771C54.6093 9.5995 53.705 10.5902 52.7066 11.4784C51.1438 10.0758 49.2085 9.0149 47.0966 8.7359C44.9059 8.4816 42.5924 8.5879 40.5822 9.5672C38.3493 10.5636 36.4659 12.283 35.2294 14.3669C34.8032 15.071 34.5248 15.8491 34.1715 16.5893C31.9425 14.9666 29.8056 13.2301 27.5977 11.5808C28.4655 9.6507 29.7864 7.9293 31.3051 6.4547" fill="#EA4335"/>
<path d="M27.5999 11.582C29.8078 13.2313 31.9447 14.9678 34.1738 16.5905C33.8416 18.1695 33.3443 19.7865 33.6496 21.413C33.7418 22.3069 34.0125 23.1704 34.1757 24.0529C32.4381 25.408 30.6737 26.7289 28.9515 28.1029C28.5176 28.4464 28.0434 28.7387 27.5538 29.0006C26.3731 26.6416 25.6204 24.0396 25.5436 21.3978C25.4726 19.6669 25.5321 17.9133 25.9065 16.2185C26.3097 14.6243 26.7609 13.0092 27.6018 11.582" fill="#FBBC04"/>
<path d="M45.3771 16.7368C50.7932 16.7368 56.2094 16.7368 61.6255 16.7368C62.3167 16.7406 63.0136 16.6855 63.701 16.7975C64.897 22.6164 63.5954 29.0653 59.6826 33.6562C59.2563 34.1592 58.8455 34.7039 58.256 35.0322C56.0923 33.4608 54.0245 31.7679 51.8838 30.1661C53.7595 28.773 55.2014 26.6835 55.4548 24.3453C52.0758 24.2846 48.6947 24.3681 45.3176 24.3074C45.2235 22.3317 45.3099 20.3484 45.2772 18.369C45.2964 17.8262 45.2043 17.2625 45.3771 16.7368Z" fill="#4284F4"/>
<path d="M28.9505 28.1086C30.6726 26.7327 32.439 25.4137 34.1746 24.0586C34.6028 24.8443 34.8715 25.7078 35.3707 26.4556C36.9259 28.9817 39.4736 30.8966 42.3651 31.669C44.3868 32.1359 46.5102 32.0752 48.5319 31.6311C49.7261 31.3293 50.8166 30.7562 51.888 30.1716C54.0287 31.7734 56.0965 33.4663 58.2602 35.0377C57.7399 35.6944 57.0296 36.1594 56.348 36.6357C53.1244 38.8904 49.1329 39.7881 45.2354 39.8849C41.3033 39.8052 37.3598 38.7006 34.1151 36.4687C31.3273 34.5955 29.0464 31.9936 27.5527 29.0063C28.0423 28.7444 28.5185 28.4521 28.9505 28.1086Z" fill="#34A853"/>
<path d="M2.21993 51.4747C3.61193 50.3873 5.59713 50.3132 7.21753 50.8978C7.79743 51.1692 8.45783 51.4937 8.73243 52.1067C8.45783 52.4047 8.16983 52.6913 7.85693 52.9494C7.38653 52.5736 6.91803 52.1694 6.33443 51.9796C4.89833 51.5601 3.19143 51.991 2.30833 53.2379C1.55953 54.0995 1.52883 55.3122 1.68433 56.3826C2.00683 58.0565 3.74443 59.2863 5.45123 59.1364C6.99103 59.1497 8.51163 57.8781 8.50773 56.3086C7.39613 56.227 6.28253 56.3143 5.16903 56.2649C4.99623 55.9195 5.00963 55.5286 5.08263 55.1623C6.64353 55.0067 8.22553 55.1129 9.79603 55.1072C9.96113 56.4851 9.74803 58.0376 8.69213 59.0396C6.96993 60.854 3.84233 60.8768 1.96463 59.2882C0.776132 58.2862 0.0869329 56.7185 0.198233 55.1756C0.277033 53.7237 1.05263 52.3459 2.22193 51.4766M34.3924 50.801C34.8359 50.7213 35.289 50.7232 35.7402 50.7479C35.7997 53.8604 35.7517 56.9747 35.7632 60.0891C35.3274 60.2505 34.8551 60.1632 34.4039 60.148C34.3693 57.0317 34.3924 53.9154 34.3924 50.801ZM13.3709 53.2644C14.352 53.0557 15.4387 53.1676 16.2701 53.7636C17.8905 54.7979 18.3225 57.1626 17.3107 58.7549C16.7116 59.8766 15.3926 60.4573 14.1524 60.4668C13.3153 60.3662 12.4475 60.0948 11.8446 59.4894C10.8289 58.5367 10.5083 56.9899 10.9077 55.6842C11.1803 54.4904 12.2094 53.5928 13.3729 53.2644M13.5361 54.555C12.7335 54.8188 12.1959 55.6216 12.1537 56.4414C12.0711 57.2651 12.2343 58.2027 12.9486 58.7284C14.0352 59.683 15.9917 59.0795 16.3469 57.6845C16.5235 56.8039 16.5465 55.7108 15.7997 55.0674C15.2602 54.424 14.306 54.312 13.538 54.5531M21.0737 53.2815C21.9723 53.0822 22.9783 53.1088 23.7809 53.5947C25.672 54.555 26.1865 57.2613 24.9712 58.9295C24.3453 59.9126 23.1607 60.4383 22.0145 60.4668C20.9278 60.3852 19.7835 59.9221 19.1807 58.9808C18.5701 58.1894 18.4703 57.1399 18.574 56.1795C18.7026 54.8245 19.7855 53.6782 21.0737 53.2796M21.3829 54.5322C19.5839 55.0788 19.3554 57.8193 20.851 58.8252C21.5883 59.3243 22.7115 59.3262 23.3853 58.7132C24.4874 57.8648 24.5335 56.0884 23.6311 55.0826C23.0897 54.4582 22.1547 54.312 21.3848 54.5303M26.4381 55.6576C26.7952 54.2418 28.1718 53.0215 29.7039 53.1714C30.4526 53.1183 31.0536 53.6022 31.6603 53.9515C31.7198 53.7636 31.7812 53.5757 31.8408 53.3916C32.2401 53.3669 32.6395 53.365 33.0388 53.3878C33.083 55.557 33.0446 57.7282 33.058 59.8994C33.0849 60.966 32.6337 62.1142 31.6929 62.6987C30.8654 63.2244 29.8287 63.2339 28.8821 63.1276C27.8511 62.9948 26.9238 62.2299 26.6166 61.2449C26.9372 61.0058 27.3078 60.6965 27.7398 60.7781C28.1084 61.1481 28.4175 61.6017 28.9013 61.8409C29.7749 62.2622 30.9058 61.9092 31.4549 61.1349C31.7678 60.6832 31.7428 60.1157 31.7505 59.5919C31.0325 60.0436 30.2434 60.5484 29.3525 60.4459C28.4655 60.3055 27.5247 59.9411 27.0217 59.163C26.2787 58.1723 26.1289 56.8324 26.44 55.6576M28.9167 54.5721C27.4249 55.261 27.2329 57.4568 28.2793 58.6031C28.8668 59.2351 29.8997 59.3528 30.6504 58.9523C32.123 58.0584 32.1556 55.614 30.708 54.684C30.1666 54.388 29.4888 54.3557 28.9148 54.5721M37.8636 54.1242C38.4876 53.4827 39.3823 53.0936 40.2923 53.1695C41.4289 53.1164 42.4907 53.8243 43.0628 54.7637C43.4564 55.4413 43.4794 56.2517 43.4641 57.0127C41.7534 57.2196 40.0101 57.0203 38.2879 57.1076C38.1382 58.3924 39.5282 59.4496 40.7627 59.144C41.4654 59.0738 41.8609 58.4551 42.2833 57.9768C42.6443 58.1249 42.9956 58.2919 43.347 58.4589C43.1108 59.4496 42.1009 60.1024 41.1467 60.3435C40.133 60.6509 39.0444 60.3169 38.1862 59.7627C37.2607 59.0985 36.9113 57.9256 36.8 56.8533C36.8748 55.8816 37.1264 54.8245 37.8675 54.128M39.3573 54.6005C38.7641 54.8074 38.4972 55.4318 38.3167 55.9784C39.5628 55.9917 40.8107 56.0011 42.0587 55.9708C41.9243 55.5703 41.8187 55.1224 41.4731 54.8434C40.8952 54.3633 40.0351 54.3348 39.3573 54.6024" fill="#606469"/>
<path d="M2.21993 51.4747C3.61193 50.3873 5.59713 50.3132 7.21753 50.8978C7.79743 51.1692 8.45783 51.4937 8.73243 52.1067C8.45783 52.4047 8.16983 52.6913 7.85693 52.9494C7.38653 52.5736 6.91803 52.1694 6.33443 51.9796C4.89833 51.5601 3.19143 51.991 2.30833 53.2379C1.55953 54.0995 1.52883 55.3122 1.68433 56.3826C2.00683 58.0565 3.74443 59.2863 5.45123 59.1364C6.99103 59.1497 8.51163 57.8781 8.50773 56.3086C7.39613 56.227 6.28253 56.3143 5.16903 56.2649C4.99623 55.9195 5.00963 55.5286 5.08263 55.1623C6.64353 55.0067 8.22553 55.1129 9.79603 55.1072C9.96113 56.4851 9.74803 58.0376 8.69213 59.0396C6.96993 60.854 3.84233 60.8768 1.96463 59.2882C0.776132 58.2862 0.0869329 56.7185 0.198233 55.1756C0.277033 53.7237 1.05263 52.3459 2.22193 51.4766M13.3709 53.2644C14.352 53.0557 15.4387 53.1676 16.2701 53.7636C17.8905 54.7979 18.3225 57.1626 17.3107 58.7549C16.7116 59.8766 15.3926 60.4573 14.1524 60.4668C13.3153 60.3662 12.4475 60.0948 11.8446 59.4894C10.8289 58.5367 10.5083 56.9899 10.9077 55.6842C11.1803 54.4904 12.2094 53.5928 13.3729 53.2644M13.5361 54.555C12.7335 54.8188 12.1959 55.6216 12.1537 56.4414C12.0711 57.2651 12.2343 58.2027 12.9486 58.7284C14.0352 59.683 15.9917 59.0795 16.3469 57.6845C16.5235 56.8039 16.5465 55.7108 15.7997 55.0674C15.2602 54.424 14.306 54.312 13.538 54.5531M21.0737 53.2815C21.9723 53.0822 22.9783 53.1088 23.7809 53.5947C25.672 54.555 26.1865 57.2613 24.9712 58.9295C24.3453 59.9126 23.1607 60.4383 22.0145 60.4668C20.9278 60.3852 19.7835 59.9221 19.1807 58.9808C18.5701 58.1894 18.4703 57.1399 18.574 56.1795C18.7026 54.8245 19.7855 53.6782 21.0737 53.2796M21.3829 54.5322C19.5839 55.0788 19.3554 57.8193 20.851 58.8252C21.5883 59.3243 22.7114 59.3262 23.3853 58.7132C24.4874 57.8648 24.5335 56.0884 23.6311 55.0826C23.0897 54.4582 22.1547 54.312 21.3848 54.5303M26.4381 55.6576C26.7952 54.2418 28.1718 53.0215 29.7039 53.1714C30.4526 53.1183 31.0536 53.6022 31.6603 53.9515C31.7198 53.7636 31.7812 53.5757 31.8408 53.3916C32.2401 53.3669 32.6395 53.365 33.0388 53.3878C33.083 55.557 33.0446 57.7282 33.058 59.8994C33.0849 60.966 32.6337 62.1142 31.6929 62.6987C30.8654 63.2244 29.8287 63.2339 28.8821 63.1276C27.8511 62.9948 26.9238 62.2299 26.6166 61.2449C26.9372 61.0058 27.3078 60.6965 27.7398 60.7781C28.1084 61.1481 28.4175 61.6017 28.9013 61.8409C29.7749 62.2622 30.9058 61.9092 31.4549 61.1349C31.7678 60.6832 31.7428 60.1157 31.7505 59.5919C31.0325 60.0436 30.2434 60.5484 29.3525 60.4459C28.4655 60.3055 27.5247 59.9411 27.0217 59.163C26.2787 58.1723 26.1289 56.8324 26.44 55.6576M28.9167 54.5721C27.4249 55.261 27.2329 57.4568 28.2793 58.6031C28.8668 59.2351 29.8997 59.3528 30.6504 58.9523C32.123 58.0584 32.1556 55.614 30.708 54.684C30.1666 54.388 29.4888 54.3557 28.9148 54.5721M37.8636 54.1242C38.4876 53.4827 39.3823 53.0936 40.2923 53.1695C41.4289 53.1164 42.4907 53.8243 43.0628 54.7637C43.4564 55.4413 43.4794 56.2517 43.4641 57.0127C41.7534 57.2196 40.0101 57.0203 38.2879 57.1076C38.1382 58.3924 39.5282 59.4496 40.7627 59.144C41.4654 59.0738 41.8609 58.4551 42.2833 57.9768C42.6443 58.1249 42.9956 58.2919 43.347 58.4589C43.1108 59.4496 42.1009 60.1024 41.1467 60.3435C40.133 60.6509 39.0444 60.3169 38.1862 59.7627C37.2607 59.0985 36.9113 57.9256 36.8 56.8533C36.8748 55.8816 37.1264 54.8245 37.8675 54.128M39.3573 54.6005C38.7641 54.8074 38.4972 55.4318 38.3167 55.9784C39.5628 55.9917 40.8107 56.0011 42.0587 55.9708C41.9243 55.5703 41.8187 55.1224 41.4731 54.8434C40.8952 54.3633 40.0351 54.3348 39.3573 54.6024M34.3924 50.801C34.8359 50.7213 35.289 50.7232 35.7402 50.7479C35.7997 53.8604 35.7517 56.9747 35.7632 60.0891C35.3274 60.2505 34.8551 60.1632 34.4039 60.148C34.3693 57.0317 34.3924 53.9154 34.3924 50.801Z" stroke="#5F6368" stroke-width="0.27251" stroke-miterlimit="10"/>
</svg>
