<svg width="18" height="17" viewBox="0 0 18 17" fill="none" xmlns="http://www.w3.org/2000/svg">
<path d="M9 0.375C7.39303 0.375 5.82214 0.851523 4.486 1.74431C3.14985 2.6371 2.10844 3.90605 1.49348 5.3907C0.87852 6.87535 0.717618 8.50901 1.03112 10.0851C1.34463 11.6612 2.11846 13.1089 3.25476 14.2452C4.39106 15.3815 5.8388 16.1554 7.4149 16.4689C8.99099 16.7824 10.6247 16.6215 12.1093 16.0065C13.594 15.3916 14.8629 14.3502 15.7557 13.014C16.6485 11.6779 17.125 10.107 17.125 8.5C17.1227 6.34581 16.266 4.28051 14.7427 2.75727C13.2195 1.23403 11.1542 0.377275 9 0.375ZM9 15.375C7.64026 15.375 6.31105 14.9718 5.18046 14.2164C4.04987 13.4609 3.16868 12.3872 2.64833 11.1309C2.12798 9.87471 1.99183 8.49237 2.2571 7.15875C2.52238 5.82513 3.17716 4.60013 4.13864 3.63864C5.10013 2.67716 6.32514 2.02237 7.65876 1.7571C8.99238 1.49183 10.3747 1.62798 11.631 2.14833C12.8872 2.66868 13.9609 3.54987 14.7164 4.68045C15.4718 5.81104 15.875 7.14025 15.875 8.5C15.8729 10.3227 15.1479 12.0702 13.8591 13.3591C12.5702 14.6479 10.8227 15.3729 9 15.375ZM6.5 8.5C6.5 9.02471 6.6651 9.53611 6.9719 9.96177C7.2787 10.3874 7.71165 10.7058 8.20943 10.8717C8.70721 11.0376 9.24458 11.0427 9.74542 10.8863C10.2463 10.7298 10.6852 10.4198 11 10C11.0996 9.86739 11.2477 9.77976 11.4119 9.7564C11.5761 9.73303 11.7428 9.77583 11.8754 9.87539C12.008 9.97495 12.0956 10.1231 12.119 10.2873C12.1424 10.4514 12.0996 10.6182 12 10.7508C11.5277 11.3802 10.8692 11.8451 10.118 12.0796C9.36679 12.3141 8.56083 12.3064 7.81427 12.0574C7.06771 11.8084 6.4184 11.3309 5.95829 10.6925C5.49818 10.054 5.25059 9.28698 5.25059 8.5C5.25059 7.71302 5.49818 6.94599 5.95829 6.30753C6.4184 5.66908 7.06771 5.19155 7.81427 4.94259C8.56083 4.69363 9.36679 4.68585 10.118 4.92036C10.8692 5.15486 11.5277 5.61976 12 6.24922C12.0493 6.31488 12.0852 6.38961 12.1056 6.46914C12.126 6.54866 12.1306 6.63143 12.119 6.71272C12.1074 6.79401 12.08 6.87222 12.0382 6.94289C11.9964 7.01357 11.9411 7.07531 11.8754 7.12461C11.8097 7.17391 11.735 7.20979 11.6555 7.2302C11.5759 7.25062 11.4932 7.25518 11.4119 7.2436C11.3306 7.23203 11.2524 7.20456 11.1817 7.16277C11.111 7.12097 11.0493 7.06566 11 7C10.6852 6.58024 10.2463 6.27017 9.74542 6.11372C9.24458 5.95727 8.70721 5.96237 8.20943 6.12829C7.71165 6.29422 7.2787 6.61256 6.9719 7.03822C6.6651 7.46389 6.5 7.97529 6.5 8.5Z" fill="#E4E7EC"/>
</svg>
