<svg width="33" height="33" viewBox="0 0 33 33" fill="none" xmlns="http://www.w3.org/2000/svg">
<path d="M32.1528 16.6606C32.1528 16.3092 31.8681 16.0241 31.5168 16.0241H17.6453C17.4765 16.024 17.3148 15.9569 17.1955 15.8375C17.0763 15.7182 17.0093 15.5564 17.0093 15.3876V1.56701H16.9905C16.9953 1.53533 17.0093 1.50701 17.0093 1.47437C17.0093 1.12253 16.7241 0.837891 16.3728 0.837891C16.3574 0.837891 16.3449 0.84557 16.3301 0.84653V0.84221C16.2734 0.84173 16.2173 0.837891 16.1606 0.837891C7.32862 0.837891 0.168457 7.99805 0.168457 16.8301C0.168457 25.6621 7.32862 32.8222 16.1606 32.8222C24.9926 32.8222 32.1528 25.6621 32.1528 16.8301C32.1528 16.7792 32.1504 16.7288 32.1494 16.6774C32.1494 16.6712 32.1528 16.6664 32.1528 16.6606Z" fill="#3E4C59"/>
</svg>
