<svg width="36" height="36" viewBox="0 0 36 36" fill="none" xmlns="http://www.w3.org/2000/svg">
<path fillRule="evenodd" clipRule="evenodd" d="M6 0C4.4087 0 2.88258 0.632141 1.75736 1.75736C0.632141 2.88258 0 4.4087 0 6V30C0 31.5913 0.632141 33.1174 1.75736 34.2426C2.88258 35.3679 4.4087 36 6 36H30C31.5913 36 33.1174 35.3679 34.2426 34.2426C35.3679 33.1174 36 31.5913 36 30V6C36 4.4087 35.3679 2.88258 34.2426 1.75736C33.1174 0.632141 31.5913 0 30 0H6ZM14 10C14 9.46957 14.2107 8.96086 14.5858 8.58579C14.9609 8.21071 15.4696 8 16 8H28C28.5304 8 29.0391 8.21071 29.4142 8.58579C29.7893 8.96086 30 9.46957 30 10C30 10.5304 29.7893 11.0391 29.4142 11.4142C29.0391 11.7893 28.5304 12 28 12H16C15.4696 12 14.9609 11.7893 14.5858 11.4142C14.2107 11.0391 14 10.5304 14 10ZM14 18C14 17.4696 14.2107 16.9609 14.5858 16.5858C14.9609 16.2107 15.4696 16 16 16H28C28.5304 16 29.0391 16.2107 29.4142 16.5858C29.7893 16.9609 30 17.4696 30 18C30 18.5304 29.7893 19.0391 29.4142 19.4142C29.0391 19.7893 28.5304 20 28 20H16C15.4696 20 14.9609 19.7893 14.5858 19.4142C14.2107 19.0391 14 18.5304 14 18ZM14 26C14 25.4696 14.2107 24.9609 14.5858 24.5858C14.9609 24.2107 15.4696 24 16 24H28C28.5304 24 29.0391 24.2107 29.4142 24.5858C29.7893 24.9609 30 25.4696 30 26C30 26.5304 29.7893 27.0391 29.4142 27.4142C29.0391 27.7893 28.5304 28 28 28H16C15.4696 28 14.9609 27.7893 14.5858 27.4142C14.2107 27.0391 14 26.5304 14 26ZM8 8C7.46957 8 6.96086 8.21071 6.58579 8.58579C6.21071 8.96086 6 9.46957 6 10C6 10.5304 6.21071 11.0391 6.58579 11.4142C6.96086 11.7893 7.46957 12 8 12C8.53043 12 9.04114 11.7893 9.41621 11.4142C9.79129 11.0391 10.002 10.5304 10.002 10C10.002 9.46957 9.79129 8.96086 9.41621 8.58579C9.04114 8.21071 8.53043 8 8 8ZM6 18C6 17.4696 6.21071 16.9609 6.58579 16.5858C6.96086 16.2107 7.46957 16 8 16C8.53043 16 9.04114 16.2107 9.41621 16.5858C9.79129 16.9609 10.002 17.4696 10.002 18C10.002 18.5304 9.79129 19.0391 9.41621 19.4142C9.04114 19.7893 8.53243 20 8.002 20C7.47157 20 6.96086 19.7893 6.58579 19.4142C6.21071 19.0391 6 18.5304 6 18ZM8 24C7.46957 24 6.96086 24.2107 6.58579 24.5858C6.21071 24.9609 6 25.4696 6 26C6 26.5304 6.21071 27.0391 6.58579 27.4142C6.96086 27.7893 7.46957 28 8 28C8.53043 28 9.04114 27.7893 9.41621 27.4142C9.79129 27.0391 10.002 26.5304 10.002 26C10.002 25.4696 9.79129 24.9609 9.41621 24.5858C9.04114 24.2107 8.53043 24 8 24Z" fill="#3E4C59"/>
</svg>
