<svg width="48" height="48" viewBox="0 0 48 48" fill="none" xmlns="http://www.w3.org/2000/svg">
<g clip-path="url(#clip0_269_2492)">
<path d="M24 6C24.3978 6 24.7794 6.15804 25.0607 6.43934C25.342 6.72064 25.5 7.10218 25.5 7.5V12C25.5 12.3978 25.342 12.7794 25.0607 13.0607C24.7794 13.342 24.3978 13.5 24 13.5C23.6022 13.5 23.2206 13.342 22.9393 13.0607C22.658 12.7794 22.5 12.3978 22.5 12V7.5C22.5 7.10218 22.658 6.72064 22.9393 6.43934C23.2206 6.15804 23.6022 6 24 6ZM11.196 11.196C11.4773 10.9148 11.8588 10.7568 12.2565 10.7568C12.6542 10.7568 13.0357 10.9148 13.317 11.196L16.062 13.938C16.3437 14.2197 16.5019 14.6017 16.5019 15C16.5019 15.3983 16.3437 15.7803 16.062 16.062C15.7803 16.3437 15.3983 16.5019 15 16.5019C14.6017 16.5019 14.2197 16.3437 13.938 16.062L11.196 13.317C10.9148 13.0357 10.7568 12.6542 10.7568 12.2565C10.7568 11.8588 10.9148 11.4773 11.196 11.196ZM6 24C6 23.6022 6.15804 23.2206 6.43934 22.9393C6.72064 22.658 7.10218 22.5 7.5 22.5H12.258C12.6558 22.5 13.0374 22.658 13.3187 22.9393C13.6 23.2206 13.758 23.6022 13.758 24C13.758 24.3978 13.6 24.7794 13.3187 25.0607C13.0374 25.342 12.6558 25.5 12.258 25.5H7.5C7.10218 25.5 6.72064 25.342 6.43934 25.0607C6.15804 24.7794 6 24.3978 6 24ZM34.5 24C34.5 23.6022 34.658 23.2206 34.9393 22.9393C35.2206 22.658 35.6022 22.5 36 22.5H40.5C40.8978 22.5 41.2794 22.658 41.5607 22.9393C41.842 23.2206 42 23.6022 42 24C42 24.3978 41.842 24.7794 41.5607 25.0607C41.2794 25.342 40.8978 25.5 40.5 25.5H36C35.6022 25.5 35.2206 25.342 34.9393 25.0607C34.658 24.7794 34.5 24.3978 34.5 24ZM36.762 11.262C36.5538 11.0559 36.2759 10.9354 35.9832 10.9243C35.6904 10.9132 35.4042 11.0123 35.181 11.202L22.641 21.93C22.3522 22.1773 22.1182 22.4822 21.954 22.8252C21.7898 23.1681 21.6991 23.5416 21.6877 23.9217C21.6762 24.3017 21.7443 24.68 21.8876 25.0322C22.0308 25.3844 22.246 25.7029 22.5195 25.9671C22.7929 26.2313 23.1185 26.4355 23.4755 26.5665C23.8324 26.6976 24.2128 26.7526 24.5922 26.7281C24.9717 26.7037 25.3418 26.6002 25.679 26.4243C26.0161 26.2485 26.3128 26.0042 26.55 25.707L36.852 12.816C37.0306 12.5914 37.1204 12.309 37.1044 12.0224C37.0883 11.7359 36.9676 11.4653 36.765 11.262H36.762Z" fill="#323E4A"/>
<path fillRule="evenodd" clipRule="evenodd" d="M19.9922 47.6672C16.884 47.1409 13.9099 46.0075 11.2397 44.3318C8.56956 42.656 6.25559 40.4708 4.42995 37.9008C0.742888 32.7104 -0.7313 26.268 0.331688 19.9907C1.39468 13.7134 4.90776 8.11554 10.0981 4.42848C15.2885 0.741423 21.7309 -0.732765 28.0082 0.330223C34.2859 1.39321 39.8842 4.90646 43.5715 10.0971C47.2588 15.2877 48.7332 21.7305 47.6702 28.0082C46.6072 34.2859 43.094 39.8842 37.9033 43.5715C32.7127 47.2589 26.2699 48.7332 19.9922 47.6702V47.6672ZM5.99719 34.8182C11.4685 31.6532 17.6794 29.9911 24.0002 30.0002C30.5582 30.0002 36.7082 31.7552 42.0032 34.8182C43.9168 31.6317 44.9504 27.9944 44.9984 24.2778C45.0464 20.5612 44.1071 16.8984 42.2765 13.6636C40.4458 10.4287 37.7893 7.73772 34.5784 5.86541C31.3675 3.9931 27.7171 3.00656 24.0002 3.00656C20.2833 3.00656 16.6329 3.9931 13.422 5.86541C10.211 7.73772 7.55459 10.4287 5.72391 13.6636C3.89323 16.8984 2.95393 20.5612 3.00194 24.2778C3.04995 27.9944 4.08356 31.6317 5.99719 34.8182Z" fill="#323E4A"/>
</g>
<defs>
<clipPath id="clip0_269_2492">
<rect width="48" height="48" fill="white"/>
</clipPath>
</defs>
</svg>
