<svg width="48" height="48" viewBox="0 0 48 48" fill="none" xmlns="http://www.w3.org/2000/svg">
<path fillRule="evenodd" clipRule="evenodd" d="M42.2002 16.008C42.0902 16 41.9682 16 41.8402 16H36.7902C32.6542 16 29.1162 19.256 29.1162 23.5C29.1162 27.744 32.6562 31 36.7902 31H41.8402C41.9682 31 42.0902 31 42.2042 30.992C43.0543 30.9407 43.8567 30.5822 44.462 29.9832C45.0673 29.3841 45.4341 28.5855 45.4942 27.736C45.5022 27.616 45.5022 27.486 45.5022 27.366V19.634C45.5022 19.514 45.5022 19.384 45.4942 19.264C45.4341 18.4145 45.0673 17.6159 44.462 17.0168C43.8567 16.4178 43.0543 16.0593 42.2042 16.008M36.3482 25.5C37.4122 25.5 38.2742 24.604 38.2742 23.5C38.2742 22.396 37.4122 21.5 36.3482 21.5C35.2822 21.5 34.4202 22.396 34.4202 23.5C34.4202 24.604 35.2822 25.5 36.3482 25.5Z" fill="#323E4A"/>
<path fillRule="evenodd" clipRule="evenodd" d="M41.836 34C41.9051 33.9972 41.974 34.0108 42.0369 34.0396C42.0998 34.0684 42.155 34.1117 42.1981 34.1658C42.2411 34.22 42.2708 34.2836 42.2847 34.3514C42.2986 34.4192 42.2963 34.4893 42.278 34.556C41.878 35.98 41.24 37.196 40.218 38.216C38.72 39.716 36.822 40.378 34.478 40.694C32.198 41 29.288 41 25.612 41H21.388C17.712 41 14.8 41 12.522 40.694C10.178 40.378 8.28 39.714 6.782 38.218C5.286 36.72 4.622 34.822 4.306 32.478C4 30.198 4 27.288 4 23.612V23.388C4 19.712 4 16.8 4.306 14.52C4.622 12.176 5.286 10.278 6.782 8.78C8.28 7.284 10.178 6.62 12.522 6.304C14.802 6 17.712 6 21.388 6H25.612C29.288 6 32.2 6 34.478 6.306C36.822 6.622 38.72 7.286 40.218 8.782C41.24 9.806 41.878 11.02 42.278 12.444C42.2963 12.5107 42.2986 12.5808 42.2847 12.6486C42.2708 12.7164 42.2411 12.78 42.1981 12.8342C42.155 12.8883 42.0998 12.9316 42.0369 12.9604C41.974 12.9892 41.9051 13.0028 41.836 13H36.788C31.114 13 26.114 17.48 26.114 23.5C26.114 29.52 31.114 34 36.788 34H41.836ZM14 31C13.6022 31 13.2206 30.842 12.9393 30.5607C12.658 30.2794 12.5 29.8978 12.5 29.5V17.5C12.5 17.1022 12.658 16.7206 12.9393 16.4393C13.2206 16.158 13.6022 16 14 16C14.3978 16 14.7794 16.158 15.0607 16.4393C15.342 16.7206 15.5 17.1022 15.5 17.5V29.5C15.5 29.8978 15.342 30.2794 15.0607 30.5607C14.7794 30.842 14.3978 31 14 31Z" fill="#323E4A"/>
</svg>
