<svg width="36" height="42" viewBox="0 0 36 42" fill="none" xmlns="http://www.w3.org/2000/svg">
<path fillRule="evenodd" clipRule="evenodd" d="M18 42C20.3638 42 22.7044 41.5344 24.8883 40.6298C27.0722 39.7253 29.0565 38.3994 30.7279 36.7279C32.3994 35.0565 33.7253 33.0722 34.6298 30.8883C35.5344 28.7044 36 26.3638 36 24C36 21.6362 35.5344 19.2956 34.6298 17.1117C33.7253 14.9278 32.3994 12.9435 30.7279 11.2721C29.0565 9.60062 27.0722 8.27475 24.8883 7.37017C22.7044 6.46558 20.3638 6 18 6C13.2261 6 8.64773 7.89642 5.27208 11.2721C1.89642 14.6477 0 19.2261 0 24C0 28.7739 1.89642 33.3523 5.27208 36.7279C8.64773 40.1036 13.2261 42 18 42ZM18 14.5C18.3978 14.5 18.7794 14.658 19.0607 14.9393C19.342 15.2206 19.5 15.6022 19.5 16V24C19.5 24.3978 19.342 24.7794 19.0607 25.0607C18.7794 25.342 18.3978 25.5 18 25.5C17.6022 25.5 17.2206 25.342 16.9393 25.0607C16.658 24.7794 16.5 24.3978 16.5 24V16C16.5 15.6022 16.658 15.2206 16.9393 14.9393C17.2206 14.658 17.6022 14.5 18 14.5ZM12.5 2C12.5 1.60218 12.658 1.22064 12.9393 0.93934C13.2206 0.658035 13.6022 0.5 14 0.5H22C22.3978 0.5 22.7794 0.658035 23.0607 0.93934C23.342 1.22064 23.5 1.60218 23.5 2C23.5 2.39782 23.342 2.77936 23.0607 3.06066C22.7794 3.34196 22.3978 3.5 22 3.5H14C13.6022 3.5 13.2206 3.34196 12.9393 3.06066C12.658 2.77936 12.5 2.39782 12.5 2Z" fill="#323E4A"/>
</svg>
