<svg width="43" height="39" viewBox="0 0 43 39" fill="none" xmlns="http://www.w3.org/2000/svg">
<path d="M3.06015 34.3L5.74015 35.42V17.36L0.880148 29.08C0.0601483 31.12 1.00015 33.46 3.06015 34.3ZM42.0602 26.9L32.1401 3C31.8471 2.27509 31.3481 1.65196 30.7047 1.20764C30.0613 0.763316 29.3018 0.517298 28.5201 0.5C28.0001 0.5 27.4601 0.58 26.9401 0.8L12.2001 6.9C11.4887 7.20191 10.8788 7.70155 10.4428 8.33964C10.0068 8.97773 9.76291 9.7275 9.74015 10.5C9.72015 11 9.82015 11.58 10.0001 12.1L20.0001 36C20.5801 37.56 22.0602 38.48 23.6201 38.5C24.1402 38.5 24.6601 38.4 25.1601 38.2L39.8801 32.1C40.8586 31.6993 41.6379 30.9264 42.0467 29.9513C42.4555 28.9762 42.4604 27.8787 42.0602 26.9ZM13.7601 12.5C13.2297 12.5 12.721 12.2893 12.3459 11.9142C11.9709 11.5391 11.7601 11.0304 11.7601 10.5C11.7601 9.96957 11.9709 9.46086 12.3459 9.08579C12.721 8.71071 13.2297 8.5 13.7601 8.5C14.8601 8.5 15.7601 9.4 15.7601 10.5C15.7601 11.6 14.8601 12.5 13.7601 12.5ZM9.76015 34.5C9.76015 35.5609 10.1816 36.5783 10.9317 37.3284C11.6819 38.0786 12.6993 38.5 13.7601 38.5H16.6601L9.76015 21.82V34.5Z" fill="#323E4A"/>
</svg>
