<svg width="40" height="40" viewBox="0 0 40 40" fill="none" xmlns="http://www.w3.org/2000/svg">
<path fillRule="evenodd" clipRule="evenodd" d="M28.2742 5.45551L31.9342 9.11551C37.3122 14.4955 40.0002 17.1835 40.0002 20.5235C40.0002 23.8655 37.3122 26.5535 31.9342 31.9315C26.5542 37.3115 23.8662 39.9995 20.5242 39.9995C17.1842 39.9995 14.4942 37.3115 9.11622 31.9335L5.45622 28.2735C2.36622 25.1815 0.820221 23.6375 0.246221 21.6315C-0.329779 19.6255 0.162221 17.4955 1.14622 13.2375L1.71222 10.7815C2.53822 7.19751 2.95222 5.40551 4.17822 4.17751C5.40622 2.95151 7.19822 2.53751 10.7822 1.71151L13.2382 1.14351C17.4982 0.161514 19.6262 -0.330486 21.6322 0.243514C23.6382 0.819514 25.1842 2.36551 28.2742 5.45551ZM18.2922 24.6555C16.9462 23.3115 16.9562 21.3795 17.7622 19.8495C17.5627 19.5613 17.4704 19.2123 17.5014 18.8631C17.5323 18.514 17.6846 18.1867 17.9318 17.9381C18.1789 17.6895 18.5054 17.5353 18.8544 17.5023C19.2033 17.4694 19.5529 17.5596 19.8422 17.7575C20.5222 17.3975 21.2682 17.2055 22.0122 17.2135C22.41 17.2172 22.7901 17.3788 23.0688 17.6628C23.3475 17.9467 23.5019 18.3297 23.4982 18.7275C23.4945 19.1253 23.3329 19.5054 23.049 19.7841C22.7651 20.0628 22.382 20.2172 21.9842 20.2135C21.5211 20.2306 21.0835 20.4297 20.7662 20.7675C19.9922 21.5415 20.1942 22.3175 20.4122 22.5355C20.6322 22.7535 21.4062 22.9555 22.1802 22.1815C23.7482 20.6135 26.4562 20.0935 28.1902 21.8275C29.5362 23.1735 29.5262 25.1055 28.7202 26.6355C28.9185 26.9238 29.0098 27.2723 28.9782 27.6208C28.9467 27.9692 28.7943 28.2957 28.5475 28.5437C28.3007 28.7917 27.975 28.9456 27.6267 28.9788C27.2784 29.012 26.9294 28.9224 26.6402 28.7255C25.7427 29.2178 24.7017 29.3819 23.6962 29.1895C23.3064 29.1094 22.9643 28.8777 22.7452 28.5454C22.5262 28.2131 22.4481 27.8074 22.5282 27.4175C22.6083 27.0276 22.84 26.6856 23.1723 26.4665C23.5046 26.2475 23.9104 26.1694 24.3002 26.2495C24.6542 26.3235 25.2262 26.2075 25.7162 25.7175C26.4902 24.9415 26.2882 24.1675 26.0702 23.9495C25.8502 23.7315 25.0762 23.5295 24.3022 24.3035C22.7342 25.8715 20.0262 26.3915 18.2922 24.6555ZM16.0402 16.5855C16.4116 16.214 16.7062 15.773 16.9071 15.2876C17.108 14.8023 17.2114 14.2821 17.2113 13.7568C17.2112 13.2315 17.1077 12.7114 16.9066 12.2261C16.7055 11.7408 16.4107 11.2999 16.0392 10.9285C15.6677 10.5571 15.2267 10.2626 14.7413 10.0616C14.256 9.86069 13.7358 9.75732 13.2105 9.75741C12.6852 9.7575 12.1651 9.86106 11.6798 10.0622C11.1945 10.2633 10.7536 10.558 10.3822 10.9295C9.63219 11.6798 9.21093 12.6973 9.21112 13.7582C9.21131 14.8191 9.63292 15.8365 10.3832 16.5865C11.1335 17.3365 12.151 17.7578 13.2119 17.7576C14.2728 17.7574 15.2902 17.3358 16.0402 16.5855Z" fill="#3E4C59"/>
</svg>
