<svg width="48" height="39" viewBox="0 0 48 39" fill="none" xmlns="http://www.w3.org/2000/svg">
<path d="M23.8919 0.581055C14.9609 0.581055 7.17887 5.69305 4.93187 12.9561H3.28187C2.8445 12.9565 2.41252 13.0526 2.0162 13.2376C1.61988 13.4226 1.26881 13.6921 0.987578 14.027C0.706346 14.362 0.501755 14.7544 0.388141 15.1768C0.274528 15.5991 0.254638 16.0412 0.329866 16.4721L1.09187 20.8521C1.27346 21.8963 1.81779 22.8428 2.62894 23.525C3.44009 24.2072 4.46599 24.5812 5.52587 24.5811H6.31487C7.21487 26.1201 8.37887 27.5151 9.74987 28.7271L7.56287 36.1581C7.4971 36.3818 7.48441 36.6178 7.5258 36.8473C7.5672 37.0768 7.66153 37.2935 7.80131 37.4802C7.9411 37.6668 8.12248 37.8183 8.33106 37.9226C8.53963 38.027 8.76966 38.0812 9.00287 38.0811H15.0029C15.3124 38.0811 15.6143 37.9854 15.8673 37.8071C16.1203 37.6288 16.3119 37.3766 16.4159 37.0851L17.8619 33.0321C19.7669 33.5511 21.7919 33.8331 23.8949 33.8331C26.0159 33.8331 28.0589 33.5481 29.9789 33.0171L31.6079 37.1331C31.7185 37.4127 31.9107 37.6526 32.1595 37.8217C32.4083 37.9907 32.7021 38.0811 33.0029 38.0811H39.0029C39.2369 38.0808 39.4677 38.0258 39.6767 37.9204C39.8857 37.815 40.0671 37.6622 40.2065 37.4742C40.3458 37.2861 40.4392 37.0681 40.4793 36.8374C40.5193 36.6068 40.5047 36.3701 40.4369 36.1461L38.1539 28.6281C41.4299 25.6851 43.4999 21.6771 43.4999 17.2071C43.4999 16.7711 43.4799 16.3401 43.4399 15.9141C44.2229 15.5841 44.9639 15.1161 45.5549 14.5821C46.4999 15.5001 47.9999 15.5001 47.9999 13.3311C47.9999 14.0001 46.4999 14.0001 46.6169 13.2531C46.7411 13.0115 46.8319 12.7541 46.8869 12.4881C46.9574 12.1406 46.9388 11.7809 46.8329 11.4426C46.7269 11.1042 46.537 10.7982 46.2809 10.5531C46.0107 10.2746 45.6552 10.0944 45.2709 10.0412C44.8867 9.98789 44.4956 10.0646 44.1599 10.2591C43.852 10.4306 43.5894 10.673 43.3937 10.9662C43.1981 11.2594 43.0751 11.5949 43.0349 11.9451C42.9629 12.6741 43.2809 13.3851 43.9949 13.9071C43.7478 14.0793 43.488 14.2328 43.2179 14.3661C41.6159 6.37406 33.3659 0.581055 23.8919 0.581055ZM45.4109 12.2091C45.3547 12.4362 45.2549 12.6502 45.1169 12.8391L44.9849 12.7641C44.5469 12.4941 44.5139 12.2391 44.5289 12.0951C44.5445 11.9877 44.5842 11.8852 44.645 11.7954C44.7057 11.7055 44.786 11.6305 44.8799 11.5761C45.0269 11.4951 45.1199 11.5131 45.2189 11.6121C45.3028 11.6842 45.3652 11.7781 45.3991 11.8835C45.433 11.9888 45.437 12.1015 45.4109 12.2091ZM18.4139 10.2591C18.2217 10.3243 18.0183 10.3498 17.8159 10.3341C17.6136 10.3184 17.4166 10.2618 17.2367 10.1678C17.0569 10.0738 16.898 9.94419 16.7697 9.78696C16.6414 9.62973 16.5464 9.4481 16.4903 9.25306C16.4342 9.05802 16.4183 8.85363 16.4435 8.65227C16.4687 8.4509 16.5345 8.25674 16.6369 8.08155C16.7394 7.90635 16.8763 7.75376 17.0394 7.63301C17.2025 7.51226 17.3884 7.42587 17.5859 7.37906C19.6364 6.79256 21.7591 6.49667 23.8919 6.50005C26.1809 6.50005 28.3829 6.83006 30.4319 7.44506C30.6206 7.50159 30.7963 7.59474 30.949 7.71919C31.1017 7.84363 31.2284 7.99694 31.3219 8.17035C31.4153 8.34376 31.4737 8.53389 31.4937 8.72987C31.5137 8.92585 31.4949 9.12385 31.4384 9.31256C31.3818 9.50126 31.2887 9.67699 31.1642 9.8297C31.0398 9.98241 30.8865 10.1091 30.7131 10.2026C30.5397 10.296 30.3495 10.3544 30.1536 10.3744C29.9576 10.3944 29.7596 10.3756 29.5709 10.3191C27.7277 9.77177 25.8146 9.49587 23.8919 9.50006C21.9719 9.50005 20.1269 9.77006 18.4139 10.2621V10.2591ZM14.9999 14.7501C14.9999 15.3468 14.7628 15.9191 14.3409 16.341C13.9189 16.763 13.3466 17.0001 12.7499 17.0001C12.1531 17.0001 11.5808 16.763 11.1589 16.341C10.7369 15.9191 10.4999 15.3468 10.4999 14.7501C10.4999 14.1533 10.7369 13.581 11.1589 13.1591C11.5808 12.7371 12.1531 12.5001 12.7499 12.5001C13.3466 12.5001 13.9189 12.7371 14.3409 13.1591C14.7628 13.581 14.9999 14.1533 14.9999 14.7501Z" fill="#3E4C59"/>
</svg>
