<svg width="36" height="36" viewBox="0 0 36 36" fill="none" xmlns="http://www.w3.org/2000/svg">
<path fillRule="evenodd" clipRule="evenodd" d="M28 0C25.8783 0 23.8434 0.842854 22.3431 2.34315C20.8429 3.84344 20 5.87827 20 8C20 10.1217 20.8429 12.1566 22.3431 13.6569C23.8434 15.1571 25.8783 16 28 16C30.1217 16 32.1566 15.1571 33.6569 13.6569C35.1571 12.1566 36 10.1217 36 8C36 5.87827 35.1571 3.84344 33.6569 2.34315C32.1566 0.842854 30.1217 0 28 0ZM0 28C0 25.8783 0.842854 23.8434 2.34315 22.3431C3.84344 20.8429 5.87827 20 8 20C10.1217 20 12.1566 20.8429 13.6569 22.3431C15.1571 23.8434 16 25.8783 16 28C16 30.1217 15.1571 32.1566 13.6569 33.6569C12.1566 35.1571 10.1217 36 8 36C5.87827 36 3.84344 35.1571 2.34315 33.6569C0.842854 32.1566 0 30.1217 0 28ZM20 22C20 21.4696 20.2107 20.9609 20.5858 20.5858C20.9609 20.2107 21.4696 20 22 20H34C34.5304 20 35.0391 20.2107 35.4142 20.5858C35.7893 20.9609 36 21.4696 36 22V32C36 33.0609 35.5786 34.0783 34.8284 34.8284C34.0783 35.5786 33.0609 36 32 36H24C22.9391 36 21.9217 35.5786 21.1716 34.8284C20.4214 34.0783 20 33.0609 20 32V22ZM0 2C0 1.46957 0.210714 0.960859 0.585786 0.585786C0.960859 0.210714 1.46957 0 2 0H14C14.5304 0 15.0391 0.210714 15.4142 0.585786C15.7893 0.960859 16 1.46957 16 2V12C16 13.0609 15.5786 14.0783 14.8284 14.8284C14.0783 15.5786 13.0609 16 12 16H4C2.93913 16 1.92172 15.5786 1.17157 14.8284C0.421427 14.0783 0 13.0609 0 12V2Z" fill="#3E4C59"/>
</svg>
