<svg width="48" height="48" viewBox="0 0 48 48" fill="none" xmlns="http://www.w3.org/2000/svg">
<path d="M43.7435 1.81055H4.25979C2.90738 1.81055 1.81104 2.90689 1.81104 4.2593V43.743C1.81104 45.0955 2.90738 46.1918 4.25979 46.1918H43.7435C45.0959 46.1918 46.1923 45.0955 46.1923 43.743V4.2593C46.1923 2.90689 45.0959 1.81055 43.7435 1.81055Z" fill="#3D5A98"/>
<path d="M32.4299 46.1886V29.0023H38.1974L39.0599 22.3048H32.4299V18.0298C32.4299 16.0911 32.9699 14.7673 35.7487 14.7673H39.2962V8.76734C37.5783 8.58864 35.852 8.50351 34.1249 8.51234C29.0174 8.51234 25.4999 11.6248 25.4999 17.3661V22.3048H19.7324V29.0023H25.4999V46.1886H32.4299Z" fill="white"/>
</svg>
