<svg width="48" height="48" viewBox="0 0 48 48" fill="none" xmlns="http://www.w3.org/2000/svg">
<g clip-path="url(#clip0_269_4284)">
<path d="M16.7211 1.57887C11.9252 3.24262 7.78915 6.40049 4.92057 10.5886C2.052 14.7768 0.602075 19.7744 0.783766 24.8475C0.965457 29.9206 2.76919 34.8017 5.93002 38.7739C9.09085 42.7461 13.4422 45.6 18.3449 46.9164C22.3196 47.942 26.4839 47.987 30.4799 47.0476C34.0998 46.2345 37.4465 44.4952 40.1924 42.0001C43.0502 39.3239 45.1245 35.9194 46.1924 32.1526C47.3531 28.0564 47.5596 23.7486 46.7961 19.5601H24.4761V28.8189H37.4024C37.144 30.2956 36.5904 31.705 35.7747 32.9627C34.9589 34.2205 33.8978 35.3008 32.6549 36.1389C31.0764 37.183 29.2971 37.8855 27.4311 38.2014C25.5596 38.5494 23.6401 38.5494 21.7686 38.2014C19.8718 37.8092 18.0775 37.0263 16.4999 35.9026C13.9654 34.1086 12.0624 31.5598 11.0624 28.6201C10.0454 25.6253 10.0454 22.3786 11.0624 19.3839C11.7742 17.2847 12.951 15.3734 14.5049 13.7926C16.2831 11.9504 18.5344 10.6336 21.0117 9.98665C23.489 9.3397 26.0967 9.3876 28.5486 10.1251C30.464 10.7131 32.2155 11.7404 33.6636 13.1251C35.1211 11.6751 36.5761 10.2214 38.0286 8.76387C38.7786 7.98012 39.5961 7.23386 40.3349 6.43137C38.1245 4.3744 35.5299 2.77383 32.6999 1.72137C27.5462 -0.149923 21.9073 -0.200212 16.7211 1.57887Z" fill="white"/>
<path d="M16.7214 1.57873C21.9071 -0.201552 27.5461 -0.152587 32.7002 1.71748C35.5307 2.7771 38.1241 4.38538 40.3314 6.44998C39.5814 7.25248 38.7902 8.00248 38.0252 8.78248C36.5702 10.235 35.1164 11.6825 33.6639 13.125C32.2158 11.7402 30.4643 10.713 28.5489 10.125C26.0978 9.38489 23.4902 9.33421 21.0122 9.97852C18.5342 10.6228 16.2816 11.9372 14.5014 13.7775C12.9475 15.3582 11.7708 17.2695 11.0589 19.3687L3.28516 13.35C6.06769 7.83209 10.8855 3.61132 16.7214 1.57873Z" fill="#E33629"/>
<path d="M1.22231 19.3121C1.64014 17.2413 2.33383 15.236 3.28481 13.3496L11.0586 19.3834C10.0416 22.3781 10.0416 25.6248 11.0586 28.6196C8.46856 30.6196 5.87731 32.6296 3.28481 34.6496C0.904128 29.9108 0.178061 24.5115 1.22231 19.3121Z" fill="#F8BD00"/>
<path d="M24.4763 19.5566H46.7963C47.5598 23.7451 47.3532 28.0529 46.1925 32.1491C45.1247 35.9159 43.0503 39.3204 40.1925 41.9966C37.6838 40.0391 35.1638 38.0966 32.655 36.1391C33.8988 35.3002 34.9604 34.2187 35.7762 32.9596C36.592 31.7005 37.1451 30.2897 37.4025 28.8116H24.4763C24.4725 25.7291 24.4763 22.6429 24.4763 19.5566Z" fill="#5196FF"/>
<path d="M3.28125 34.6501C5.87375 32.6501 8.465 30.6401 11.055 28.6201C12.057 31.5609 13.9628 34.1097 16.5 35.9026C18.0825 37.0211 19.8807 37.7976 21.78 38.1826C23.6515 38.5306 25.571 38.5306 27.4425 38.1826C29.3085 37.8668 31.0878 37.1642 32.6663 36.1201C35.175 38.0776 37.695 40.0201 40.2038 41.9776C37.4583 44.4741 34.1116 46.2147 30.4912 47.0289C26.4953 47.9683 22.331 47.9232 18.3563 46.8976C15.2126 46.0583 12.2763 44.5786 9.73125 42.5514C7.03748 40.4127 4.83733 37.7175 3.28125 34.6501Z" fill="#319F43"/>
</g>
<defs>
<clipPath id="clip0_269_4284">
<rect width="48" height="48" fill="white"/>
</clipPath>
</defs>
</svg>
