<svg width="42" height="32" viewBox="0 0 42 32" fill="none" xmlns="http://www.w3.org/2000/svg">
<path fillRule="evenodd" clipRule="evenodd" d="M29.046 1.00561C32.706 0.75361 35.534 2.88961 37.416 5.35361C39.312 7.83961 40.618 11.0856 41.336 14.2776C42.05 17.4696 42.242 20.8996 41.648 23.8236C41.078 26.6316 39.556 29.8436 36.114 30.8736C32.874 31.8416 30.034 30.4336 28.01 28.7296C25.978 27.0196 24.258 24.6236 22.906 22.3776C22.2731 21.3225 21.6794 20.2445 21.126 19.1456C20.5733 20.2438 19.9802 21.3212 19.348 22.3756C17.996 24.6236 16.276 27.0196 14.244 28.7296C12.218 30.4336 9.38002 31.8416 6.14003 30.8736C2.69803 29.8436 1.17602 26.6336 0.606025 23.8236C0.0140248 20.8996 0.206025 17.4696 0.920025 14.2776C1.63602 11.0856 2.94202 7.83761 4.84002 5.35361C6.72003 2.88961 9.54803 0.75361 13.208 1.00561C16.64 1.24561 19.134 3.57161 20.688 5.54361L21.128 6.12161L21.566 5.54161C23.12 3.57161 25.614 1.24361 29.046 1.00561ZM12.792 6.99161C11.952 6.93361 10.852 7.36361 9.60802 8.99561C8.38002 10.6056 7.36002 12.9816 6.77402 15.5916C6.18802 18.2016 6.10402 20.7496 6.48602 22.6316C6.81602 24.2516 7.34602 24.8336 7.67002 25.0376L7.80602 25.1056L7.86002 25.1256C8.32402 25.2656 9.08803 25.2256 10.38 24.1376C11.67 23.0536 12.986 21.3116 14.208 19.2836C14.752 18.3776 15.258 17.4496 15.712 16.5576L16.232 15.5076L16.698 14.5136L17.11 13.5976L17.46 12.7836L17.746 12.0916C17.3586 11.3146 16.9154 10.5667 16.42 9.85361C15.132 8.02161 13.84 7.06561 12.792 6.99361V6.99161ZM29.462 6.99161C28.414 7.06561 27.122 8.02161 25.834 9.85361C25.3386 10.5667 24.8955 11.3146 24.508 12.0916L24.962 13.1776L25.342 14.0456L25.556 14.5136L26.024 15.5076L26.544 16.5576C26.998 17.4496 27.502 18.3776 28.046 19.2836C29.268 21.3116 30.586 23.0536 31.872 24.1376C33.074 25.1496 33.818 25.2536 34.292 25.1516L34.396 25.1256C34.656 25.0456 35.362 24.6276 35.768 22.6296C36.148 20.7496 36.066 18.2016 35.48 15.5896C34.896 12.9816 33.876 10.6056 32.646 8.99561C31.4 7.36361 30.302 6.93561 29.462 6.99161Z" fill="white"/>
</svg>
