<svg width="48" height="48" viewBox="0 0 48 48" fill="none" xmlns="http://www.w3.org/2000/svg">
<g clip-path="url(#clip0_269_2550)">
<path d="M35.5725 17.2833C39.0746 19.4921 43.365 20.7918 47.9986 20.7918V12.9247C47.1216 12.9251 46.247 12.8443 45.389 12.6838V18.8763C40.7557 18.8763 36.4659 17.5768 32.963 15.3681V31.4226C32.963 39.454 25.5838 45.9641 16.4818 45.9641C13.0856 45.9641 9.92883 45.0583 7.30664 43.5046C10.2995 46.2046 14.4733 47.8795 19.0906 47.8795C28.1934 47.8795 35.5728 41.3694 35.5728 33.3377V17.2833H35.5725ZM38.7918 9.34643C37.002 7.62125 35.8267 5.39173 35.5725 2.92685V1.91504H33.0995C33.722 5.04778 35.8455 7.7242 38.7918 9.34643ZM13.0636 37.3417C12.0636 36.185 11.523 34.7697 11.5256 33.3147C11.5256 29.6415 14.9008 26.6632 19.065 26.6632C19.8409 26.6628 20.6122 26.7679 21.3519 26.9748V18.9319C20.4875 18.8274 19.6153 18.7829 18.7434 18.7993V25.0595C18.0034 24.8525 17.2316 24.7474 16.4553 24.748C12.2913 24.748 8.91633 27.726 8.91633 31.3996C8.91633 33.9972 10.6033 36.2461 13.0636 37.3417Z" fill="#FF004F"/>
<path d="M32.963 15.3679C36.4661 17.5766 40.7555 18.8761 45.389 18.8761V12.6836C42.8026 12.1975 40.5131 11.0051 38.7916 9.34643C35.8451 7.72403 33.722 5.04762 33.0995 1.91504H26.6039V33.3373C26.5891 37.0006 23.2198 39.9666 19.0646 39.9666C16.6162 39.9666 14.4408 38.9369 13.0633 37.3415C10.6033 36.2461 8.91613 33.9971 8.91613 31.3998C8.91613 27.7265 12.2911 24.7481 16.4551 24.7481C17.2529 24.7481 18.0219 24.8577 18.7432 25.0596V18.7995C9.80094 18.9625 2.60938 25.4091 2.60938 33.3375C2.60938 37.2953 4.40019 40.8833 7.30681 43.5049C9.929 45.0583 13.0856 45.9645 16.4819 45.9645C25.5841 45.9645 32.9632 39.4538 32.9632 31.4226L32.963 15.3679Z" fill="#171C20"/>
<path d="M45.3891 12.6836V11.0095C43.0568 11.0125 40.7706 10.4363 38.7917 9.34659C40.5433 11.0385 42.8498 12.2053 45.3891 12.6839M33.0994 1.91503C33.0401 1.61571 32.9945 1.31439 32.9629 1.01181V0H23.994V31.4226C23.9797 35.0855 20.6104 38.0516 16.455 38.0516C15.277 38.0531 14.1151 37.8101 13.0631 37.342C14.4407 38.9371 16.6161 39.9666 19.0644 39.9666C23.2194 39.9666 26.5892 37.0009 26.6038 33.3377V1.9152L33.0994 1.91503ZM18.7436 18.7994V17.017C17.9942 16.9267 17.2386 16.8814 16.4822 16.8816C7.37906 16.8816 0 23.3921 0 31.4226C0 36.4575 2.90006 40.8947 7.30706 43.5047C4.40044 40.8833 2.60963 37.2952 2.60963 33.3375C2.60963 25.4092 9.801 18.9625 18.7436 18.7994Z" fill="#00F2EA"/>
</g>
<defs>
<clipPath id="clip0_269_2550">
<rect width="48" height="48" fill="white"/>
</clipPath>
</defs>
</svg>
