<svg width="20" height="20" viewBox="0 0 20 20" fill="none" xmlns="http://www.w3.org/2000/svg">
<path d="M8.33332 10.834C8.69119 11.3124 9.14778 11.7083 9.67211 11.9947C10.1964 12.2812 10.7762 12.4516 11.3722 12.4942C11.9681 12.5369 12.5663 12.4509 13.1261 12.2421C13.6859 12.0333 14.1942 11.7065 14.6166 11.284L17.1166 8.78396C17.8756 7.99811 18.2956 6.9456 18.2861 5.85312C18.2766 4.76063 17.8384 3.71558 17.0659 2.94304C16.2934 2.17051 15.2483 1.73231 14.1558 1.72281C13.0633 1.71332 12.0108 2.1333 11.225 2.89229L9.79165 4.31729M11.6666 9.16729C11.3088 8.68885 10.8522 8.29297 10.3279 8.00651C9.80353 7.72004 9.22373 7.54969 8.62777 7.50701C8.03182 7.46433 7.43366 7.55032 6.87386 7.75914C6.31406 7.96796 5.80572 8.29473 5.38332 8.71729L2.88332 11.2173C2.12432 12.0031 1.70435 13.0556 1.71384 14.1481C1.72334 15.2406 2.16154 16.2857 2.93407 17.0582C3.70661 17.8307 4.75166 18.2689 5.84415 18.2784C6.93663 18.2879 7.98914 17.8679 8.77498 17.109L10.2 15.684" stroke="#727F8F" stroke-width="1.5" stroke-linecap="round" stroke-linejoin="round"/>
</svg>
