<svg width="20" height="20" viewBox="0 0 20 20" fill="none" xmlns="http://www.w3.org/2000/svg">
<path d="M9.99996 8.33268C11.8409 8.33268 13.3333 6.8403 13.3333 4.99935C13.3333 3.1584 11.8409 1.66602 9.99996 1.66602C8.15901 1.66602 6.66663 3.1584 6.66663 4.99935C6.66663 6.8403 8.15901 8.33268 9.99996 8.33268Z" stroke="#727F8F" stroke-width="1.5"/>
<path d="M16.665 14.9987C16.6666 14.862 16.6666 14.7229 16.6666 14.582C16.6666 12.5112 13.6816 10.832 9.99998 10.832C6.31831 10.832 3.33331 12.5112 3.33331 14.582C3.33331 16.6529 3.33331 18.332 9.99998 18.332C11.8591 18.332 13.2 18.2012 14.1666 17.9679" stroke="#727F8F" stroke-width="1.5" stroke-linecap="round"/>
</svg>
