<svg width="32" height="26" viewBox="0 0 32 26" fill="none" xmlns="http://www.w3.org/2000/svg">
<path fill-rule="evenodd" clip-rule="evenodd" d="M30.7325 10.1629C29.8876 8.1506 28.7505 6.4176 27.3219 4.9628C25.8933 3.5082 24.1909 2.3507 22.2144 1.4902C20.238 0.629689 18.1668 0.199219 16 0.199219C13.8332 0.199219 11.7618 0.629689 9.7856 1.4902C7.8095 2.35093 6.1072 3.5082 4.67858 4.9628C3.24975 6.4176 2.1131 8.1506 1.26773 10.1629C0.42258 12.1751 0 14.2842 0 16.4901C0 19.6657 0.83923 22.5931 2.51792 25.2721C2.74389 25.6236 3.06542 25.7992 3.48208 25.7992H28.5179C28.9344 25.7992 29.2559 25.6236 29.4819 25.2721C31.1608 22.5813 32 19.6538 32 16.4901C32 14.2842 31.5774 12.1751 30.7325 10.1629ZM14.3838 3.2085C14.8305 2.75395 15.369 2.52655 16 2.52655C16.631 2.52655 17.1695 2.75395 17.616 3.2085C18.0625 3.6629 18.286 4.2114 18.286 4.8539C18.286 5.4964 18.0625 6.0447 17.616 6.4992C17.1695 6.9538 16.631 7.1812 16 7.1812C15.369 7.1812 14.8302 6.9538 14.3838 6.4992C13.9375 6.0447 13.7142 5.4964 13.7142 4.8539C13.7142 4.2114 13.9373 3.6629 14.3838 3.2085ZM6.1876 18.1355C5.7412 18.59 5.20241 18.8177 4.5714 18.8177C3.9406 18.8177 3.40186 18.59 2.9554 18.1355C2.50893 17.6813 2.28581 17.1326 2.28581 16.4901C2.28581 15.8476 2.50893 15.2993 2.9554 14.8448C3.40186 14.3902 3.9406 14.1628 4.5714 14.1628C5.20241 14.1628 5.7414 14.3902 6.1876 14.8448C6.6339 15.2993 6.8572 15.8476 6.8572 16.4901C6.8572 17.1326 6.6339 17.6809 6.1876 18.1355ZM9.6162 9.9901C9.1695 10.4447 8.631 10.6721 8 10.6721C7.369 10.6721 6.8302 10.4445 6.3838 9.9901C5.9375 9.5358 5.7142 8.9873 5.7142 8.3448C5.7142 7.7023 5.9373 7.154 6.3838 6.6994C6.8305 6.2448 7.369 6.0174 8 6.0174C8.631 6.0174 9.1698 6.2448 9.6162 6.6994C10.0625 7.154 10.2858 7.7023 10.2858 8.3448C10.2858 8.987 10.0625 9.5356 9.6162 9.9901ZM19.7319 10.1448L17.9283 17.09C18.5238 17.5021 18.9523 18.0533 19.2145 18.7447C19.4762 19.4356 19.5121 20.1446 19.3216 20.8718C19.0836 21.8051 18.5536 22.5143 17.7322 22.999C16.9107 23.4839 16.0416 23.6053 15.1248 23.3628C14.2082 23.1204 13.5117 22.581 13.0356 21.7446C12.5596 20.908 12.4405 20.0234 12.6786 19.0899C12.869 18.3629 13.2441 17.7659 13.8036 17.2995C14.363 16.8327 14.9999 16.5691 15.7142 16.5084L17.5178 9.563C17.6011 9.2479 17.7795 9.0082 18.0533 8.8447C18.3272 8.6813 18.6128 8.6418 18.9105 8.7266C19.2083 8.8116 19.4374 8.9902 19.598 9.2629C19.7589 9.5358 19.8036 9.8297 19.7319 10.1448ZM22.384 9.9901C21.9375 9.5358 21.714 8.9873 21.714 8.3448C21.714 7.7023 21.9375 7.154 22.384 6.6994C22.8305 6.2448 23.369 6.0174 24 6.0174C24.631 6.0174 25.1695 6.2448 25.616 6.6994C26.0625 7.154 26.286 7.7023 26.286 8.3448C26.286 8.987 26.0625 9.5356 25.616 9.9901C25.1695 10.4447 24.631 10.6721 24 10.6721C23.369 10.6721 22.8305 10.4447 22.384 9.9901ZM29.0446 18.1355C28.5981 18.59 28.0596 18.8177 27.4286 18.8177C26.7976 18.8177 26.2591 18.59 25.8126 18.1355C25.3661 17.6813 25.1428 17.1326 25.1428 16.4901C25.1428 15.8476 25.3661 15.2993 25.8126 14.8448C26.2591 14.3902 26.7976 14.1628 27.4286 14.1628C28.0596 14.1628 28.5981 14.3902 29.0446 14.8448C29.4908 15.2993 29.7142 15.8476 29.7142 16.4901C29.7142 17.1326 29.4911 17.6809 29.0446 18.1355Z" fill="#071449"/>
</svg>
