<svg width="34" height="30" viewBox="0 0 34 30" fill="none" xmlns="http://www.w3.org/2000/svg">
<path d="M31.533 10.5173C30.3663 10.884 29.083 10.9507 27.7497 10.6173C25.5163 10.034 23.6997 8.25068 23.083 6.01728C22.783 4.93398 22.7663 3.86731 22.9497 2.90064C23.1663 1.83398 22.4163 0.833984 21.3497 0.833984H8.6663C3.66634 0.833984 0.333008 3.33398 0.333008 9.16728V20.834C0.333008 26.6673 3.66634 29.1673 8.6663 29.1673H25.333C30.333 29.1673 33.6663 26.6673 33.6663 20.834V12.1007C33.6663 11.0007 32.5997 10.1673 31.533 10.5173ZM22.8663 13.584L20.8997 15.1507C19.7997 16.034 18.3997 16.4673 16.9997 16.4673C15.5997 16.4673 14.183 16.034 13.0997 15.1507L7.883 10.984C7.3497 10.5507 7.2663 9.75068 7.683 9.21728C8.1163 8.68398 8.8997 8.58398 9.433 9.01728L14.6497 13.184C15.9163 14.2007 18.0663 14.2007 19.333 13.184L21.2997 11.6173C21.833 11.184 22.633 11.2673 23.0497 11.8173C23.483 12.3507 23.3997 13.1507 22.8663 13.584Z" fill="#071449"/>
</svg>
