<svg width="82" height="82" viewBox="0 0 82 82" fill="none" xmlns="http://www.w3.org/2000/svg">
<g filter="url(#filter0_d_269_3290)">
<rect x="9" y="9" width="56" height="56" rx="28" fill="#4779E8"/>
<rect x="8.5" y="8.5" width="57" height="57" rx="28.5" stroke="#E4E7EC"/>
<path d="M46 26H28C26.9391 26 25.9217 26.4214 25.1716 27.1716C24.4214 27.9217 24 28.9391 24 30V40C24 41.0609 24.4214 42.0783 25.1716 42.8284C25.9217 43.5786 26.9391 44 28 44H39L45 48V44H46C47.0609 44 48.0783 43.5786 48.8284 42.8284C49.5786 42.0783 50 41.0609 50 40V30C50 28.9391 49.5786 27.9217 48.8284 27.1716C48.0783 26.4214 47.0609 26 46 26Z" stroke="white" stroke-width="2" stroke-linecap="round" stroke-linejoin="round"/>
<path d="M31 36C31 36.2652 30.8946 36.5196 30.7071 36.7071C30.5196 36.8946 30.2652 37 30 37C29.7348 37 29.4804 36.8946 29.2929 36.7071C29.1054 36.5196 29 36.2652 29 36C29 35.7348 29.1054 35.4804 29.2929 35.2929C29.4804 35.1054 29.7348 35 30 35C30.2652 35 30.5196 35.1054 30.7071 35.2929C30.8946 35.4804 31 35.7348 31 36ZM37 36C37 36.2652 36.8946 36.5196 36.7071 36.7071C36.5196 36.8946 36.2652 37 36 37C35.7348 37 35.4804 36.8946 35.2929 36.7071C35.1054 36.5196 35 36.2652 35 36C35 35.7348 35.1054 35.4804 35.2929 35.2929C35.4804 35.1054 35.7348 35 36 35C36.2652 35 36.5196 35.1054 36.7071 35.2929C36.8946 35.4804 37 35.7348 37 36ZM43 36C43 36.2652 42.8946 36.5196 42.7071 36.7071C42.5196 36.8946 42.2652 37 42 37C41.7348 37 41.4804 36.8946 41.2929 36.7071C41.1054 36.5196 41 36.2652 41 36C41 35.7348 41.1054 35.4804 41.2929 35.2929C41.4804 35.1054 41.7348 35 42 35C42.2652 35 42.5196 35.1054 42.7071 35.2929C42.8946 35.4804 43 35.7348 43 36Z" stroke="white" stroke-width="2" stroke-linecap="round" stroke-linejoin="round"/>
</g>
<defs>
<filter id="filter0_d_269_3290" x="0" y="0" width="82" height="82" filterUnits="userSpaceOnUse" color-interpolation-filters="sRGB">
<feFlood flood-opacity="0" result="BackgroundImageFix"/>
<feColorMatrix in="SourceAlpha" type="matrix" values="0 0 0 0 0 0 0 0 0 0 0 0 0 0 0 0 0 0 127 0" result="hardAlpha"/>
<feMorphology radius="4" operator="dilate" in="SourceAlpha" result="effect1_dropShadow_269_3290"/>
<feOffset dx="4" dy="4"/>
<feGaussianBlur stdDeviation="4"/>
<feComposite in2="hardAlpha" operator="out"/>
<feColorMatrix type="matrix" values="0 0 0 0 0 0 0 0 0 0 0 0 0 0 0 0 0 0 0.08 0"/>
<feBlend mode="normal" in2="BackgroundImageFix" result="effect1_dropShadow_269_3290"/>
<feBlend mode="normal" in="SourceGraphic" in2="effect1_dropShadow_269_3290" result="shape"/>
</filter>
</defs>
</svg>
