<svg width="241" height="32" viewBox="0 0 241 32" fill="none" xmlns="http://www.w3.org/2000/svg">
<mask id="mask0_269_2916" style="mask-type:luminance" maskUnits="userSpaceOnUse" x="0" y="0" width="52" height="32">
<path d="M51.5 0H0.5V32H51.5V0Z" fill="white"/>
</mask>
<g mask="url(#mask0_269_2916)">
<path d="M3.77049 14.0057C3.77049 13.561 4.21996 13.3899 4.96453 13.3899C6.03196 13.3899 7.38038 13.6523 8.4479 14.1198V11.4398C7.28211 11.0635 6.13033 10.9152 4.96453 10.9152C2.11305 10.9152 0.216797 12.1241 0.216797 14.1427C0.216797 17.2901 5.55435 16.7884 5.55435 18.1455C5.55435 18.67 4.99258 18.8411 4.20593 18.8411C3.04014 18.8411 1.55118 18.4534 0.371262 17.9288V20.643C1.6776 21.0992 2.99796 21.293 4.20593 21.293C7.12754 21.293 9.13618 20.1184 9.13618 18.0771C9.12216 14.6786 3.77049 15.283 3.77049 14.0057ZM13.2658 8.63442L9.83849 9.22739L9.82446 18.3621C9.82446 20.05 11.3836 21.293 13.4625 21.293C14.6143 21.293 15.457 21.1219 15.9205 20.9167V18.6016C15.4711 18.7499 13.2517 19.2745 13.2517 17.5866V13.5382H15.9205V11.1091H13.2517L13.2658 8.63442ZM20.289 11.953L20.0642 11.1091H17.0302V21.0877H20.5418V14.3251C21.3705 13.447 22.7752 13.6066 23.2106 13.732V11.1091C22.7611 10.9722 21.1177 10.7213 20.289 11.953ZM24.0674 11.1091H27.593V21.0877H24.0674V11.1091ZM24.0674 10.2424L27.593 9.62656V7.31152L24.0674 7.91596V10.2424ZM34.9252 10.9152C33.5486 10.9152 32.6637 11.4398 32.1722 11.8048L31.9895 11.0977H28.8994V24.3949L32.4109 23.7905L32.425 20.5631C32.9307 20.8596 33.675 21.2816 34.9112 21.2816C37.4255 21.2816 39.715 19.6394 39.715 16.0243C39.701 12.7171 37.3833 10.9152 34.9252 10.9152ZM34.0824 18.7727C33.2537 18.7727 32.762 18.5332 32.425 18.2367L32.4109 14.0057C32.7761 13.675 33.2818 13.447 34.0824 13.447C35.3606 13.447 36.2455 14.6102 36.2455 16.1041C36.2455 17.6323 35.3747 18.7727 34.0824 18.7727ZM50.7835 16.1383C50.7835 13.2189 49.0417 10.9152 45.7128 10.9152C42.3696 10.9152 40.347 13.2189 40.347 16.1156C40.347 19.5481 42.735 21.2816 46.1621 21.2816C47.8337 21.2816 49.0979 20.9737 50.053 20.5403V18.2595C49.098 18.6473 48.0023 18.8868 46.6117 18.8868C45.2492 18.8868 44.0412 18.499 43.8867 17.1533H50.7554C50.7554 17.005 50.7835 16.412 50.7835 16.1383ZM43.8446 15.0549C43.8446 13.7663 44.8138 13.2302 45.6987 13.2302C46.5555 13.2302 47.4686 13.7663 47.4686 15.0549H43.8446Z" fill="#A4B0CE"/>
</g>
<mask id="mask1_269_2916" style="mask-type:luminance" maskUnits="userSpaceOnUse" x="76" y="0" width="60" height="32">
<path d="M135.5 0H76.5V32H135.5V0Z" fill="white"/>
</mask>
<g mask="url(#mask1_269_2916)">
<mask id="mask2_269_2916" style="mask-type:luminance" maskUnits="userSpaceOnUse" x="75" y="9" width="61" height="14">
<path d="M135.5 9.44434H75.5V22.7776H135.5V9.44434Z" fill="white"/>
</mask>
<g mask="url(#mask2_269_2916)">
<path d="M134.616 15.2649C134.616 11.9148 132.259 9.55859 128.955 9.55859C124.749 9.55859 121.93 12.5848 121.93 16.9065C121.93 20.2789 124.31 22.6128 127.67 22.6128C130.726 22.6128 133.004 21.1499 133.939 18.816H130.545C130.094 19.5419 129.136 19.9997 127.963 19.9997C126.159 19.9997 125.031 18.816 124.93 17.141H134.424C134.548 16.5044 134.616 15.9573 134.616 15.2649ZM125.189 14.8741C125.493 13.333 127.004 12.1047 128.831 12.1047C130.41 12.1047 131.605 13.2437 131.605 14.8741H125.189ZM112.808 22.3113L113.417 19.0952C115.277 19.4637 115.559 18.4252 116.044 15.9238L116.281 14.6842C116.957 11.189 118.322 9.44692 122.223 9.91593L121.614 13.132C119.754 12.7635 119.427 14.1594 119.01 16.3258L118.773 17.5653C118.096 21.1052 116.687 22.7803 112.808 22.3113ZM108.252 22.3224L110.552 9.86009H113.586L111.297 22.3224H108.252ZM90.875 9.86009H93.8181L94.7766 18.8718L98.6332 9.86009H101.554L102.58 18.9612L106.301 9.86009H109.233L103.899 22.3224H100.561L99.4789 13.7462L95.7915 22.3224H92.5665L90.875 9.86009Z" fill="#A4B0CE"/>
<path d="M79.8804 13.1648L76.3848 16.4702H82.3274L82.9476 15.0297H79.9368L81.82 13.1648L80.7262 11.2999H85.8344L81.1208 22.3217H82.8912L88.225 9.85938H77.9183L79.8804 13.1648Z" fill="#A4B0CE"/>
</g>
</g>
<mask id="mask3_269_2916" style="mask-type:luminance" maskUnits="userSpaceOnUse" x="163" y="8" width="75" height="16">
<path d="M237.801 8.66309H163.832V23.0142H237.801V8.66309Z" fill="white"/>
</mask>
<g mask="url(#mask3_269_2916)">
<path d="M182.567 20.6553V17.5663H183.897C186.37 17.5663 187.857 16.1851 187.857 14.1208C187.857 12.1757 186.35 11.0469 184.183 11.0469H180.966V20.6553H182.567ZM184.111 12.4758C185.383 12.4758 186.246 13.0622 186.246 14.3066C186.246 15.4505 185.288 16.1374 184.03 16.1374H182.567V12.4758H184.111ZM210.076 17.2951C210.076 15.3074 208.576 13.8056 206.588 13.8056C204.672 13.8031 203.116 15.3538 203.113 17.27V17.324C203.113 19.3255 204.557 20.7834 206.588 20.7834C208.486 20.811 210.049 19.2954 210.076 17.3968V17.393V17.2938V17.2951ZM204.629 17.2951C204.629 16.1512 205.473 15.2308 206.588 15.2647C207.82 15.3011 208.587 16.1587 208.561 17.2951C208.534 18.4315 207.703 19.3255 206.588 19.3255C205.473 19.3255 204.628 18.439 204.628 17.2951H204.629ZM225.147 17.7007C225.182 17.4684 225.197 17.2348 225.189 17C225.189 15.1266 223.761 13.8106 221.945 13.8106C220.056 13.788 218.508 15.2986 218.484 17.1871V17.2712C218.484 19.3155 219.843 20.7871 221.901 20.7871C223.288 20.7871 224.446 20.1292 224.932 19.215L223.745 18.5571C223.432 19.0719 222.76 19.436 222.001 19.436C220.943 19.436 220.199 18.7919 220.042 17.7057L225.147 17.7007ZM220.124 16.5417C220.325 15.6552 220.983 15.1127 221.897 15.1127C222.811 15.1127 223.529 15.6991 223.614 16.5417H220.124ZM201.441 13.9337L199.581 18.7241L197.923 13.9337H196.193L198.681 20.654L197.651 23.0134H199.296L203.085 13.9337H201.441ZM237.801 13.9625C237.588 13.9023 237.366 13.8734 237.144 13.8759C236.486 13.8759 235.742 14.2526 235.428 14.8917V13.9337H233.913V20.654H235.428V17.0728C235.428 15.8285 236.257 15.3149 237.115 15.3149C237.341 15.3099 237.567 15.335 237.786 15.3865L237.801 13.9713V13.9625ZM232.796 17.7007C232.832 17.4684 232.847 17.2348 232.839 17C232.839 15.1266 231.41 13.8106 229.594 13.8106C227.706 13.788 226.158 15.2986 226.134 17.1871V17.2712C226.134 19.3155 227.492 20.7871 229.55 20.7871C230.932 20.7871 232.096 20.1292 232.583 19.215L231.395 18.5571C231.081 19.0719 230.409 19.436 229.651 19.436C228.594 19.436 227.849 18.7919 227.692 17.7057L232.796 17.7007ZM227.774 16.5417C227.975 15.6552 228.633 15.1127 229.547 15.1127C230.461 15.1127 231.179 15.6991 231.263 16.5417H227.774ZM193.791 17.28C193.82 18.4302 192.911 19.3858 191.761 19.4147H191.757H191.66C190.488 19.4147 189.702 18.4993 189.702 17.28C189.712 16.121 190.645 15.1818 191.804 15.1642C192.99 15.1642 193.791 16.0796 193.791 17.28ZM217.455 16.8217C217.455 14.9482 216.539 13.8081 214.824 13.8081C213.922 13.8081 213.094 14.1948 212.636 14.8126V13.9337H211.106V20.654H212.636V17.0126C212.636 15.8825 213.451 15.168 214.423 15.168C215.395 15.168 215.91 15.826 215.91 16.941V20.6591H217.455V16.8217ZM193.791 13.9337V14.8126C193.348 14.2262 192.632 13.8081 191.56 13.8081C189.702 13.8081 188.157 15.453 188.157 17.383C188.157 19.313 189.487 20.7859 191.274 20.7859C192.433 20.7859 193.304 20.3715 193.785 19.6859V20.6578H195.286V13.9337H193.791Z" fill="#A4B0CE"/>
<path d="M170.787 22.7235H170.704C170.682 22.7197 170.659 22.7134 170.636 22.7134C170.247 22.7021 169.862 22.6582 169.48 22.5791C168.881 22.4548 168.306 22.2601 167.757 21.9851C166.921 21.5645 166.195 21.0057 165.579 20.3C165.176 19.8379 164.837 19.3319 164.574 18.7794C164.052 17.6782 163.804 16.5179 163.882 15.2949C163.91 14.8604 163.97 14.431 164.077 14.0091C164.25 13.3222 164.521 12.6768 164.888 12.0703C165.213 11.5316 165.609 11.0482 166.061 10.6125C166.507 10.1818 167.01 9.8277 167.555 9.53513C168.493 9.03161 169.494 8.75536 170.555 8.70513C171.131 8.67751 171.703 8.72271 172.269 8.83949C173.06 9.00398 173.799 9.2953 174.494 9.70842C175.218 10.1404 175.845 10.6853 176.369 11.3471C177.103 12.2763 177.567 13.3273 177.777 14.4938C177.901 15.1718 177.917 15.8524 177.839 16.533C177.772 17.1194 177.626 17.6882 177.413 18.242C177.206 18.7807 176.935 19.2829 176.605 19.7525C176.277 20.2171 175.898 20.6403 175.463 21.012C174.597 21.7528 173.612 22.2639 172.502 22.5263C171.97 22.6532 171.431 22.7235 170.884 22.7147C170.851 22.7147 170.82 22.7122 170.788 22.7247L170.787 22.7235ZM170.883 10.3174C167.869 10.3136 165.506 12.7584 165.491 15.6616C165.474 18.7154 167.89 21.0622 170.787 21.1011C173.887 21.1426 176.229 18.7028 176.268 15.8135C176.312 12.5563 173.709 10.3149 170.883 10.3187V10.3174Z" fill="#A4B0CE"/>
</g>
</svg>
