<svg width="383" height="402" viewBox="0 0 383 402" fill="none" xmlns="http://www.w3.org/2000/svg">
<rect x="0.5" y="0.5" width="382" height="401" rx="8.5" fill="#F0F4FF"/>
<rect x="0.5" y="0.5" width="382" height="401" rx="8.5" stroke="#F5F6FA"/>
<rect x="1" y="1" width="381" height="400" rx="8" fill="white"/>
<line x1="358" y1="89.5" x2="25" y2="89.5" stroke="#E4E7EC" stroke-dasharray="4 4"/>
<line x1="358" y1="113.5" x2="25" y2="113.5" stroke="#E4E7EC" stroke-dasharray="4 4"/>
<line x1="358" y1="137.5" x2="25" y2="137.5" stroke="#E4E7EC" stroke-dasharray="4 4"/>
<line x1="358" y1="161.5" x2="25" y2="161.5" stroke="#E4E7EC" stroke-dasharray="4 4"/>
<line x1="358" y1="185.5" x2="25" y2="185.5" stroke="#E4E7EC" stroke-dasharray="4 4"/>
<line x1="358" y1="209.5" x2="25" y2="209.5" stroke="#E4E7EC" stroke-dasharray="4 4"/>
<line x1="358" y1="233.5" x2="25" y2="233.5" stroke="#E4E7EC" stroke-dasharray="4 4"/>
<line x1="358" y1="257.5" x2="25" y2="257.5" stroke="#E4E7EC" stroke-dasharray="4 4"/>
<line x1="358" y1="281.5" x2="25" y2="281.5" stroke="#E4E7EC" stroke-dasharray="4 4"/>
<line x1="358" y1="305.5" x2="25" y2="305.5" stroke="#E4E7EC" stroke-dasharray="4 4"/>
<line x1="358" y1="329.5" x2="25" y2="329.5" stroke="#E4E7EC" stroke-dasharray="4 4"/>
<line x1="358" y1="353.5" x2="25" y2="353.5" stroke="#E4E7EC" stroke-dasharray="4 4"/>
<line x1="358" y1="377.5" x2="25" y2="377.5" stroke="#E4E7EC" stroke-dasharray="4 4"/>
<path d="M27.3125 357.16L25 361H358V253.841L355.688 254.467C353.375 255.093 348.75 256.344 344.125 258.68C339.5 261.015 334.875 264.435 330.25 252.123C325.625 239.811 321 211.768 316.375 210.617C311.75 209.465 307.125 235.207 302.5 242.271C297.875 249.336 293.25 237.725 288.625 241.361C284 244.997 279.375 263.881 274.75 269.32C270.125 274.76 265.5 266.755 260.875 262.689C256.25 258.622 251.625 258.494 247 258.919C242.375 259.343 237.75 260.321 233.125 258.244C228.5 256.168 223.875 251.038 219.25 248.341C214.625 245.644 210 245.379 205.375 245.414C200.75 245.449 196.125 245.783 191.5 256.531C186.875 267.278 182.25 288.438 177.625 299.508C173.01 310.554 168.395 311.553 163.78 312.551L163.75 312.558L163.725 312.563C159.108 313.562 154.492 314.561 149.875 303.736C145.25 292.891 140.625 270.179 136 269.031C131.375 267.884 126.75 288.301 122.125 303.607C117.5 318.913 112.875 329.107 108.25 321.089C103.625 313.071 99 286.841 94.375 284.094C89.75 281.347 85.125 302.082 80.5 303.438C75.875 304.793 71.25 286.769 66.625 285.251C62 283.733 57.375 298.722 52.75 310.258C48.125 321.794 43.5 329.878 38.875 337.76C34.25 345.641 29.625 353.321 27.3125 357.16Z" fill="url(#paint0_linear_269_2748)"/>
<path d="M24.9995 359.421L27.312 355.581C29.6245 351.742 34.2495 344.062 38.8745 336.181C43.4995 328.299 48.1245 320.215 52.7495 308.679C57.3745 297.143 61.9995 282.154 66.6245 283.672C71.2495 285.19 75.8745 303.214 80.4995 301.858C85.1245 300.503 89.7495 279.767 94.3745 282.515C98.9995 285.262 103.625 311.492 108.25 319.51C112.875 327.528 117.5 317.334 122.125 302.028C126.75 286.722 131.375 266.305 136 267.452C140.625 268.6 145.25 291.312 149.875 302.157C154.5 313.002 159.125 311.979 163.75 310.979C168.375 309.978 173 308.999 177.625 297.929C182.25 286.859 186.875 265.699 191.5 254.951C196.125 244.204 200.75 243.87 205.375 243.835C210 243.8 214.624 244.065 219.249 246.762C223.874 249.459 228.5 254.589 233.125 256.665C237.75 258.741 242.374 257.764 246.999 257.34C251.624 256.915 256.249 257.043 260.874 261.109C265.499 265.176 270.125 273.181 274.75 267.741C279.375 262.302 283.999 243.418 288.624 239.782C293.249 236.146 297.874 247.757 302.499 240.692C307.124 233.627 311.75 207.886 316.375 209.037C321 210.189 325.624 238.232 330.249 250.544C334.874 262.856 339.499 259.436 344.124 257.101C348.749 254.765 353.375 253.514 355.687 252.888L358 252.262" stroke="#4779E8" stroke-width="4.14116"/>
<path d="M306.672 182.493C306.619 182.022 306.4 181.658 306.016 181.399C305.631 181.137 305.147 181.006 304.564 181.006C304.146 181.006 303.785 181.073 303.48 181.205C303.175 181.335 302.938 181.513 302.769 181.742C302.603 181.968 302.521 182.224 302.521 182.513C302.521 182.755 302.577 182.964 302.69 183.139C302.806 183.315 302.956 183.462 303.142 183.582C303.331 183.698 303.533 183.795 303.749 183.875C303.964 183.951 304.171 184.014 304.37 184.064L305.364 184.322C305.689 184.402 306.022 184.51 306.364 184.646C306.705 184.781 307.022 184.96 307.313 185.183C307.605 185.405 307.84 185.68 308.019 186.008C308.201 186.336 308.293 186.729 308.293 187.186C308.293 187.763 308.143 188.275 307.845 188.722C307.55 189.17 307.121 189.523 306.558 189.781C305.997 190.04 305.32 190.169 304.524 190.169C303.762 190.169 303.102 190.048 302.545 189.806C301.989 189.564 301.553 189.221 301.238 188.777C300.923 188.33 300.749 187.799 300.716 187.186H302.257C302.287 187.554 302.406 187.861 302.615 188.106C302.827 188.348 303.097 188.528 303.425 188.648C303.757 188.764 304.12 188.822 304.514 188.822C304.948 188.822 305.335 188.754 305.673 188.618C306.014 188.479 306.282 188.286 306.478 188.041C306.674 187.793 306.771 187.503 306.771 187.171C306.771 186.87 306.685 186.623 306.513 186.43C306.344 186.238 306.113 186.079 305.822 185.953C305.533 185.827 305.207 185.716 304.842 185.62L303.639 185.292C302.824 185.07 302.178 184.743 301.7 184.312C301.226 183.882 300.989 183.312 300.989 182.602C300.989 182.016 301.148 181.504 301.467 181.066C301.785 180.629 302.216 180.289 302.759 180.047C303.303 179.802 303.916 179.679 304.599 179.679C305.288 179.679 305.896 179.8 306.423 180.042C306.954 180.284 307.371 180.617 307.676 181.041C307.981 181.462 308.14 181.946 308.153 182.493H306.672ZM312.231 190.169C311.747 190.169 311.31 190.08 310.919 189.901C310.528 189.718 310.218 189.455 309.989 189.11C309.764 188.765 309.651 188.343 309.651 187.842C309.651 187.411 309.734 187.057 309.9 186.778C310.065 186.5 310.289 186.28 310.571 186.117C310.853 185.955 311.167 185.832 311.515 185.749C311.863 185.666 312.218 185.603 312.579 185.56C313.037 185.507 313.408 185.464 313.693 185.431C313.978 185.395 314.185 185.337 314.314 185.257C314.444 185.178 314.508 185.048 314.508 184.869V184.835C314.508 184.4 314.386 184.064 314.14 183.825C313.898 183.587 313.537 183.467 313.057 183.467C312.556 183.467 312.162 183.578 311.873 183.8C311.588 184.019 311.391 184.263 311.282 184.531L309.885 184.213C310.05 183.749 310.292 183.375 310.611 183.089C310.932 182.801 311.302 182.592 311.719 182.463C312.137 182.33 312.576 182.264 313.037 182.264C313.342 182.264 313.665 182.301 314.006 182.374C314.351 182.443 314.672 182.572 314.971 182.761C315.272 182.95 315.519 183.22 315.711 183.572C315.904 183.92 316 184.372 316 184.929V190H314.548V188.956H314.488C314.392 189.148 314.248 189.337 314.056 189.523C313.864 189.708 313.617 189.862 313.315 189.985C313.014 190.108 312.652 190.169 312.231 190.169ZM312.555 188.976C312.965 188.976 313.317 188.895 313.608 188.732C313.903 188.57 314.127 188.358 314.28 188.096C314.435 187.831 314.513 187.547 314.513 187.246V186.261C314.46 186.314 314.358 186.364 314.205 186.411C314.056 186.454 313.885 186.492 313.693 186.525C313.501 186.555 313.314 186.583 313.131 186.609C312.949 186.633 312.796 186.652 312.674 186.669C312.385 186.705 312.122 186.767 311.883 186.853C311.648 186.939 311.459 187.063 311.317 187.226C311.177 187.385 311.108 187.597 311.108 187.862C311.108 188.23 311.244 188.509 311.515 188.697C311.787 188.883 312.134 188.976 312.555 188.976ZM319.466 179.818V190H317.98V179.818H319.466ZM324.757 190.154C324.005 190.154 323.357 189.993 322.813 189.672C322.273 189.347 321.856 188.891 321.561 188.305C321.269 187.715 321.123 187.024 321.123 186.232C321.123 185.449 321.269 184.76 321.561 184.163C321.856 183.567 322.267 183.101 322.794 182.766C323.324 182.432 323.944 182.264 324.653 182.264C325.084 182.264 325.501 182.335 325.906 182.478C326.31 182.621 326.673 182.844 326.994 183.149C327.316 183.454 327.57 183.85 327.755 184.337C327.941 184.821 328.034 185.41 328.034 186.102V186.629H321.963V185.516H326.577C326.577 185.125 326.497 184.778 326.338 184.477C326.179 184.172 325.955 183.931 325.667 183.756C325.382 183.58 325.047 183.492 324.663 183.492C324.245 183.492 323.881 183.595 323.569 183.8C323.261 184.003 323.022 184.268 322.853 184.596C322.687 184.921 322.605 185.274 322.605 185.655V186.525C322.605 187.035 322.694 187.469 322.873 187.827C323.055 188.185 323.309 188.459 323.634 188.648C323.959 188.833 324.338 188.926 324.772 188.926C325.054 188.926 325.311 188.886 325.543 188.807C325.775 188.724 325.975 188.601 326.144 188.439C326.313 188.277 326.443 188.076 326.532 187.837L327.939 188.091C327.826 188.505 327.624 188.868 327.333 189.18C327.044 189.488 326.681 189.728 326.244 189.901C325.81 190.07 325.314 190.154 324.757 190.154ZM335.405 184.228L334.058 184.467C334.002 184.294 333.912 184.13 333.789 183.974C333.67 183.819 333.508 183.691 333.302 183.592C333.097 183.492 332.84 183.442 332.532 183.442C332.111 183.442 331.759 183.537 331.478 183.726C331.196 183.911 331.055 184.152 331.055 184.447C331.055 184.702 331.15 184.907 331.338 185.063C331.527 185.219 331.832 185.347 332.253 185.446L333.466 185.724C334.169 185.887 334.693 186.137 335.037 186.475C335.382 186.813 335.554 187.252 335.554 187.793C335.554 188.25 335.422 188.658 335.157 189.016C334.895 189.37 334.529 189.649 334.058 189.851C333.591 190.053 333.049 190.154 332.432 190.154C331.577 190.154 330.879 189.972 330.339 189.607C329.799 189.239 329.467 188.717 329.345 188.041L330.782 187.822C330.871 188.197 331.055 188.48 331.333 188.673C331.612 188.862 331.975 188.956 332.422 188.956C332.909 188.956 333.299 188.855 333.591 188.653C333.882 188.447 334.028 188.197 334.028 187.902C334.028 187.663 333.939 187.463 333.76 187.3C333.584 187.138 333.314 187.015 332.949 186.933L331.657 186.649C330.944 186.487 330.417 186.228 330.076 185.874C329.738 185.519 329.569 185.07 329.569 184.526C329.569 184.076 329.694 183.681 329.946 183.343C330.198 183.005 330.546 182.741 330.99 182.553C331.435 182.36 331.943 182.264 332.517 182.264C333.342 182.264 333.992 182.443 334.466 182.801C334.94 183.156 335.253 183.631 335.405 184.228Z" fill="#1F2933"/>
<path d="M26.2784 43V31.3636H30.4261C31.3277 31.3636 32.0758 31.5189 32.6705 31.8295C33.2689 32.1402 33.7159 32.5701 34.0114 33.1193C34.3068 33.6648 34.4545 34.2955 34.4545 35.0114C34.4545 35.7235 34.3049 36.3504 34.0057 36.892C33.7102 37.4299 33.2633 37.8485 32.6648 38.1477C32.0701 38.447 31.322 38.5966 30.4205 38.5966H27.2784V37.0852H30.2614C30.8295 37.0852 31.2917 37.0038 31.6477 36.8409C32.0076 36.678 32.2708 36.4413 32.4375 36.1307C32.6042 35.8201 32.6875 35.447 32.6875 35.0114C32.6875 34.572 32.6023 34.1913 32.4318 33.8693C32.2652 33.5473 32.0019 33.3011 31.642 33.1307C31.286 32.9564 30.8182 32.8693 30.2386 32.8693H28.0341V43H26.2784ZM32.0227 37.75L34.8977 43H32.8977L30.0795 37.75H32.0227ZM40.1065 43.1761C39.2467 43.1761 38.5062 42.9924 37.8849 42.625C37.2675 42.2538 36.7902 41.733 36.4531 41.0625C36.1198 40.3883 35.9531 39.5985 35.9531 38.6932C35.9531 37.7992 36.1198 37.0114 36.4531 36.3295C36.7902 35.6477 37.2599 35.1155 37.8622 34.733C38.4683 34.3504 39.1766 34.1591 39.9872 34.1591C40.4796 34.1591 40.9569 34.2405 41.419 34.4034C41.8812 34.5663 42.2959 34.822 42.6634 35.1705C43.0308 35.5189 43.3205 35.9716 43.5327 36.5284C43.7448 37.0814 43.8509 37.7538 43.8509 38.5455V39.1477H36.9134V37.875H42.1861C42.1861 37.428 42.0952 37.0322 41.9134 36.6875C41.7315 36.339 41.4759 36.0644 41.1463 35.8636C40.8205 35.6629 40.438 35.5625 39.9986 35.5625C39.5213 35.5625 39.1046 35.6799 38.7486 35.9148C38.3963 36.1458 38.1236 36.4489 37.9304 36.8239C37.741 37.1951 37.6463 37.5985 37.6463 38.0341V39.0284C37.6463 39.6117 37.7486 40.108 37.9531 40.517C38.1615 40.9261 38.4512 41.2386 38.8224 41.4545C39.1937 41.6667 39.6274 41.7727 40.1236 41.7727C40.4455 41.7727 40.7391 41.7273 41.0043 41.6364C41.2694 41.5417 41.4986 41.4015 41.6918 41.2159C41.8849 41.0303 42.0327 40.8011 42.1349 40.5284L43.7429 40.8182C43.6141 41.2917 43.383 41.7064 43.0497 42.0625C42.7202 42.4148 42.3054 42.6894 41.8054 42.8864C41.3092 43.0795 40.7429 43.1761 40.1065 43.1761ZM52.9517 34.2727L49.7869 43H47.9688L44.7983 34.2727H46.6222L48.8324 40.9886H48.9233L51.1278 34.2727H52.9517ZM58.0128 43.1761C57.1529 43.1761 56.4124 42.9924 55.7912 42.625C55.1738 42.2538 54.6965 41.733 54.3594 41.0625C54.026 40.3883 53.8594 39.5985 53.8594 38.6932C53.8594 37.7992 54.026 37.0114 54.3594 36.3295C54.6965 35.6477 55.1662 35.1155 55.7685 34.733C56.3745 34.3504 57.0829 34.1591 57.8935 34.1591C58.3859 34.1591 58.8632 34.2405 59.3253 34.4034C59.7874 34.5663 60.2022 34.822 60.5696 35.1705C60.937 35.5189 61.2268 35.9716 61.4389 36.5284C61.651 37.0814 61.7571 37.7538 61.7571 38.5455V39.1477H54.8196V37.875H60.0923C60.0923 37.428 60.0014 37.0322 59.8196 36.6875C59.6378 36.339 59.3821 36.0644 59.0526 35.8636C58.7268 35.6629 58.3442 35.5625 57.9048 35.5625C57.4276 35.5625 57.0109 35.6799 56.6548 35.9148C56.3026 36.1458 56.0298 36.4489 55.8366 36.8239C55.6473 37.1951 55.5526 37.5985 55.5526 38.0341V39.0284C55.5526 39.6117 55.6548 40.108 55.8594 40.517C56.0677 40.9261 56.3575 41.2386 56.7287 41.4545C57.0999 41.6667 57.5336 41.7727 58.0298 41.7727C58.3518 41.7727 58.6454 41.7273 58.9105 41.6364C59.1757 41.5417 59.4048 41.4015 59.598 41.2159C59.7912 41.0303 59.9389 40.8011 60.0412 40.5284L61.6491 40.8182C61.5204 41.2917 61.2893 41.7064 60.956 42.0625C60.6264 42.4148 60.2116 42.6894 59.7116 42.8864C59.2154 43.0795 58.6491 43.1761 58.0128 43.1761ZM65.3409 37.8182V43H63.642V34.2727H65.2727V35.6932H65.3807C65.5814 35.2311 65.8958 34.8598 66.3239 34.5795C66.7557 34.2992 67.2992 34.1591 67.9545 34.1591C68.5492 34.1591 69.0701 34.2841 69.517 34.5341C69.964 34.7803 70.3106 35.1477 70.5568 35.6364C70.803 36.125 70.9261 36.7292 70.9261 37.4489V43H69.2273V37.6534C69.2273 37.0208 69.0625 36.5265 68.733 36.1705C68.4034 35.8106 67.9508 35.6307 67.375 35.6307C66.9811 35.6307 66.6307 35.7159 66.3239 35.8864C66.0208 36.0568 65.7803 36.3068 65.6023 36.6364C65.428 36.9621 65.3409 37.3561 65.3409 37.8182ZM78.733 39.3807V34.2727H80.4375V43H78.767V41.4886H78.6761C78.4754 41.9545 78.1534 42.3428 77.7102 42.6534C77.2708 42.9602 76.7235 43.1136 76.0682 43.1136C75.5076 43.1136 75.0114 42.9905 74.5795 42.7443C74.1515 42.4943 73.8144 42.125 73.5682 41.6364C73.3258 41.1477 73.2045 40.5436 73.2045 39.8239V34.2727H74.9034V39.6193C74.9034 40.214 75.0682 40.6875 75.3977 41.0398C75.7273 41.392 76.1553 41.5682 76.6818 41.5682C77 41.5682 77.3163 41.4886 77.6307 41.3295C77.9489 41.1705 78.2121 40.9299 78.4205 40.608C78.6326 40.286 78.7367 39.8769 78.733 39.3807ZM86.4815 43.1761C85.6217 43.1761 84.8812 42.9924 84.2599 42.625C83.6425 42.2538 83.1652 41.733 82.8281 41.0625C82.4948 40.3883 82.3281 39.5985 82.3281 38.6932C82.3281 37.7992 82.4948 37.0114 82.8281 36.3295C83.1652 35.6477 83.6349 35.1155 84.2372 34.733C84.8433 34.3504 85.5516 34.1591 86.3622 34.1591C86.8546 34.1591 87.3319 34.2405 87.794 34.4034C88.2562 34.5663 88.6709 34.822 89.0384 35.1705C89.4058 35.5189 89.6955 35.9716 89.9077 36.5284C90.1198 37.0814 90.2259 37.7538 90.2259 38.5455V39.1477H83.2884V37.875H88.5611C88.5611 37.428 88.4702 37.0322 88.2884 36.6875C88.1065 36.339 87.8509 36.0644 87.5213 35.8636C87.1955 35.6629 86.813 35.5625 86.3736 35.5625C85.8963 35.5625 85.4796 35.6799 85.1236 35.9148C84.7713 36.1458 84.4986 36.4489 84.3054 36.8239C84.116 37.1951 84.0213 37.5985 84.0213 38.0341V39.0284C84.0213 39.6117 84.1236 40.108 84.3281 40.517C84.5365 40.9261 84.8262 41.2386 85.1974 41.4545C85.5687 41.6667 86.0024 41.7727 86.4986 41.7727C86.8205 41.7727 87.1141 41.7273 87.3793 41.6364C87.6444 41.5417 87.8736 41.4015 88.0668 41.2159C88.2599 41.0303 88.4077 40.8011 88.5099 40.5284L90.1179 40.8182C89.9891 41.2917 89.758 41.7064 89.4247 42.0625C89.0952 42.4148 88.6804 42.6894 88.1804 42.8864C87.6842 43.0795 87.1179 43.1761 86.4815 43.1761Z" fill="#3E4C59"/>
<path d="M101.568 31.3636V43H100.227V31.3636H101.568ZM106.592 43.2045C106.039 43.2045 105.537 43.1004 105.087 42.892C104.636 42.6799 104.278 42.375 104.013 41.9773C103.748 41.5758 103.615 41.0909 103.615 40.5227C103.615 40.0227 103.714 39.6174 103.911 39.3068C104.107 38.9924 104.371 38.7462 104.7 38.5682C105.03 38.3902 105.393 38.2576 105.791 38.1705C106.193 38.0795 106.596 38.0076 107.001 37.9545C107.532 37.8864 107.962 37.8352 108.291 37.8011C108.625 37.7633 108.867 37.7008 109.018 37.6136C109.174 37.5265 109.251 37.375 109.251 37.1591V37.1136C109.251 36.553 109.098 36.1174 108.791 35.8068C108.488 35.4962 108.028 35.3409 107.411 35.3409C106.77 35.3409 106.268 35.4811 105.905 35.7614C105.541 36.0417 105.286 36.3409 105.138 36.6591L103.865 36.2045C104.092 35.6742 104.395 35.2614 104.774 34.9659C105.157 34.6667 105.573 34.4583 106.024 34.3409C106.479 34.2197 106.926 34.1591 107.365 34.1591C107.645 34.1591 107.967 34.1932 108.331 34.2614C108.698 34.3258 109.053 34.4602 109.393 34.6648C109.738 34.8693 110.024 35.178 110.251 35.5909C110.479 36.0038 110.592 36.5568 110.592 37.25V43H109.251V41.8182H109.183C109.092 42.0076 108.941 42.2102 108.729 42.4261C108.517 42.642 108.234 42.8258 107.882 42.9773C107.53 43.1288 107.1 43.2045 106.592 43.2045ZM106.797 42C107.327 42 107.774 41.8958 108.138 41.6875C108.505 41.4792 108.782 41.2102 108.967 40.8807C109.157 40.5511 109.251 40.2045 109.251 39.8409V38.6136C109.195 38.6818 109.07 38.7443 108.876 38.8011C108.687 38.8542 108.467 38.9015 108.217 38.9432C107.971 38.9811 107.731 39.0152 107.496 39.0455C107.265 39.072 107.077 39.0947 106.933 39.1136C106.585 39.1591 106.259 39.233 105.956 39.3352C105.657 39.4337 105.414 39.5833 105.229 39.7841C105.047 39.9811 104.956 40.25 104.956 40.5909C104.956 41.0568 105.128 41.4091 105.473 41.6477C105.821 41.8826 106.263 42 106.797 42ZM119.222 36.2273L118.017 36.5682C117.941 36.3674 117.83 36.1723 117.682 35.983C117.538 35.7898 117.341 35.6307 117.091 35.5057C116.841 35.3807 116.521 35.3182 116.131 35.3182C115.597 35.3182 115.152 35.4413 114.795 35.6875C114.443 35.9299 114.267 36.2386 114.267 36.6136C114.267 36.947 114.388 37.2102 114.631 37.4034C114.873 37.5966 115.252 37.7576 115.767 37.8864L117.062 38.2045C117.843 38.3939 118.424 38.6837 118.807 39.0739C119.189 39.4602 119.381 39.9583 119.381 40.5682C119.381 41.0682 119.237 41.5152 118.949 41.9091C118.665 42.303 118.267 42.6136 117.756 42.8409C117.244 43.0682 116.65 43.1818 115.972 43.1818C115.081 43.1818 114.345 42.9886 113.761 42.6023C113.178 42.2159 112.809 41.6515 112.653 40.9091L113.926 40.5909C114.047 41.0606 114.277 41.4129 114.614 41.6477C114.955 41.8826 115.4 42 115.949 42C116.574 42 117.07 41.8674 117.438 41.6023C117.809 41.3333 117.994 41.0114 117.994 40.6364C117.994 40.3333 117.888 40.0795 117.676 39.875C117.464 39.6667 117.138 39.5114 116.699 39.4091L115.244 39.0682C114.445 38.8788 113.858 38.5852 113.483 38.1875C113.112 37.786 112.926 37.2841 112.926 36.6818C112.926 36.1894 113.064 35.7538 113.341 35.375C113.621 34.9962 114.002 34.6989 114.483 34.483C114.968 34.267 115.517 34.1591 116.131 34.1591C116.994 34.1591 117.672 34.3485 118.165 34.7273C118.661 35.1061 119.013 35.6061 119.222 36.2273ZM125.195 34.2727V35.4091H120.672V34.2727H125.195ZM121.99 32.1818H123.331V40.5C123.331 40.8788 123.386 41.1629 123.496 41.3523C123.609 41.5379 123.753 41.6629 123.928 41.7273C124.106 41.7879 124.293 41.8182 124.49 41.8182C124.638 41.8182 124.759 41.8106 124.854 41.7955C124.948 41.7765 125.024 41.7614 125.081 41.75L125.354 42.9545C125.263 42.9886 125.136 43.0227 124.973 43.0568C124.81 43.0947 124.604 43.1136 124.354 43.1136C123.975 43.1136 123.604 43.0322 123.24 42.8693C122.88 42.7064 122.581 42.4583 122.342 42.125C122.107 41.7917 121.99 41.3712 121.99 40.8636V32.1818ZM132.053 43L137.257 32.7045V32.6136H131.257V31.3636H138.712V32.6818L133.53 43H132.053ZM148.648 43.1818C147.92 43.1818 147.278 42.9981 146.722 42.6307C146.165 42.2595 145.729 41.7367 145.415 41.0625C145.1 40.3845 144.943 39.5833 144.943 38.6591C144.943 37.7424 145.1 36.947 145.415 36.2727C145.729 35.5985 146.167 35.0777 146.727 34.7102C147.288 34.3428 147.936 34.1591 148.67 34.1591C149.239 34.1591 149.688 34.2538 150.017 34.4432C150.35 34.6288 150.604 34.8409 150.778 35.0795C150.956 35.3144 151.095 35.5076 151.193 35.6591H151.307V31.3636H152.648V43H151.352V41.6591H151.193C151.095 41.8182 150.955 42.0189 150.773 42.2614C150.591 42.5 150.331 42.714 149.994 42.9034C149.657 43.089 149.208 43.1818 148.648 43.1818ZM148.83 41.9773C149.367 41.9773 149.822 41.8371 150.193 41.5568C150.564 41.2727 150.847 40.8807 151.04 40.3807C151.233 39.8769 151.33 39.2955 151.33 38.6364C151.33 37.9848 151.235 37.4148 151.045 36.9261C150.856 36.4337 150.576 36.0511 150.205 35.7784C149.833 35.5019 149.375 35.3636 148.83 35.3636C148.261 35.3636 147.788 35.5095 147.409 35.8011C147.034 36.089 146.752 36.4811 146.562 36.9773C146.377 37.4697 146.284 38.0227 146.284 38.6364C146.284 39.2576 146.379 39.822 146.568 40.3295C146.761 40.8333 147.045 41.2348 147.42 41.5341C147.799 41.8295 148.269 41.9773 148.83 41.9773ZM157.858 43.2045C157.305 43.2045 156.803 43.1004 156.352 42.892C155.902 42.6799 155.544 42.375 155.278 41.9773C155.013 41.5758 154.881 41.0909 154.881 40.5227C154.881 40.0227 154.979 39.6174 155.176 39.3068C155.373 38.9924 155.636 38.7462 155.966 38.5682C156.295 38.3902 156.659 38.2576 157.057 38.1705C157.458 38.0795 157.862 38.0076 158.267 37.9545C158.797 37.8864 159.227 37.8352 159.557 37.8011C159.89 37.7633 160.133 37.7008 160.284 37.6136C160.439 37.5265 160.517 37.375 160.517 37.1591V37.1136C160.517 36.553 160.364 36.1174 160.057 35.8068C159.754 35.4962 159.294 35.3409 158.676 35.3409C158.036 35.3409 157.534 35.4811 157.17 35.7614C156.807 36.0417 156.551 36.3409 156.403 36.6591L155.131 36.2045C155.358 35.6742 155.661 35.2614 156.04 34.9659C156.422 34.6667 156.839 34.4583 157.29 34.3409C157.744 34.2197 158.191 34.1591 158.631 34.1591C158.911 34.1591 159.233 34.1932 159.597 34.2614C159.964 34.3258 160.318 34.4602 160.659 34.6648C161.004 34.8693 161.29 35.178 161.517 35.5909C161.744 36.0038 161.858 36.5568 161.858 37.25V43H160.517V41.8182H160.449C160.358 42.0076 160.206 42.2102 159.994 42.4261C159.782 42.642 159.5 42.8258 159.148 42.9773C158.795 43.1288 158.366 43.2045 157.858 43.2045ZM158.062 42C158.593 42 159.04 41.8958 159.403 41.6875C159.771 41.4792 160.047 41.2102 160.233 40.8807C160.422 40.5511 160.517 40.2045 160.517 39.8409V38.6136C160.46 38.6818 160.335 38.7443 160.142 38.8011C159.953 38.8542 159.733 38.9015 159.483 38.9432C159.237 38.9811 158.996 39.0152 158.761 39.0455C158.53 39.072 158.343 39.0947 158.199 39.1136C157.85 39.1591 157.525 39.233 157.222 39.3352C156.922 39.4337 156.68 39.5833 156.494 39.7841C156.313 39.9811 156.222 40.25 156.222 40.5909C156.222 41.0568 156.394 41.4091 156.739 41.6477C157.087 41.8826 157.528 42 158.062 42ZM164.857 46.2727C164.629 46.2727 164.427 46.2538 164.249 46.2159C164.071 46.1818 163.947 46.1477 163.879 46.1136L164.22 44.9318C164.546 45.0152 164.834 45.0455 165.084 45.0227C165.334 45 165.555 44.8883 165.749 44.6875C165.946 44.4905 166.125 44.1705 166.288 43.7273L166.538 43.0455L163.311 34.2727H164.766L167.175 41.2273H167.266L169.675 34.2727H171.129L167.425 44.2727C167.258 44.7235 167.052 45.0966 166.805 45.392C166.559 45.6913 166.273 45.9129 165.947 46.0568C165.625 46.2008 165.262 46.2727 164.857 46.2727ZM179.081 36.2273L177.876 36.5682C177.801 36.3674 177.689 36.1723 177.541 35.983C177.397 35.7898 177.2 35.6307 176.95 35.5057C176.7 35.3807 176.38 35.3182 175.99 35.3182C175.456 35.3182 175.011 35.4413 174.655 35.6875C174.303 35.9299 174.126 36.2386 174.126 36.6136C174.126 36.947 174.248 37.2102 174.49 37.4034C174.732 37.5966 175.111 37.7576 175.626 37.8864L176.922 38.2045C177.702 38.3939 178.284 38.6837 178.666 39.0739C179.049 39.4602 179.24 39.9583 179.24 40.5682C179.24 41.0682 179.096 41.5152 178.808 41.9091C178.524 42.303 178.126 42.6136 177.615 42.8409C177.104 43.0682 176.509 43.1818 175.831 43.1818C174.941 43.1818 174.204 42.9886 173.621 42.6023C173.037 42.2159 172.668 41.6515 172.513 40.9091L173.786 40.5909C173.907 41.0606 174.136 41.4129 174.473 41.6477C174.814 41.8826 175.259 42 175.808 42C176.433 42 176.929 41.8674 177.297 41.6023C177.668 41.3333 177.854 41.0114 177.854 40.6364C177.854 40.3333 177.748 40.0795 177.536 39.875C177.323 39.6667 176.998 39.5114 176.558 39.4091L175.104 39.0682C174.304 38.8788 173.717 38.5852 173.342 38.1875C172.971 37.786 172.786 37.2841 172.786 36.6818C172.786 36.1894 172.924 35.7538 173.2 35.375C173.481 34.9962 173.861 34.6989 174.342 34.483C174.827 34.267 175.376 34.1591 175.99 34.1591C176.854 34.1591 177.532 34.3485 178.024 34.7273C178.52 35.1061 178.873 35.6061 179.081 36.2273Z" fill="#727F8F"/>
<path d="M34.5682 101.909V72.8182H36.4318V101.909H34.5682ZM39.9432 82.125C39.8371 81.1326 39.3902 80.3598 38.6023 79.8068C37.822 79.2538 36.8068 78.9773 35.5568 78.9773C34.678 78.9773 33.9242 79.1098 33.2955 79.375C32.6667 79.6402 32.1856 80 31.8523 80.4545C31.5189 80.9091 31.3485 81.428 31.3409 82.0114C31.3409 82.4962 31.4508 82.9167 31.6705 83.2727C31.8977 83.6288 32.2045 83.9318 32.5909 84.1818C32.9773 84.4242 33.4053 84.6288 33.875 84.7955C34.3447 84.9621 34.8182 85.1023 35.2955 85.2159L37.4773 85.7614C38.3561 85.9659 39.2008 86.2424 40.0114 86.5909C40.8295 86.9394 41.5606 87.3788 42.2045 87.9091C42.8561 88.4394 43.3712 89.0795 43.75 89.8295C44.1288 90.5795 44.3182 91.4583 44.3182 92.4659C44.3182 93.8295 43.9697 95.0303 43.2727 96.0682C42.5758 97.0985 41.5682 97.9053 40.25 98.4886C38.9394 99.0644 37.3523 99.3523 35.4886 99.3523C33.678 99.3523 32.1061 99.072 30.7727 98.5114C29.447 97.9508 28.4091 97.1326 27.6591 96.0568C26.9167 94.9811 26.5152 93.6705 26.4545 92.125H30.6023C30.6629 92.9356 30.9129 93.6098 31.3523 94.1477C31.7917 94.6856 32.3636 95.0871 33.0682 95.3523C33.7803 95.6174 34.5758 95.75 35.4545 95.75C36.3712 95.75 37.1742 95.6136 37.8636 95.3409C38.5606 95.0606 39.1061 94.6742 39.5 94.1818C39.8939 93.6818 40.0947 93.0985 40.1023 92.4318C40.0947 91.8258 39.9167 91.3258 39.5682 90.9318C39.2197 90.5303 38.7311 90.197 38.1023 89.9318C37.4811 89.6591 36.7538 89.4167 35.9205 89.2045L33.2727 88.5227C31.3561 88.0303 29.8409 87.2841 28.7273 86.2841C27.6212 85.2765 27.0682 83.9394 27.0682 82.2727C27.0682 80.9015 27.4394 79.7008 28.1818 78.6705C28.9318 77.6402 29.9508 76.8409 31.2386 76.2727C32.5265 75.697 33.9848 75.4091 35.6136 75.4091C37.2652 75.4091 38.7121 75.697 39.9545 76.2727C41.2045 76.8409 42.1856 77.6326 42.8977 78.6477C43.6098 79.6553 43.9773 80.8144 44 82.125H39.9432ZM56.2017 99.3182C54.5653 99.3182 53.1108 99.0379 51.8381 98.4773C50.5729 97.9167 49.5729 97.1364 48.8381 96.1364C48.1032 95.1364 47.7131 93.9811 47.6676 92.6705H51.9403C51.9782 93.2992 52.1866 93.8485 52.5653 94.3182C52.9441 94.7803 53.4479 95.1402 54.0767 95.3977C54.7055 95.6553 55.41 95.7841 56.1903 95.7841C57.0237 95.7841 57.7623 95.6402 58.4062 95.3523C59.0502 95.0568 59.554 94.6477 59.9176 94.125C60.2813 93.6023 60.4593 93 60.4517 92.3182C60.4593 91.6136 60.2775 90.9924 59.9062 90.4545C59.535 89.9167 58.9972 89.4962 58.2926 89.1932C57.5956 88.8902 56.7547 88.7386 55.7699 88.7386H53.7131V85.4886H55.7699C56.5805 85.4886 57.2888 85.3485 57.8949 85.0682C58.5085 84.7879 58.9896 84.3939 59.3381 83.8864C59.6866 83.3712 59.857 82.7765 59.8494 82.1023C59.857 81.4432 59.7093 80.8712 59.4062 80.3864C59.1108 79.8939 58.6903 79.5114 58.1449 79.2386C57.607 78.9659 56.9744 78.8295 56.2472 78.8295C55.535 78.8295 54.8759 78.9583 54.2699 79.2159C53.6638 79.4735 53.1752 79.8409 52.804 80.3182C52.4328 80.7879 52.2358 81.3485 52.2131 82H48.1562C48.1866 80.697 48.5616 79.553 49.2812 78.5682C50.0085 77.5758 50.9782 76.803 52.1903 76.25C53.4025 75.6894 54.7623 75.4091 56.2699 75.4091C57.8229 75.4091 59.1714 75.7008 60.3153 76.2841C61.4669 76.8598 62.357 77.6364 62.9858 78.6136C63.6146 79.5909 63.929 80.6705 63.929 81.8523C63.9366 83.1629 63.5502 84.2614 62.7699 85.1477C61.9972 86.0341 60.982 86.6136 59.7244 86.8864V87.0682C61.3608 87.2955 62.6146 87.9015 63.4858 88.8864C64.3646 89.8636 64.8002 91.0795 64.7926 92.5341C64.7926 93.8371 64.4214 95.0038 63.679 96.0341C62.9441 97.0568 61.929 97.8598 60.6335 98.4432C59.3456 99.0265 57.8684 99.3182 56.2017 99.3182ZM68.2727 94.6818V91.3295L78.1477 75.7273H80.9432V80.5H79.2386L72.5909 91.0341V91.2159H86.375V94.6818H68.2727ZM79.375 99V93.6591L79.4205 92.1591V75.7273H83.3977V99H79.375ZM90.0057 99V95.9545L98.0852 88.0341C98.858 87.2538 99.5019 86.5606 100.017 85.9545C100.532 85.3485 100.919 84.7614 101.176 84.1932C101.434 83.625 101.562 83.0189 101.562 82.375C101.562 81.6402 101.396 81.0114 101.062 80.4886C100.729 79.9583 100.271 79.5492 99.6875 79.2614C99.1042 78.9735 98.4413 78.8295 97.6989 78.8295C96.9337 78.8295 96.2633 78.9886 95.6875 79.3068C95.1117 79.6174 94.6648 80.0606 94.3466 80.6364C94.036 81.2121 93.8807 81.8977 93.8807 82.6932H89.8693C89.8693 81.2159 90.2064 79.9318 90.8807 78.8409C91.5549 77.75 92.483 76.9053 93.6648 76.3068C94.8542 75.7083 96.2178 75.4091 97.7557 75.4091C99.3163 75.4091 100.688 75.7008 101.869 76.2841C103.051 76.8674 103.968 77.6667 104.619 78.6818C105.278 79.697 105.608 80.8561 105.608 82.1591C105.608 83.0303 105.441 83.8864 105.108 84.7273C104.775 85.5682 104.188 86.5 103.347 87.5227C102.513 88.5455 101.343 89.7841 99.8352 91.2386L95.8239 95.3182V95.4773H105.96V99H90.0057ZM118.483 99.4432C116.612 99.4432 115.006 98.9697 113.665 98.0227C112.331 97.0682 111.305 95.6932 110.585 93.8977C109.873 92.0947 109.517 89.9242 109.517 87.3864C109.525 84.8485 109.884 82.6894 110.597 80.9091C111.316 79.1212 112.343 77.7576 113.676 76.8182C115.017 75.8788 116.619 75.4091 118.483 75.4091C120.347 75.4091 121.949 75.8788 123.29 76.8182C124.631 77.7576 125.657 79.1212 126.369 80.9091C127.089 82.697 127.449 84.8561 127.449 87.3864C127.449 89.9318 127.089 92.1061 126.369 93.9091C125.657 95.7045 124.631 97.0758 123.29 98.0227C121.956 98.9697 120.354 99.4432 118.483 99.4432ZM118.483 95.8864C119.938 95.8864 121.085 95.1705 121.926 93.7386C122.775 92.2992 123.199 90.1818 123.199 87.3864C123.199 85.5379 123.006 83.9848 122.619 82.7273C122.233 81.4697 121.688 80.5227 120.983 79.8864C120.278 79.2424 119.445 78.9205 118.483 78.9205C117.036 78.9205 115.892 79.6402 115.051 81.0795C114.21 82.5114 113.786 84.6136 113.778 87.3864C113.771 89.2424 113.956 90.803 114.335 92.0682C114.722 93.3333 115.267 94.2879 115.972 94.9318C116.676 95.5682 117.513 95.8864 118.483 95.8864ZM139.827 99.4432C137.955 99.4432 136.349 98.9697 135.009 98.0227C133.675 97.0682 132.649 95.6932 131.929 93.8977C131.217 92.0947 130.861 89.9242 130.861 87.3864C130.868 84.8485 131.228 82.6894 131.94 80.9091C132.66 79.1212 133.687 77.7576 135.02 76.8182C136.361 75.8788 137.963 75.4091 139.827 75.4091C141.69 75.4091 143.293 75.8788 144.634 76.8182C145.974 77.7576 147.001 79.1212 147.713 80.9091C148.433 82.697 148.793 84.8561 148.793 87.3864C148.793 89.9318 148.433 92.1061 147.713 93.9091C147.001 95.7045 145.974 97.0758 144.634 98.0227C143.3 98.9697 141.698 99.4432 139.827 99.4432ZM139.827 95.8864C141.281 95.8864 142.429 95.1705 143.27 93.7386C144.118 92.2992 144.543 90.1818 144.543 87.3864C144.543 85.5379 144.349 83.9848 143.963 82.7273C143.577 81.4697 143.031 80.5227 142.327 79.8864C141.622 79.2424 140.789 78.9205 139.827 78.9205C138.38 78.9205 137.236 79.6402 136.395 81.0795C135.554 82.5114 135.13 84.6136 135.122 87.3864C135.115 89.2424 135.3 90.803 135.679 92.0682C136.065 93.3333 136.611 94.2879 137.315 94.9318C138.02 95.5682 138.857 95.8864 139.827 95.8864Z" fill="#1F2933"/>
<path d="M181.393 78.3038C181.393 77.7515 180.945 77.3038 180.393 77.3038L171.393 77.3038C170.84 77.3038 170.393 77.7515 170.393 78.3038C170.393 78.856 170.84 79.3038 171.393 79.3038L179.393 79.3038L179.393 87.3038C179.393 87.856 179.84 88.3038 180.393 88.3038C180.945 88.3038 181.393 87.856 181.393 87.3038L181.393 78.3038ZM163.707 96.4034L181.1 79.0109L179.685 77.5967L162.293 94.9892L163.707 96.4034Z" fill="#49E258"/>
<path d="M321 72V47" stroke="#E4E7EC" stroke-width="2.36953" stroke-linecap="round"/>
<path d="M330.478 72V38.9965" stroke="#E4E7EC" stroke-width="2.36953" stroke-linecap="round"/>
<path d="M339.956 72L339.999 33" stroke="#E4E7EC" stroke-width="2.36953" stroke-linecap="round"/>
<path d="M349.477 72V21" stroke="#49E258" stroke-width="2.36953" stroke-linecap="round"/>
<path d="M358.956 72L359 25" stroke="#E4E7EC" stroke-width="2.36953" stroke-linecap="round"/>
<path d="M368.479 72V21" stroke="#E4E7EC" stroke-width="2.36953" stroke-linecap="round"/>
<defs>
<linearGradient id="paint0_linear_269_2748" x1="191.5" y1="210.579" x2="191.5" y2="361" gradientUnits="userSpaceOnUse">
<stop stop-color="#4779E8"/>
<stop offset="1" stop-color="#0047FF" stop-opacity="0"/>
</linearGradient>
</defs>
</svg>
