<svg width="20" height="21" viewBox="0 0 20 21" fill="none" xmlns="http://www.w3.org/2000/svg">
<path d="M6.75812 4.22364C5.88424 6.14252 4.81218 8.49697 4.00796 9.43245C3.84999 9.06913 3.86722 8.45978 3.68771 6.97216C3.52543 5.63044 2.41387 5.50242 1.93636 5.59754C0.880819 5.81711 0.559847 6.88204 0.595032 7.27469C0.651041 7.90049 0.653913 7.87903 0.768803 9.39312C0.937546 11.6067 0.0794678 13.2781 0.000481606 15.1734C0.000481606 18.7451 3.14342 20.5002 5.34283 20.5002C7.10279 20.5002 8.86418 19.3788 9.52408 18.818L12.8243 15.8156C13.2278 15.5031 14.2266 14.4703 14.6646 13.876C15.8595 12.2575 14.1319 11.1425 13.161 11.4229C13.2372 11.3642 13.6981 10.619 13.9186 10.2542C14.511 9.06913 13.9186 8.28026 13.4806 8.06284C12.4875 7.57078 11.7572 8.12435 11.5275 8.42616C11.6158 8.2774 11.8915 7.6752 12.336 6.57022C12.7805 5.46594 12.0646 4.78364 11.651 4.58052C10.7534 4.16642 9.90034 4.6921 9.68708 5.16198C9.58224 5.39156 9.01928 6.62099 8.77371 7.1624C8.95897 6.71326 9.29358 5.81997 9.41206 5.4073C9.64758 4.43462 9.08104 3.76805 8.72129 3.59641C8.22224 3.35824 7.18034 3.29602 6.76817 4.20004L6.75812 4.22364Z" fill="url(#paint0_radial_269_2695)"/>
<path d="M6.75781 4.22364C5.88393 6.14252 4.81187 8.49697 4.00765 9.43245C3.84967 9.06913 3.86691 8.45978 3.68739 6.97216C3.52511 5.63044 2.41356 5.50242 1.93605 5.59754C0.880506 5.81711 0.559534 6.88204 0.594719 7.27469C0.650727 7.90049 0.6536 7.87903 0.768489 9.39312C0.937232 11.6067 0.079154 13.2781 0.000167847 15.1734C0.000167847 18.7451 3.14311 20.5002 5.34251 20.5002C7.10247 20.5002 8.86387 19.3788 9.52376 18.818L12.824 15.8156C13.2282 15.5031 14.2263 14.4703 14.6651 13.876C15.8592 12.2575 14.1315 11.1425 13.1607 11.4229C13.2368 11.3642 13.6978 10.619 13.9183 10.2542C14.5107 9.06913 13.9183 8.28026 13.4803 8.06284C12.4872 7.57078 11.7569 8.12435 11.5271 8.42616C11.6155 8.2774 11.8912 7.6752 12.3357 6.57022C12.7802 5.46594 12.0642 4.78364 11.6506 4.58052C10.7531 4.16642 9.90002 4.6921 9.68676 5.16198C9.58192 5.39156 9.01897 6.62099 8.77339 7.1624C8.95865 6.71326 9.29327 5.81997 9.41175 5.4073C9.64727 4.43462 9.08072 3.76805 8.72169 3.59641C8.22192 3.35824 7.18002 3.29602 6.76858 4.20004L6.75781 4.22364Z" fill="url(#paint1_radial_269_2695)"/>
<path d="M0.596092 7.27486C0.6521 7.90066 0.654973 7.8792 0.769862 9.39329C0.829461 10.1757 0.402935 13.0558 0.402935 13.0558C1.44053 13.3934 3.68877 12.9464 4.0083 9.43262C3.85105 9.0693 3.86828 8.45995 3.68877 6.97233C3.52648 5.63061 2.41493 5.50259 1.93742 5.59771C0.881878 5.81728 0.560907 6.88221 0.596092 7.27486Z" fill="url(#paint2_radial_269_2695)"/>
<path d="M0.596092 7.27486C0.6521 7.90066 0.654973 7.8792 0.769862 9.39329C0.829461 10.1757 0.402935 13.0558 0.402935 13.0558C1.44053 13.3934 3.68877 12.9464 4.0083 9.43262C3.85105 9.0693 3.86828 8.45995 3.68877 6.97233C3.52648 5.63061 2.41493 5.50259 1.93742 5.59771C0.881878 5.81728 0.560907 6.88221 0.596092 7.27486Z" fill="url(#paint3_radial_269_2695)"/>
<path d="M0.596092 7.27486C0.6521 7.90066 0.654973 7.8792 0.769862 9.39329C0.829461 10.1757 0.402935 13.0558 0.402935 13.0558C1.44053 13.3934 3.68877 12.9464 4.0083 9.43262C3.85105 9.0693 3.86828 8.45995 3.68877 6.97233C3.52648 5.63061 2.41493 5.50259 1.93742 5.59771C0.881878 5.81728 0.560907 6.88221 0.596092 7.27486Z" fill="url(#paint4_radial_269_2695)"/>
<path d="M6.75871 4.22364C5.88484 6.14252 4.81278 8.49697 4.00855 9.43245C4.13421 10.5024 5.09425 11.0145 5.92146 10.8228C6.96479 10.521 7.36116 9.78362 7.36116 9.78362C7.36116 9.78362 7.63402 9.36308 7.8997 8.90034C8.20703 8.36537 8.15102 8.37753 8.66587 7.40915C8.76712 7.2189 9.26258 5.92868 9.41265 5.4073C9.64817 4.43462 9.08163 3.76805 8.72188 3.59641C8.22283 3.35824 7.18093 3.29602 6.76876 4.20004L6.75871 4.22364Z" fill="url(#paint5_radial_269_2695)"/>
<path d="M6.75871 4.22364C5.88484 6.14252 4.81278 8.49697 4.00855 9.43245C4.13421 10.5024 5.09425 11.0145 5.92146 10.8228C6.96479 10.521 7.36116 9.78362 7.36116 9.78362C7.36116 9.78362 7.63402 9.36308 7.8997 8.90034C8.20703 8.36537 8.15102 8.37753 8.66587 7.40915C8.76712 7.2189 9.26258 5.92868 9.41265 5.4073C9.64817 4.43462 9.08163 3.76805 8.72188 3.59641C8.22283 3.35824 7.18093 3.29602 6.76876 4.20004L6.75871 4.22364Z" fill="url(#paint6_linear_269_2695)"/>
<path d="M6.75871 4.22364C5.88484 6.14252 4.81278 8.49697 4.00855 9.43245C4.13421 10.5024 5.09425 11.0145 5.92146 10.8228C6.96479 10.521 7.36116 9.78362 7.36116 9.78362C7.36116 9.78362 7.63402 9.36308 7.8997 8.90034C8.20703 8.36537 8.15102 8.37753 8.66587 7.40915C8.76712 7.2189 9.26258 5.92868 9.41265 5.4073C9.64817 4.43462 9.08163 3.76805 8.72188 3.59641C8.22283 3.35824 7.18093 3.29602 6.76876 4.20004L6.75871 4.22364Z" fill="url(#paint7_radial_269_2695)"/>
<path d="M6.75871 4.22364C5.88484 6.14252 4.81278 8.49697 4.00855 9.43245C4.13421 10.5024 5.09425 11.0145 5.92146 10.8228C6.96479 10.521 7.36116 9.78362 7.36116 9.78362C7.36116 9.78362 7.63402 9.36308 7.8997 8.90034C8.20703 8.36537 8.15102 8.37753 8.66587 7.40915C8.76712 7.2189 9.26258 5.92868 9.41265 5.4073C9.64817 4.43462 9.08163 3.76805 8.72188 3.59641C8.22283 3.35824 7.18093 3.29602 6.76876 4.20004L6.75871 4.22364Z" fill="url(#paint8_radial_269_2695)"/>
<path d="M6.75871 4.22364C5.88484 6.14252 4.81278 8.49697 4.00855 9.43245C4.13421 10.5024 5.09425 11.0145 5.92146 10.8228C6.96479 10.521 7.36116 9.78362 7.36116 9.78362C7.36116 9.78362 7.63402 9.36308 7.8997 8.90034C8.20703 8.36537 8.15102 8.37753 8.66587 7.40915C8.76712 7.2189 9.26258 5.92868 9.41265 5.4073C9.64817 4.43462 9.08163 3.76805 8.72188 3.59641C8.22283 3.35824 7.18093 3.29602 6.76876 4.20004L6.75871 4.22364Z" fill="url(#paint9_linear_269_2695)"/>
<path d="M9.68808 5.16209C9.54734 5.47106 8.57652 7.58806 8.66628 7.40926C8.40562 7.99572 7.59637 9.42612 7.36157 9.81734C6.8417 10.6799 7.42835 11.3972 7.80676 11.6161C8.89606 12.2454 9.52149 11.443 9.52149 11.443C10.0959 10.6048 10.5756 9.90674 11.5241 8.42055C11.7525 7.99143 12.169 7.03449 12.337 6.57032C12.7513 5.42457 12.0656 4.78375 11.652 4.58063C10.7544 4.16653 9.90134 4.6922 9.68808 5.16209Z" fill="url(#paint10_radial_269_2695)"/>
<path d="M9.68808 5.16209C9.54734 5.47106 8.57652 7.58806 8.66628 7.40926C8.40562 7.99572 7.59637 9.42612 7.36157 9.81734C6.8417 10.6799 7.42835 11.3972 7.80676 11.6161C8.89606 12.2454 9.52149 11.443 9.52149 11.443C10.0959 10.6048 10.5756 9.90674 11.5241 8.42055C11.7525 7.99143 12.169 7.03449 12.337 6.57032C12.7513 5.42457 12.0656 4.78375 11.652 4.58063C10.7544 4.16653 9.90134 4.6922 9.68808 5.16209Z" fill="url(#paint11_linear_269_2695)"/>
<path d="M9.68808 5.16209C9.54734 5.47106 8.57652 7.58806 8.66628 7.40926C8.40562 7.99572 7.59637 9.42612 7.36157 9.81734C6.8417 10.6799 7.42835 11.3972 7.80676 11.6161C8.89606 12.2454 9.52149 11.443 9.52149 11.443C10.0959 10.6048 10.5756 9.90674 11.5241 8.42055C11.7525 7.99143 12.169 7.03449 12.337 6.57032C12.7513 5.42457 12.0656 4.78375 11.652 4.58063C10.7544 4.16653 9.90134 4.6922 9.68808 5.16209Z" fill="url(#paint12_radial_269_2695)"/>
<path d="M9.68808 5.16209C9.54734 5.47106 8.57652 7.58806 8.66628 7.40926C8.40562 7.99572 7.59637 9.42612 7.36157 9.81734C6.8417 10.6799 7.42835 11.3972 7.80676 11.6161C8.89606 12.2454 9.52149 11.443 9.52149 11.443C10.0959 10.6048 10.5756 9.90674 11.5241 8.42055C11.7525 7.99143 12.169 7.03449 12.337 6.57032C12.7513 5.42457 12.0656 4.78375 11.652 4.58063C10.7544 4.16653 9.90134 4.6922 9.68808 5.16209Z" fill="url(#paint13_radial_269_2695)"/>
<path d="M9.68808 5.16209C9.54734 5.47106 8.57652 7.58806 8.66628 7.40926C8.40562 7.99572 7.59637 9.42612 7.36157 9.81734C6.8417 10.6799 7.42835 11.3972 7.80676 11.6161C8.89606 12.2454 9.52149 11.443 9.52149 11.443C10.0959 10.6048 10.5756 9.90674 11.5241 8.42055C11.7525 7.99143 12.169 7.03449 12.337 6.57032C12.7513 5.42457 12.0656 4.78375 11.652 4.58063C10.7544 4.16653 9.90134 4.6922 9.68808 5.16209Z" fill="url(#paint14_radial_269_2695)"/>
<path d="M9.68808 5.16209C9.54734 5.47106 8.57652 7.58806 8.66628 7.40926C8.40562 7.99572 7.59637 9.42612 7.36157 9.81734C6.8417 10.6799 7.42835 11.3972 7.80676 11.6161C8.89606 12.2454 9.52149 11.443 9.52149 11.443C10.0959 10.6048 10.5756 9.90674 11.5241 8.42055C11.7525 7.99143 12.169 7.03449 12.337 6.57032C12.7513 5.42457 12.0656 4.78375 11.652 4.58063C10.7544 4.16653 9.90134 4.6922 9.68808 5.16209Z" fill="url(#paint15_linear_269_2695)"/>
<path d="M13.483 8.06216C12.4899 7.57011 11.7596 8.12367 11.5299 8.42549C10.8125 9.5033 9.95731 10.7284 9.56238 11.3807C8.50683 13.1186 10.6667 13.8725 10.6667 13.8725C12.6529 11.6432 13.0205 11.5309 13.1634 11.4215C13.2395 11.3635 13.7005 10.6183 13.921 10.2535C14.5134 9.06845 13.921 8.27887 13.483 8.06216Z" fill="url(#paint16_radial_269_2695)"/>
<path d="M13.483 8.06216C12.4899 7.57011 11.7596 8.12367 11.5299 8.42549C10.8125 9.5033 9.95731 10.7284 9.56238 11.3807C8.50683 13.1186 10.6667 13.8725 10.6667 13.8725C12.6529 11.6432 13.0205 11.5309 13.1634 11.4215C13.2395 11.3635 13.7005 10.6183 13.921 10.2535C14.5134 9.06845 13.921 8.27887 13.483 8.06216Z" fill="url(#paint17_linear_269_2695)"/>
<path d="M13.483 8.06216C12.4899 7.57011 11.7596 8.12367 11.5299 8.42549C10.8125 9.5033 9.95731 10.7284 9.56238 11.3807C8.50683 13.1186 10.6667 13.8725 10.6667 13.8725C12.6529 11.6432 13.0205 11.5309 13.1634 11.4215C13.2395 11.3635 13.7005 10.6183 13.921 10.2535C14.5134 9.06845 13.921 8.27887 13.483 8.06216Z" fill="url(#paint18_radial_269_2695)"/>
<path d="M13.483 8.06216C12.4899 7.57011 11.7596 8.12367 11.5299 8.42549C10.8125 9.5033 9.95731 10.7284 9.56238 11.3807C8.50683 13.1186 10.6667 13.8725 10.6667 13.8725C12.6529 11.6432 13.0205 11.5309 13.1634 11.4215C13.2395 11.3635 13.7005 10.6183 13.921 10.2535C14.5134 9.06845 13.921 8.27887 13.483 8.06216Z" fill="url(#paint19_radial_269_2695)"/>
<path d="M13.483 8.06216C12.4899 7.57011 11.7596 8.12367 11.5299 8.42549C10.8125 9.5033 9.95731 10.7284 9.56238 11.3807C8.50683 13.1186 10.6667 13.8725 10.6667 13.8725C12.6529 11.6432 13.0205 11.5309 13.1634 11.4215C13.2395 11.3635 13.7005 10.6183 13.921 10.2535C14.5134 9.06845 13.921 8.27887 13.483 8.06216Z" fill="url(#paint20_radial_269_2695)"/>
<path d="M13.483 8.06216C12.4899 7.57011 11.7596 8.12367 11.5299 8.42549C10.8125 9.5033 9.95731 10.7284 9.56238 11.3807C8.50683 13.1186 10.6667 13.8725 10.6667 13.8725C12.6529 11.6432 13.0205 11.5309 13.1634 11.4215C13.2395 11.3635 13.7005 10.6183 13.921 10.2535C14.5134 9.06845 13.921 8.27887 13.483 8.06216Z" fill="url(#paint21_radial_269_2695)"/>
<path d="M14.6651 13.8762C15.8592 12.2577 14.1315 11.1427 13.1607 11.4231C12.7012 11.7056 11.9903 12.4144 11.688 12.734C9.76216 14.6043 10.0831 15.1815 10.6217 15.8166C11.1437 16.2471 11.8223 16.5926 12.824 15.8166C13.2282 15.5033 14.2263 14.4706 14.6651 13.8762Z" fill="url(#paint22_radial_269_2695)"/>
<path d="M14.6651 13.8762C15.8592 12.2577 14.1315 11.1427 13.1607 11.4231C12.7012 11.7056 11.9903 12.4144 11.688 12.734C9.76216 14.6043 10.0831 15.1815 10.6217 15.8166C11.1437 16.2471 11.8223 16.5926 12.824 15.8166C13.2282 15.5033 14.2263 14.4706 14.6651 13.8762Z" fill="url(#paint23_radial_269_2695)"/>
<path d="M14.6651 13.8762C15.8592 12.2577 14.1315 11.1427 13.1607 11.4231C12.7012 11.7056 11.9903 12.4144 11.688 12.734C9.76216 14.6043 10.0831 15.1815 10.6217 15.8166C11.1437 16.2471 11.8223 16.5926 12.824 15.8166C13.2282 15.5033 14.2263 14.4706 14.6651 13.8762Z" fill="url(#paint24_radial_269_2695)"/>
<path d="M14.6651 13.8762C15.8592 12.2577 14.1315 11.1427 13.1607 11.4231C12.7012 11.7056 11.9903 12.4144 11.688 12.734C9.76216 14.6043 10.0831 15.1815 10.6217 15.8166C11.1437 16.2471 11.8223 16.5926 12.824 15.8166C13.2282 15.5033 14.2263 14.4706 14.6651 13.8762Z" fill="url(#paint25_radial_269_2695)"/>
<path d="M14.6651 13.8762C15.8592 12.2577 14.1315 11.1427 13.1607 11.4231C12.7012 11.7056 11.9903 12.4144 11.688 12.734C9.76216 14.6043 10.0831 15.1815 10.6217 15.8166C11.1437 16.2471 11.8223 16.5926 12.824 15.8166C13.2282 15.5033 14.2263 14.4706 14.6651 13.8762Z" fill="url(#paint26_linear_269_2695)"/>
<path d="M6.75781 4.22364C5.88393 6.14252 4.81187 8.49697 4.00765 9.43245C3.84967 9.06913 3.86691 8.45978 3.68739 6.97216C3.52511 5.63044 2.41356 5.50242 1.93605 5.59754C0.880506 5.81711 0.559534 6.88204 0.594719 7.27469C0.650727 7.90049 0.6536 7.87903 0.768489 9.39312C0.937232 11.6067 0.079154 13.2781 0.000167847 15.1734C0.000167847 18.7451 3.14311 20.5002 5.34251 20.5002C7.10247 20.5002 8.86387 19.3788 9.52376 18.818L12.824 15.8156C13.2282 15.5031 14.2263 14.4703 14.6651 13.876C15.8592 12.2575 14.1315 11.1425 13.1607 11.4229C13.2368 11.3642 13.6978 10.619 13.9183 10.2542C14.5107 9.06913 13.9183 8.28026 13.4803 8.06284C12.4872 7.57078 11.7569 8.12435 11.5271 8.42616C11.6155 8.2774 11.8912 7.6752 12.3357 6.57022C12.7802 5.46594 12.0642 4.78364 11.6506 4.58052C10.7531 4.16642 9.90002 4.6921 9.68676 5.16198C9.58192 5.39156 9.01897 6.62099 8.77339 7.1624C8.95865 6.71326 9.29327 5.81997 9.41175 5.4073C9.64727 4.43462 9.08072 3.76805 8.72169 3.59641C8.22192 3.35824 7.18002 3.29602 6.76858 4.20004L6.75781 4.22364Z" fill="url(#paint27_radial_269_2695)"/>
<path d="M6.75781 4.22364C5.88393 6.14252 4.81187 8.49697 4.00765 9.43245C3.84967 9.06913 3.86691 8.45978 3.68739 6.97216C3.52511 5.63044 2.41356 5.50242 1.93605 5.59754C0.880506 5.81711 0.559534 6.88204 0.594719 7.27469C0.650727 7.90049 0.6536 7.87903 0.768489 9.39312C0.937232 11.6067 0.079154 13.2781 0.000167847 15.1734C0.000167847 18.7451 3.14311 20.5002 5.34251 20.5002C7.10247 20.5002 8.86387 19.3788 9.52376 18.818L12.824 15.8156C13.2282 15.5031 14.2263 14.4703 14.6651 13.876C15.8592 12.2575 14.1315 11.1425 13.1607 11.4229C13.2368 11.3642 13.6978 10.619 13.9183 10.2542C14.5107 9.06913 13.9183 8.28026 13.4803 8.06284C12.4872 7.57078 11.7569 8.12435 11.5271 8.42616C11.6155 8.2774 11.8912 7.6752 12.3357 6.57022C12.7802 5.46594 12.0642 4.78364 11.6506 4.58052C10.7531 4.16642 9.90002 4.6921 9.68676 5.16198C9.58192 5.39156 9.01897 6.62099 8.77339 7.1624C8.95865 6.71326 9.29327 5.81997 9.41175 5.4073C9.64727 4.43462 9.08072 3.76805 8.72169 3.59641C8.22192 3.35824 7.18002 3.29602 6.76858 4.20004L6.75781 4.22364Z" fill="url(#paint28_radial_269_2695)"/>
<path d="M6.75781 4.22364C5.88393 6.14252 4.81187 8.49697 4.00765 9.43245C3.84967 9.06913 3.86691 8.45978 3.68739 6.97216C3.52511 5.63044 2.41356 5.50242 1.93605 5.59754C0.880506 5.81711 0.559534 6.88204 0.594719 7.27469C0.650727 7.90049 0.6536 7.87903 0.768489 9.39312C0.937232 11.6067 0.079154 13.2781 0.000167847 15.1734C0.000167847 18.7451 3.14311 20.5002 5.34251 20.5002C7.10247 20.5002 8.86387 19.3788 9.52376 18.818L12.824 15.8156C13.2282 15.5031 14.2263 14.4703 14.6651 13.876C15.8592 12.2575 14.1315 11.1425 13.1607 11.4229C13.2368 11.3642 13.6978 10.619 13.9183 10.2542C14.5107 9.06913 13.9183 8.28026 13.4803 8.06284C12.4872 7.57078 11.7569 8.12435 11.5271 8.42616C11.6155 8.2774 11.8912 7.6752 12.3357 6.57022C12.7802 5.46594 12.0642 4.78364 11.6506 4.58052C10.7531 4.16642 9.90002 4.6921 9.68676 5.16198C9.58192 5.39156 9.01897 6.62099 8.77339 7.1624C8.95865 6.71326 9.29327 5.81997 9.41175 5.4073C9.64727 4.43462 9.08072 3.76805 8.72169 3.59641C8.22192 3.35824 7.18002 3.29602 6.76858 4.20004L6.75781 4.22364Z" fill="url(#paint29_radial_269_2695)"/>
<path d="M5.54031 6.79199C5.00105 7.88911 4.4625 8.87251 4.00726 9.41106C3.96058 9.89025 3.91893 10.1635 3.80404 10.5768C4.71239 9.67139 5.59201 7.69243 5.54031 6.79199Z" fill="url(#paint30_radial_269_2695)"/>
<path fillRule="evenodd" clipRule="evenodd" d="M18.4094 11.249C18.3066 11.2492 18.2082 11.29 18.1356 11.3624C18.0631 11.4348 18.0223 11.5329 18.0223 11.6352C18.0223 12.2789 17.7609 13.1407 17.1973 13.8366C16.6444 14.5211 15.8042 15.0389 14.6266 15.0389C14.524 15.0389 14.4255 15.0795 14.353 15.1518C14.2804 15.2241 14.2396 15.3221 14.2396 15.4244C14.2396 15.5266 14.2804 15.6247 14.353 15.697C14.4255 15.7693 14.524 15.8099 14.6266 15.8099C16.0642 15.8099 17.1161 15.1662 17.8004 14.3208C18.474 13.4883 18.7964 12.4549 18.7964 11.6345C18.7962 11.5323 18.7554 11.4344 18.6828 11.3621C18.6103 11.2899 18.5119 11.2492 18.4094 11.249Z" fill="url(#paint31_radial_269_2695)"/>
<path fillRule="evenodd" clipRule="evenodd" d="M18.4094 11.249C18.3066 11.2492 18.2082 11.29 18.1356 11.3624C18.0631 11.4348 18.0223 11.5329 18.0223 11.6352C18.0223 12.2789 17.7609 13.1407 17.1973 13.8366C16.6444 14.5211 15.8042 15.0389 14.6266 15.0389C14.524 15.0389 14.4255 15.0795 14.353 15.1518C14.2804 15.2241 14.2396 15.3221 14.2396 15.4244C14.2396 15.5266 14.2804 15.6247 14.353 15.697C14.4255 15.7693 14.524 15.8099 14.6266 15.8099C16.0642 15.8099 17.1161 15.1662 17.8004 14.3208C18.474 13.4883 18.7964 12.4549 18.7964 11.6345C18.7962 11.5323 18.7554 11.4344 18.6828 11.3621C18.6103 11.2899 18.5119 11.2492 18.4094 11.249Z" fill="url(#paint32_radial_269_2695)"/>
<path fillRule="evenodd" clipRule="evenodd" d="M18.4094 11.249C18.3066 11.2492 18.2082 11.29 18.1356 11.3624C18.0631 11.4348 18.0223 11.5329 18.0223 11.6352C18.0223 12.2789 17.7609 13.1407 17.1973 13.8366C16.6444 14.5211 15.8042 15.0389 14.6266 15.0389C14.524 15.0389 14.4255 15.0795 14.353 15.1518C14.2804 15.2241 14.2396 15.3221 14.2396 15.4244C14.2396 15.5266 14.2804 15.6247 14.353 15.697C14.4255 15.7693 14.524 15.8099 14.6266 15.8099C16.0642 15.8099 17.1161 15.1662 17.8004 14.3208C18.474 13.4883 18.7964 12.4549 18.7964 11.6345C18.7962 11.5323 18.7554 11.4344 18.6828 11.3621C18.6103 11.2899 18.5119 11.2492 18.4094 11.249Z" fill="url(#paint33_radial_269_2695)"/>
<path fillRule="evenodd" clipRule="evenodd" d="M19.6135 12.624C19.5106 12.624 19.412 12.6647 19.3393 12.7371C19.2666 12.8096 19.2257 12.9078 19.2257 13.0102C19.2257 14.3763 18.1989 16.2015 16.0404 16.2015C15.9378 16.2015 15.8393 16.2421 15.7667 16.3144C15.6941 16.3867 15.6534 16.4847 15.6534 16.587C15.6534 16.6892 15.6941 16.7872 15.7667 16.8595C15.8393 16.9318 15.9378 16.9724 16.0404 16.9724C18.7547 16.9724 20.0005 14.6623 20.0005 13.0102C20.0005 12.9078 19.9596 12.8096 19.8869 12.7371C19.8142 12.6647 19.7163 12.624 19.6135 12.624Z" fill="url(#paint34_radial_269_2695)"/>
<path fillRule="evenodd" clipRule="evenodd" d="M19.6135 12.624C19.5106 12.624 19.412 12.6647 19.3393 12.7371C19.2666 12.8096 19.2257 12.9078 19.2257 13.0102C19.2257 14.3763 18.1989 16.2015 16.0404 16.2015C15.9378 16.2015 15.8393 16.2421 15.7667 16.3144C15.6941 16.3867 15.6534 16.4847 15.6534 16.587C15.6534 16.6892 15.6941 16.7872 15.7667 16.8595C15.8393 16.9318 15.9378 16.9724 16.0404 16.9724C18.7547 16.9724 20.0005 14.6623 20.0005 13.0102C20.0005 12.9078 19.9596 12.8096 19.8869 12.7371C19.8142 12.6647 19.7163 12.624 19.6135 12.624Z" fill="url(#paint35_radial_269_2695)"/>
<path fillRule="evenodd" clipRule="evenodd" d="M5.11755 6.2085C5.16838 6.20878 5.21876 6.19909 5.26583 6.17998C5.31289 6.16087 5.35572 6.13271 5.39186 6.09711C5.428 6.06151 5.45674 6.01917 5.47645 5.97251C5.49617 5.92585 5.50646 5.87578 5.50674 5.82515C5.51105 5.18147 5.77816 4.32108 6.34615 3.62877C6.90408 2.94789 7.74636 2.43581 8.92469 2.44296C9.02333 2.43765 9.11621 2.39504 9.18437 2.32384C9.25254 2.25264 9.29085 2.15821 9.2915 2.05983C9.29214 1.96144 9.25506 1.86652 9.18782 1.79445C9.12059 1.72237 9.02827 1.67856 8.92972 1.67198C7.49217 1.66268 6.4359 2.30064 5.74657 3.141C5.06729 3.9692 4.73842 5.00052 4.73267 5.82015C4.73229 5.87083 4.74195 5.92109 4.7611 5.96805C4.78025 6.01501 4.8085 6.05775 4.84425 6.09382C4.88 6.12989 4.92254 6.15859 4.96944 6.17827C5.01633 6.19795 5.06666 6.20822 5.11755 6.2085Z" fill="url(#paint36_radial_269_2695)"/>
<path fillRule="evenodd" clipRule="evenodd" d="M5.11755 6.2085C5.16838 6.20878 5.21876 6.19909 5.26583 6.17998C5.31289 6.16087 5.35572 6.13271 5.39186 6.09711C5.428 6.06151 5.45674 6.01917 5.47645 5.97251C5.49617 5.92585 5.50646 5.87578 5.50674 5.82515C5.51105 5.18147 5.77816 4.32108 6.34615 3.62877C6.90408 2.94789 7.74636 2.43581 8.92469 2.44296C9.02333 2.43765 9.11621 2.39504 9.18437 2.32384C9.25254 2.25264 9.29085 2.15821 9.2915 2.05983C9.29214 1.96144 9.25506 1.86652 9.18782 1.79445C9.12059 1.72237 9.02827 1.67856 8.92972 1.67198C7.49217 1.66268 6.4359 2.30064 5.74657 3.141C5.06729 3.9692 4.73842 5.00052 4.73267 5.82015C4.73229 5.87083 4.74195 5.92109 4.7611 5.96805C4.78025 6.01501 4.8085 6.05775 4.84425 6.09382C4.88 6.12989 4.92254 6.15859 4.96944 6.17827C5.01633 6.19795 5.06666 6.20822 5.11755 6.2085Z" fill="url(#paint37_radial_269_2695)"/>
<path fillRule="evenodd" clipRule="evenodd" d="M3.92115 4.82564C3.97198 4.82593 4.02236 4.81623 4.06943 4.79712C4.11649 4.77801 4.15932 4.74985 4.19546 4.71425C4.2316 4.67866 4.26034 4.63632 4.28006 4.58965C4.29977 4.54299 4.31006 4.49292 4.31034 4.4423C4.31967 3.07626 5.3587 1.25679 7.51718 1.27109C7.61983 1.27175 7.71854 1.23178 7.79159 1.15995C7.86465 1.08813 7.90606 0.99034 7.90673 0.8881C7.9074 0.785861 7.86726 0.687546 7.79515 0.614782C7.72304 0.542019 7.62486 0.500767 7.52221 0.500103C4.80795 0.482223 3.54776 2.78517 3.53699 4.43729C3.53661 4.48791 3.54625 4.53812 3.56535 4.58503C3.58445 4.63195 3.61264 4.67465 3.64832 4.71072C3.68399 4.74678 3.72645 4.77549 3.77326 4.79521C3.82007 4.81493 3.87033 4.82527 3.92115 4.82564Z" fill="url(#paint38_radial_269_2695)"/>
<path fillRule="evenodd" clipRule="evenodd" d="M3.92115 4.82564C3.97198 4.82593 4.02236 4.81623 4.06943 4.79712C4.11649 4.77801 4.15932 4.74985 4.19546 4.71425C4.2316 4.67866 4.26034 4.63632 4.28006 4.58965C4.29977 4.54299 4.31006 4.49292 4.31034 4.4423C4.31967 3.07626 5.3587 1.25679 7.51718 1.27109C7.61983 1.27175 7.71854 1.23178 7.79159 1.15995C7.86465 1.08813 7.90606 0.99034 7.90673 0.8881C7.9074 0.785861 7.86726 0.687546 7.79515 0.614782C7.72304 0.542019 7.62486 0.500767 7.52221 0.500103C4.80795 0.482223 3.54776 2.78517 3.53699 4.43729C3.53661 4.48791 3.54625 4.53812 3.56535 4.58503C3.58445 4.63195 3.61264 4.67465 3.64832 4.71072C3.68399 4.74678 3.72645 4.77549 3.77326 4.79521C3.82007 4.81493 3.87033 4.82527 3.92115 4.82564Z" fill="url(#paint39_radial_269_2695)"/>
<g filter="url(#filter0_f_269_2695)">
<path d="M5.19278 9.48145C6.58366 10.04 9.7309 11.8752 10.6558 15.964" stroke="#FFC339" stroke-width="2" stroke-linecap="round"/>
</g>
<defs>
<filter id="filter0_f_269_2695" x="2.19238" y="6.48145" width="11.4634" height="12.4824" filterUnits="userSpaceOnUse" color-interpolation-filters="sRGB">
<feFlood flood-opacity="0" result="BackgroundImageFix"/>
<feBlend mode="normal" in="SourceGraphic" in2="BackgroundImageFix" result="shape"/>
<feGaussianBlur stdDeviation="1" result="effect1_foregroundBlur_269_2695"/>
</filter>
<radialGradient id="paint0_radial_269_2695" cx="0" cy="0" r="1" gradientUnits="userSpaceOnUse" gradientTransform="translate(7.53577 9.05697) rotate(119.998) scale(15.0714 9.86564)">
<stop offset="0.003" stop-color="#FFC133"/>
<stop offset="0.698" stop-color="#FFC53F"/>
<stop offset="0.797" stop-color="#FFAD3E"/>
<stop offset="0.945" stop-color="#EC7D58"/>
</radialGradient>
<radialGradient id="paint1_radial_269_2695" cx="0" cy="0" r="1" gradientUnits="userSpaceOnUse" gradientTransform="translate(0.000168525 12.3648) rotate(-86.976) scale(8.93304 3.4358)">
<stop offset="0.003" stop-color="#FFE849"/>
<stop offset="1" stop-color="#FFE647" stop-opacity="0"/>
</radialGradient>
<radialGradient id="paint2_radial_269_2695" cx="0" cy="0" r="1" gradientUnits="userSpaceOnUse" gradientTransform="translate(1.07852 5.97257) rotate(80.2801) scale(4.78455 1.83985)">
<stop offset="0.003" stop-color="#FFE849"/>
<stop offset="1" stop-color="#FFE647" stop-opacity="0"/>
</radialGradient>
<radialGradient id="paint3_radial_269_2695" cx="0" cy="0" r="1" gradientUnits="userSpaceOnUse" gradientTransform="translate(4.00902 8.85331) rotate(180) scale(1.94268 7.84698)">
<stop stop-color="#EE9F2C"/>
<stop offset="1" stop-color="#EE9F2C" stop-opacity="0"/>
</radialGradient>
<radialGradient id="paint4_radial_269_2695" cx="0" cy="0" r="1" gradientUnits="userSpaceOnUse" gradientTransform="translate(3.15597 11.8958) rotate(-85.8981) scale(3.25689 2.2711)">
<stop stop-color="#FFC93D"/>
<stop offset="1" stop-color="#FFC33A" stop-opacity="0"/>
</radialGradient>
<radialGradient id="paint5_radial_269_2695" cx="0" cy="0" r="1" gradientUnits="userSpaceOnUse" gradientTransform="translate(4.98224 6.95142) rotate(28.8793) scale(3.43391 6.88344)">
<stop offset="0.563" stop-color="#F09D2E" stop-opacity="0"/>
<stop offset="1" stop-color="#F09D2E"/>
</radialGradient>
<linearGradient id="paint6_linear_269_2695" x1="6.73789" y1="10.4588" x2="6.73789" y2="8.60997" gradientUnits="userSpaceOnUse">
<stop stop-color="#FFC337"/>
<stop offset="1" stop-color="#FFC337" stop-opacity="0"/>
</linearGradient>
<radialGradient id="paint7_radial_269_2695" cx="0" cy="0" r="1" gradientUnits="userSpaceOnUse" gradientTransform="translate(5.7003 4.22936) rotate(-166.556) scale(2.30715 5.08387)">
<stop stop-color="#FFEC4C"/>
<stop offset="1" stop-color="#FFEC4C" stop-opacity="0"/>
</radialGradient>
<radialGradient id="paint8_radial_269_2695" cx="0" cy="0" r="1" gradientUnits="userSpaceOnUse" gradientTransform="translate(9.46794 3.44407) rotate(146.798) scale(2.25017 1.7418)">
<stop stop-color="#D99F2B"/>
<stop offset="1" stop-color="#D99F2B" stop-opacity="0"/>
</radialGradient>
<linearGradient id="paint9_linear_269_2695" x1="9.11107" y1="7.962" x2="7.99114" y2="7.42211" gradientUnits="userSpaceOnUse">
<stop stop-color="#A85300"/>
<stop offset="0.825" stop-color="#A85300" stop-opacity="0"/>
</linearGradient>
<radialGradient id="paint10_radial_269_2695" cx="0" cy="0" r="1" gradientUnits="userSpaceOnUse" gradientTransform="translate(8.2218 8.00931) rotate(30.7516) scale(3.30976 6.89375)">
<stop offset="0.563" stop-color="#F09D2E" stop-opacity="0"/>
<stop offset="1" stop-color="#F09D2E"/>
</radialGradient>
<linearGradient id="paint11_linear_269_2695" x1="9.88267" y1="11.5889" x2="9.88267" y2="9.70219" gradientUnits="userSpaceOnUse">
<stop stop-color="#FFC337"/>
<stop offset="1" stop-color="#FFC337" stop-opacity="0"/>
</linearGradient>
<radialGradient id="paint12_radial_269_2695" cx="0" cy="0" r="1" gradientUnits="userSpaceOnUse" gradientTransform="translate(8.60381 5.9059) rotate(-146.213) scale(2.19608 6.67586)">
<stop stop-color="#FFEC4C"/>
<stop offset="1" stop-color="#FFEC4C" stop-opacity="0"/>
</radialGradient>
<radialGradient id="paint13_radial_269_2695" cx="0" cy="0" r="1" gradientUnits="userSpaceOnUse" gradientTransform="translate(10.2783 8.61008) rotate(-155.182) scale(2.76892 12.6107)">
<stop offset="0.598" stop-color="#F09D2E" stop-opacity="0"/>
<stop offset="1" stop-color="#F09D2E"/>
</radialGradient>
<radialGradient id="paint14_radial_269_2695" cx="0" cy="0" r="1" gradientUnits="userSpaceOnUse" gradientTransform="translate(12.7915 4.43044) rotate(147.503) scale(2.28804 1.82055)">
<stop stop-color="#D99F2B"/>
<stop offset="1" stop-color="#D99F2B" stop-opacity="0"/>
</radialGradient>
<linearGradient id="paint15_linear_269_2695" x1="11.7819" y1="9.05708" x2="11.0371" y2="8.53434" gradientUnits="userSpaceOnUse">
<stop stop-color="#A85300"/>
<stop offset="0.825" stop-color="#A85300" stop-opacity="0"/>
</linearGradient>
<radialGradient id="paint16_radial_269_2695" cx="0" cy="0" r="1" gradientUnits="userSpaceOnUse" gradientTransform="translate(10.1462 10.8693) rotate(42.5352) scale(2.73982 5.36331)">
<stop offset="0.563" stop-color="#F09D2E" stop-opacity="0"/>
<stop offset="1" stop-color="#F09D2E"/>
</radialGradient>
<linearGradient id="paint17_linear_269_2695" x1="11.7209" y1="13.8725" x2="11.7209" y2="12.2897" gradientUnits="userSpaceOnUse">
<stop stop-color="#FFC337"/>
<stop offset="1" stop-color="#FFC337" stop-opacity="0"/>
</linearGradient>
<radialGradient id="paint18_radial_269_2695" cx="0" cy="0" r="1" gradientUnits="userSpaceOnUse" gradientTransform="translate(10.819 8.52347) rotate(-167.752) scale(2.09014 4.41146)">
<stop stop-color="#FFEC4C"/>
<stop offset="1" stop-color="#FFEC4C" stop-opacity="0"/>
</radialGradient>
<radialGradient id="paint19_radial_269_2695" cx="0" cy="0" r="1" gradientUnits="userSpaceOnUse" gradientTransform="translate(12.0957 11.3735) rotate(-139.896) scale(2.90303 14.8313)">
<stop offset="0.598" stop-color="#F09D2E" stop-opacity="0"/>
<stop offset="1" stop-color="#F09D2E"/>
</radialGradient>
<radialGradient id="paint20_radial_269_2695" cx="0" cy="0" r="1" gradientUnits="userSpaceOnUse" gradientTransform="translate(14.4796 7.8662) rotate(150.594) scale(2.10091 1.57795)">
<stop stop-color="#D99F2B"/>
<stop offset="1" stop-color="#D99F2B" stop-opacity="0"/>
</radialGradient>
<radialGradient id="paint21_radial_269_2695" cx="0" cy="0" r="1" gradientUnits="userSpaceOnUse" gradientTransform="translate(13.3767 11.9843) rotate(-134.35) scale(1.1877 5.36314)">
<stop stop-color="#A85300"/>
<stop offset="0.825" stop-color="#A85300" stop-opacity="0"/>
</radialGradient>
<radialGradient id="paint22_radial_269_2695" cx="0" cy="0" r="1" gradientUnits="userSpaceOnUse" gradientTransform="translate(10.7538 13.9799) rotate(36.5217) scale(2.69466 5.0643)">
<stop offset="0.563" stop-color="#F09D2E" stop-opacity="0"/>
<stop offset="1" stop-color="#F09D2E"/>
</radialGradient>
<radialGradient id="paint23_radial_269_2695" cx="0" cy="0" r="1" gradientUnits="userSpaceOnUse" gradientTransform="translate(11.4762 11.948) rotate(-170.061) scale(2.22432 3.84973)">
<stop stop-color="#FFEC4C"/>
<stop offset="1" stop-color="#FFEC4C" stop-opacity="0"/>
</radialGradient>
<radialGradient id="paint24_radial_269_2695" cx="0" cy="0" r="1" gradientUnits="userSpaceOnUse" gradientTransform="translate(12.846 14.4161) rotate(-145.792) scale(2.87996 13.8839)">
<stop offset="0.598" stop-color="#F09D2E" stop-opacity="0"/>
<stop offset="1" stop-color="#F09D2E"/>
</radialGradient>
<radialGradient id="paint25_radial_269_2695" cx="0" cy="0" r="1" gradientUnits="userSpaceOnUse" gradientTransform="translate(15.4032 11.3802) rotate(155.538) scale(2.15679 1.42746)">
<stop stop-color="#D99F2B"/>
<stop offset="1" stop-color="#D99F2B" stop-opacity="0"/>
</radialGradient>
<linearGradient id="paint26_linear_269_2695" x1="10.636" y1="18.8912" x2="12.4318" y2="15.2037" gradientUnits="userSpaceOnUse">
<stop stop-color="#FFC337"/>
<stop offset="1" stop-color="#FFC337" stop-opacity="0"/>
</linearGradient>
<radialGradient id="paint27_radial_269_2695" cx="0" cy="0" r="1" gradientUnits="userSpaceOnUse" gradientTransform="translate(4.17352 8.11863) rotate(50.8743) scale(12.4461 20.1445)">
<stop offset="0.872" stop-color="#F6814F" stop-opacity="0"/>
<stop offset="1" stop-color="#F7814F"/>
</radialGradient>
<radialGradient id="paint28_radial_269_2695" cx="0" cy="0" r="1" gradientUnits="userSpaceOnUse" gradientTransform="translate(6.77647 8.25237) rotate(103.76) scale(13.2079 14.5434)">
<stop offset="0.853" stop-color="#F6814F" stop-opacity="0"/>
<stop offset="1" stop-color="#F7814F"/>
</radialGradient>
<radialGradient id="paint29_radial_269_2695" cx="0" cy="0" r="1" gradientUnits="userSpaceOnUse" gradientTransform="translate(3.76997 4.90022) rotate(115.649) scale(2.28096 2.03853)">
<stop stop-color="#D99F2B"/>
<stop offset="1" stop-color="#D99F2B" stop-opacity="0"/>
</radialGradient>
<radialGradient id="paint30_radial_269_2695" cx="0" cy="0" r="1" gradientUnits="userSpaceOnUse" gradientTransform="translate(3.80337 9.25775) rotate(30.6458) scale(0.87053 2.68862)">
<stop offset="0.201" stop-color="#B4813D"/>
<stop offset="1" stop-color="#B4813D" stop-opacity="0"/>
</radialGradient>
<radialGradient id="paint31_radial_269_2695" cx="0" cy="0" r="1" gradientUnits="userSpaceOnUse" gradientTransform="translate(17.8586 11.4564) rotate(118.024) scale(3.8026 5.65203)">
<stop stop-color="#419FFD"/>
<stop offset="1" stop-color="#4B6DCB"/>
</radialGradient>
<radialGradient id="paint32_radial_269_2695" cx="0" cy="0" r="1" gradientUnits="userSpaceOnUse" gradientTransform="translate(18.9378 11.7389) rotate(177.624) scale(0.539007 1.12985)">
<stop stop-color="#5486C7"/>
<stop offset="1" stop-color="#5486C7" stop-opacity="0"/>
</radialGradient>
<radialGradient id="paint33_radial_269_2695" cx="0" cy="0" r="1" gradientUnits="userSpaceOnUse" gradientTransform="translate(14.8981 14.8007) rotate(68.1199) scale(0.541916 1.59857)">
<stop stop-color="#5486C7"/>
<stop offset="1" stop-color="#5486C7" stop-opacity="0"/>
</radialGradient>
<radialGradient id="paint34_radial_269_2695" cx="0" cy="0" r="1" gradientUnits="userSpaceOnUse" gradientTransform="translate(17.5785 13.4368) rotate(85.2693) scale(3.00514 5.07276)">
<stop stop-color="#419FFD"/>
<stop offset="1" stop-color="#4B6DCB"/>
</radialGradient>
<radialGradient id="paint35_radial_269_2695" cx="0" cy="0" r="1" gradientUnits="userSpaceOnUse" gradientTransform="translate(20.1348 13.0911) rotate(177.624) scale(0.514154 1.07723)">
<stop stop-color="#5486C7"/>
<stop offset="1" stop-color="#5486C7" stop-opacity="0"/>
</radialGradient>
<radialGradient id="paint36_radial_269_2695" cx="0" cy="0" r="1" gradientUnits="userSpaceOnUse" gradientTransform="translate(8.08169 0.840196) rotate(119.903) scale(3.19524 4.74821)">
<stop stop-color="#419FFD"/>
<stop offset="1" stop-color="#4B6DCB"/>
</radialGradient>
<radialGradient id="paint37_radial_269_2695" cx="0" cy="0" r="1" gradientUnits="userSpaceOnUse" gradientTransform="translate(9.40219 1.99612) rotate(161.209) scale(0.460881 0.739475)">
<stop stop-color="#4D8AC1"/>
<stop offset="1" stop-color="#4D8AC1" stop-opacity="0"/>
</radialGradient>
<radialGradient id="paint38_radial_269_2695" cx="0" cy="0" r="1" gradientUnits="userSpaceOnUse" gradientTransform="translate(6.73091 -0.293055) rotate(119.408) scale(3.96932 5.9004)">
<stop stop-color="#419FFD"/>
<stop offset="1" stop-color="#4B6DCB"/>
</radialGradient>
<radialGradient id="paint39_radial_269_2695" cx="0" cy="0" r="1" gradientUnits="userSpaceOnUse" gradientTransform="translate(7.98968 0.809368) rotate(161.217) scale(0.439606 0.705074)">
<stop stop-color="#4D8AC1"/>
<stop offset="1" stop-color="#4D8AC1" stop-opacity="0"/>
</radialGradient>
</defs>
</svg>
