<svg xmlns="http://www.w3.org/2000/svg" width="18"  height="16" viewBox="0 0 18 16" fill="none">
<path d="M9.96927 15.281C9.89954 15.2114 9.84422 15.1287 9.80648 15.0376C9.76873 14.9466 9.74931 14.849 9.74931 14.7504C9.74931 14.6519 9.76873 14.5543 9.80648 14.4632C9.84422 14.3722 9.89954 14.2894 9.96927 14.2198L15.4396 8.75042L0.749899 8.75042C0.550987 8.75042 0.36022 8.6714 0.219568 8.53075C0.0789165 8.3901 -0.000101089 8.19933 -0.000101089 8.00042C-0.000101089 7.8015 0.0789165 7.61074 0.219568 7.47009C0.36022 7.32943 0.550987 7.25042 0.749899 7.25042L15.4396 7.25042L9.96927 1.78104C9.82854 1.64031 9.74948 1.44944 9.74948 1.25042C9.74948 1.05139 9.82854 0.860523 9.96927 0.719792C10.11 0.579062 10.3009 0.5 10.4999 0.5C10.6989 0.5 10.8898 0.579062 11.0305 0.719792L17.7805 7.46979C17.8503 7.53945 17.9056 7.62216 17.9433 7.71321C17.9811 7.80426 18.0005 7.90186 18.0005 8.00042C18.0005 8.09898 17.9811 8.19657 17.9433 8.28762C17.9056 8.37867 17.8503 8.46139 17.7805 8.53104L11.0305 15.281C10.9609 15.3508 10.8782 15.4061 10.7871 15.4438C10.6961 15.4816 10.5985 15.501 10.4999 15.501C10.4013 15.501 10.3037 15.4816 10.2127 15.4438C10.1216 15.4061 10.0389 15.3508 9.96927 15.281Z" fill="#1F2933"></path>
</svg>