<svg width="32" height="32" viewBox="0 0 32 32" fill="none" xmlns="http://www.w3.org/2000/svg">
<rect x="31.5" y="31.5" width="31" height="31" rx="15.5" transform="rotate(-180 31.5 31.5)" stroke="#E4E7EC"/>
<path fill-rule="evenodd" clip-rule="evenodd" d="M16.5298 24.5307C16.3892 24.6711 16.1986 24.75 15.9998 24.75C15.8011 24.75 15.6105 24.6711 15.4698 24.5307L9.46985 18.5307C9.39616 18.462 9.33706 18.3792 9.29607 18.2872C9.25507 18.1952 9.23303 18.0959 9.23126 17.9952C9.22948 17.8945 9.248 17.7945 9.28572 17.7011C9.32344 17.6077 9.37959 17.5228 9.45081 17.4516C9.52203 17.3804 9.60686 17.3243 9.70025 17.2865C9.79364 17.2488 9.89367 17.2303 9.99437 17.2321C10.0951 17.2338 10.1944 17.2559 10.2864 17.2969C10.3784 17.3379 10.4612 17.397 10.5298 17.4707L15.2498 22.1907L15.2498 8.00066C15.2498 7.80175 15.3289 7.61098 15.4695 7.47033C15.6102 7.32968 15.8009 7.25066 15.9998 7.25066C16.1988 7.25066 16.3895 7.32968 16.5302 7.47033C16.6708 7.61098 16.7498 7.80175 16.7498 8.00066V22.1907L21.4698 17.4707C21.5385 17.397 21.6213 17.3379 21.7133 17.2969C21.8053 17.2559 21.9046 17.2338 22.0053 17.2321C22.106 17.2303 22.2061 17.2488 22.2994 17.2865C22.3928 17.3243 22.4777 17.3804 22.5489 17.4516C22.6201 17.5228 22.6762 17.6077 22.714 17.7011C22.7517 17.7945 22.7702 17.8945 22.7684 17.9952C22.7667 18.0959 22.7446 18.1952 22.7036 18.2872C22.6626 18.3792 22.6035 18.462 22.5298 18.5307L16.5298 24.5307Z" fill="#727F8F"/>
</svg>
