<svg width="33" height="32" viewBox="0 0 33 32" fill="none" xmlns="http://www.w3.org/2000/svg">
<rect x="0.5" width="32" height="32" rx="16" fill="#4779E8"/>
<path d="M24.5 16.75C24.9142 16.75 25.25 16.4142 25.25 16C25.25 15.5858 24.9142 15.25 24.5 15.25V16.75ZM7.96967 15.4697C7.67678 15.7626 7.67678 16.2374 7.96967 16.5303L12.7426 21.3033C13.0355 21.5962 13.5104 21.5962 13.8033 21.3033C14.0962 21.0104 14.0962 20.5355 13.8033 20.2426L9.56066 16L13.8033 11.7574C14.0962 11.4645 14.0962 10.9896 13.8033 10.6967C13.5104 10.4038 13.0355 10.4038 12.7426 10.6967L7.96967 15.4697ZM24.5 15.25L8.5 15.25V16.75L24.5 16.75V15.25Z" fill="white"/>
</svg>
