<svg width="32" height="32" viewBox="0 0 32 32" fill="none" xmlns="http://www.w3.org/2000/svg">
<path d="M0 16C0 7.16344 7.16344 0 16 0C24.8366 0 32 7.16344 32 16C32 24.8366 24.8366 32 16 32C7.16344 32 0 24.8366 0 16Z" fill="#E4E7EC"/>
<path d="M10.7813 24.3327C10.2479 24.3327 9.79398 24.1664 9.41937 23.8338C9.04477 23.5013 8.85747 23.0986 8.85747 22.6259V9.53666H7.66699V8.4798H12.4289V7.66602H19.5718V8.4798H24.3337V9.53666H23.1432V22.6259C23.1432 23.112 22.9598 23.5182 22.5932 23.8444C22.2265 24.1706 21.7686 24.3334 21.2194 24.3327H10.7813ZM21.9527 9.53666H10.0479V22.6259C10.0479 22.8154 10.1166 22.9711 10.2539 23.093C10.3912 23.2149 10.567 23.2758 10.7813 23.2758H21.2206C21.4031 23.2758 21.571 23.2082 21.7241 23.0729C21.8773 22.9376 21.9535 22.7883 21.9527 22.6248V9.53666ZM13.3908 21.1621H14.5813V11.6504H13.3908V21.1621ZM17.4194 21.1621H18.6098V11.6504H17.4194V21.1621Z" fill="#3E4C59"/>
</svg>
