<svg width="33" height="32" viewBox="0 0 33 32" fill="none" xmlns="http://www.w3.org/2000/svg">
<rect x="0.25" width="32" height="32" rx="16" fill="#C8EDC7"/>
<g clip-path="url(#clip0_2113_14553)">
<path d="M16.2517 8.88867C14.8453 8.88867 13.4704 9.30573 12.301 10.0871C11.1316 10.8685 10.2202 11.9791 9.68193 13.2785C9.14371 14.5779 9.00288 16.0077 9.27727 17.3871C9.55165 18.7665 10.2289 20.0336 11.2234 21.0281C12.2179 22.0226 13.485 22.6999 14.8644 22.9743C16.2439 23.2486 17.6737 23.1078 18.973 22.5696C20.2724 22.0314 21.383 21.1199 22.1644 19.9505C22.9458 18.7811 23.3629 17.4062 23.3629 15.9998C23.3629 14.1138 22.6136 12.3051 21.2801 10.9715C19.9465 9.63788 18.1377 8.88867 16.2517 8.88867ZM16.2517 22.222C15.0211 22.222 13.8181 21.8571 12.7949 21.1734C11.7716 20.4897 10.9741 19.5179 10.5032 18.3809C10.0322 17.244 9.90899 15.9929 10.1491 14.7859C10.3892 13.5789 10.9818 12.4702 11.852 11.6C12.7222 10.7298 13.8309 10.1372 15.0378 9.89712C16.2448 9.65703 17.4959 9.78025 18.6329 10.2512C19.7698 10.7221 20.7416 11.5197 21.4253 12.5429C22.109 13.5661 22.474 14.7691 22.474 15.9998C22.474 17.65 21.8184 19.2327 20.6515 20.3996C19.4846 21.5665 17.902 22.222 16.2517 22.222Z" fill="#01C46B"/>
<path d="M20.6966 13.3783C20.6133 13.2955 20.5007 13.249 20.3833 13.249C20.2658 13.249 20.1532 13.2955 20.0699 13.3783L15.1366 18.2894L12.4699 15.6227C12.3886 15.5349 12.2757 15.483 12.1561 15.4784C12.0365 15.4738 11.92 15.5169 11.8321 15.5983C11.7443 15.6796 11.6924 15.7925 11.6878 15.9121C11.6832 16.0317 11.7264 16.1482 11.8077 16.236L15.1366 19.556L20.6966 14.0094C20.7382 13.9681 20.7713 13.9189 20.7939 13.8647C20.8164 13.8106 20.8281 13.7525 20.8281 13.6938C20.8281 13.6351 20.8164 13.5771 20.7939 13.5229C20.7713 13.4687 20.7382 13.4196 20.6966 13.3783Z" fill="#01C46B"/>
</g>
<defs>
<clipPath id="clip0_2113_14553">
<rect width="16" height="16" fill="white" transform="translate(8.25 8)"/>
</clipPath>
</defs>
</svg>
