<svg width="24" height="25" viewBox="0 0 24 25" fill="none" xmlns="http://www.w3.org/2000/svg">
<path d="M19.09 14.9402V19.3802C19.0898 20.0085 18.8401 20.6109 18.3959 21.0551C17.9516 21.4993 17.3492 21.749 16.721 21.7492H5.12002C4.80777 21.7491 4.49863 21.6873 4.21035 21.5673C3.92208 21.4473 3.66035 21.2716 3.44021 21.0501C3.22007 20.8287 3.04586 20.5659 2.92758 20.277C2.80931 19.988 2.74931 19.6785 2.75102 19.3662V7.77824C2.74916 7.46649 2.80919 7.15747 2.92764 6.86909C3.04608 6.58071 3.22059 6.31871 3.44103 6.09826C3.66148 5.87781 3.92348 5.70331 4.21186 5.58487C4.50025 5.46642 4.80927 5.40639 5.12102 5.40824H9.56002" stroke="#1F2933" stroke-width="1.5" stroke-linecap="round" stroke-linejoin="round"/>
<path d="M19.09 9.49486L15.005 5.40886M6.83496 16.3029V14.1379C6.83696 13.7809 6.97896 13.4379 7.22996 13.1849L16.762 3.65286C16.8886 3.52521 17.0392 3.42389 17.2052 3.35474C17.3711 3.2856 17.5492 3.25 17.729 3.25C17.9088 3.25 18.0868 3.2856 18.2527 3.35474C18.4187 3.42389 18.5693 3.52521 18.696 3.65286L20.847 5.80386C20.9749 5.93034 21.0764 6.08093 21.1457 6.24692C21.215 6.4129 21.2507 6.59099 21.2507 6.77086C21.2507 6.95073 21.215 7.12881 21.1457 7.2948C21.0764 7.46079 20.9749 7.61138 20.847 7.73786L11.315 17.2699C11.0614 17.5215 10.7192 17.6634 10.362 17.6649H8.19696C7.83574 17.6649 7.48931 17.5214 7.23388 17.2659C6.97846 17.0105 6.83496 16.6641 6.83496 16.3029Z" stroke="#1F2933" stroke-width="1.5" stroke-linecap="round" stroke-linejoin="round"/>
</svg>
