<svg width="33" height="32" viewBox="0 0 33 32" fill="none" xmlns="http://www.w3.org/2000/svg">
<g clip-path="url(#clip0_741_5088)">
<path d="M16.483 2.2472e-06C12.2425 0.00449721 8.17721 1.69219 5.18029 4.69229C2.18338 7.69238 0.499998 11.7595 0.5 16C0.5 20.2435 2.18571 24.3131 5.18629 27.3137C8.18687 30.3143 12.2565 32 16.5 32C18.5281 32.0001 20.5378 31.6146 22.4219 30.864C21.8863 29.9459 21.3534 29.0262 20.8232 28.105C19.956 29.2122 18.9896 29.9706 17.9806 30.3251C17.7554 30.3478 17.5282 30.3645 17.3 30.377V23.7216H18.2587C17.965 23.2155 17.7271 22.679 17.5493 22.1216H17.3V21.1264C17.0973 20.0534 17.0973 18.952 17.3 17.879V16.8H17.5787C17.7067 16.4084 17.8643 16.0272 18.0501 15.6595C18.1269 15.503 18.2107 15.3507 18.2974 15.2H17.3V9.8784H23.4424C23.548 10.2845 23.644 10.7018 23.7294 11.1286C24.2486 10.9995 24.7793 10.9219 25.3138 10.897C25.2476 10.5558 25.1742 10.2161 25.0936 9.87808H29.5384C29.8926 10.6353 30.1799 11.4221 30.397 12.2294C31.135 12.7019 31.799 13.281 32.3675 13.9478C31.8689 10.092 29.9832 6.54962 27.0631 3.98274C24.1429 1.41585 20.388 8.22508e-05 16.5 2.2472e-06C16.4943 -7.49067e-07 16.4887 -7.49067e-07 16.483 2.2472e-06ZM17.3 1.81824C18.9858 2.10496 20.5966 3.49376 21.8658 5.79808C22.2747 6.5408 22.6402 7.37472 22.9563 8.27808H17.3V1.81824ZM15.7 1.88128V8.27808H10.34C10.6562 7.37472 11.0216 6.5408 11.4306 5.79808C12.6248 3.62912 14.1227 2.27232 15.7 1.88128ZM12.0136 2.31424C11.2699 3.06688 10.6024 3.98464 10.0286 5.02624C9.49104 6.00224 9.02864 7.09568 8.6488 8.27808H4.3432C6.1144 5.49216 8.8152 3.35968 12.0136 2.31424ZM21.4248 2.4624C24.4322 3.55456 26.9672 5.62016 28.6568 8.27808H24.6456C24.2667 7.09568 23.805 6.00224 23.2674 5.02624C22.731 4.05184 22.1109 3.18656 21.4248 2.4624ZM3.46224 9.8784H8.2008C7.8024 11.5302 7.55824 13.3216 7.49584 15.2003H2.12304C2.22244 13.3568 2.67706 11.5498 3.46192 9.87872M9.8536 9.87872H15.7V15.2H9.09744C9.16528 13.3008 9.4312 11.503 9.8536 9.87872ZM2.12304 16.8H7.48688C7.52816 18.6739 7.74928 20.4653 8.12496 22.1216H3.46192C2.67706 20.4505 2.22244 18.6435 2.12304 16.8ZM9.08688 16.8H15.7V22.1216H9.7736C9.3752 20.4896 9.13168 18.6928 9.08688 16.8ZM4.3432 23.7216H8.54672C8.94416 25.0288 9.44272 26.2304 10.0286 27.2944C10.4888 28.1296 11.0104 28.8845 11.5819 29.5402C8.57168 28.449 6.0344 26.3814 4.3432 23.7216ZM10.2293 23.7219H15.7V30.3773C15.6014 30.3718 15.5042 30.3619 15.4062 30.3549C13.9374 29.8749 12.5506 28.5565 11.4306 26.5229C10.9736 25.6928 10.5691 24.751 10.2293 23.7222" fill="#3E4C59"/>
<path d="M25.7805 12.8008C22.0871 12.8008 19.0605 15.8184 19.0605 19.5016C19.0605 20.9288 19.5162 22.2552 20.2877 23.3454L24.9607 31.4235C25.6151 32.2785 26.0503 32.1163 26.5946 31.3787L31.7485 22.6075C31.8525 22.4187 31.9341 22.2184 32.0055 22.0136C32.3326 21.2165 32.5007 20.3632 32.5005 19.5016C32.5005 15.8184 29.4746 12.8008 25.7805 12.8008ZM25.7805 15.9406C27.7697 15.9406 29.3517 17.5185 29.3517 19.5019C29.3517 21.4853 27.7697 23.0625 25.7805 23.0625C23.7917 23.0625 22.2093 21.4849 22.2093 19.5019C22.2093 17.5185 23.7917 15.9406 25.7805 15.9406Z" fill="#3E4C59"/>
</g>
<defs>
<clipPath id="clip0_741_5088">
<rect width="32" height="32" fill="white" transform="translate(0.5)"/>
</clipPath>
</defs>
</svg>
