<svg width="32" height="32" viewBox="0 0 32 32" fill="none" xmlns="http://www.w3.org/2000/svg">
<rect width="32" height="32" rx="16" fill="#FEF9CB"/>
<path d="M22 12.666V15.9993M10 12.666V19.44C10 20.362 11.2973 20.91 13.8913 22.0053C14.9333 22.446 15.4547 22.666 16 22.666V15.5693M18 20.666C18 20.666 18.5833 20.666 19.1667 21.9993C19.1667 21.9993 21.02 18.666 22.6667 17.9993" stroke="#F3CC02" stroke-width="1.5" stroke-linecap="round" stroke-linejoin="round"/>
<path d="M12 15.9997L13.3333 16.6663M19.3333 10.6663L12.6667 13.9997M13.5507 14.4603L11.6033 13.5183C10.5347 13.001 10 12.7423 10 12.333C10 11.9237 10.5347 11.665 11.6033 11.1477L13.55 10.2057C14.7533 9.62367 15.3533 9.33301 16 9.33301C16.6467 9.33301 17.2473 9.62367 18.4493 10.2057L20.3967 11.1477C21.4653 11.665 22 11.9237 22 12.333C22 12.7423 21.4653 13.001 20.3967 13.5183L18.45 14.4603C17.2467 15.0423 16.6467 15.333 16 15.333C15.3533 15.333 14.7527 15.0423 13.5507 14.4603Z" stroke="#F3CC02" stroke-width="1.5" stroke-linecap="round" stroke-linejoin="round"/>
</svg>
