<svg width="56" height="56" viewBox="0 0 56 56" fill="none" xmlns="http://www.w3.org/2000/svg">
<rect width="56" height="56" rx="28" fill="#4779E8"/>
<path d="M37.3337 27.9993C37.3337 28.353 37.1932 28.6921 36.9431 28.9422C36.6931 29.1922 36.3539 29.3327 36.0003 29.3327C35.6467 29.3327 35.3076 29.1922 35.0575 28.9422C34.8075 28.6921 34.667 28.353 34.667 27.9993C34.667 27.6457 34.8075 27.3066 35.0575 27.0565C35.3076 26.8065 35.6467 26.666 36.0003 26.666C36.3539 26.666 36.6931 26.8065 36.9431 27.0565C37.1932 27.3066 37.3337 27.6457 37.3337 27.9993Z" fill="white"/>
<path fill-rule="evenodd" clip-rule="evenodd" d="M25.259 16.334H29.4083C31.859 16.334 33.8003 16.334 35.319 16.538C36.8817 16.7487 38.147 17.1913 39.1457 18.1887C40.3777 19.422 40.771 21.0727 40.9137 23.2153C41.683 23.5527 42.2643 24.2687 42.327 25.1753C42.3337 25.2567 42.3337 25.3433 42.3337 25.4233V30.578C42.3337 30.658 42.3337 30.7447 42.3283 30.8247C42.2643 31.7313 41.683 32.4487 40.9137 32.7873C40.771 34.9287 40.3777 36.5793 39.1457 37.8127C38.147 38.81 36.8817 39.2527 35.319 39.4633C33.799 39.6673 31.859 39.6673 29.4083 39.6673H25.259C22.8083 39.6673 20.867 39.6673 19.3483 39.4633C17.7857 39.2527 16.5203 38.81 15.5217 37.8127C14.5243 36.814 14.0817 35.5487 13.871 33.986C13.667 32.466 13.667 30.526 13.667 28.0753V27.926C13.667 25.4753 13.667 23.534 13.871 22.0153C14.0817 20.4527 14.5243 19.1873 15.5217 18.1887C16.5203 17.1913 17.7857 16.7487 19.3483 16.538C20.8683 16.334 22.8083 16.334 25.259 16.334ZM38.891 33.0007H36.307C33.447 33.0007 30.999 30.83 30.999 28.0007C30.999 25.1713 33.447 23.0007 36.3057 23.0007H38.8897C38.7377 21.2127 38.395 20.2673 37.7297 19.6033C37.1657 19.0393 36.3923 18.7007 35.051 18.5207C33.6817 18.3367 31.875 18.334 29.3323 18.334H25.3323C22.7897 18.334 20.9843 18.3367 19.6123 18.5207C18.2723 18.7007 17.499 19.0393 16.935 19.6033C16.371 20.1673 16.0323 20.9407 15.8523 22.282C15.6683 23.6527 15.6657 25.458 15.6657 28.0007C15.6657 30.5433 15.6683 32.35 15.8523 33.7207C16.0323 35.0607 16.371 35.834 16.935 36.398C17.499 36.962 18.2723 37.3007 19.6137 37.4807C20.9843 37.6647 22.7897 37.6673 25.3323 37.6673H29.3323C31.875 37.6673 33.6817 37.6647 35.0523 37.4807C36.3923 37.3007 37.1657 36.962 37.7297 36.398C38.395 35.734 38.739 34.79 38.891 33.0007ZM19.0003 22.6673C19.0003 22.4021 19.1057 22.1477 19.2932 21.9602C19.4808 21.7727 19.7351 21.6673 20.0003 21.6673H25.3337C25.5989 21.6673 25.8532 21.7727 26.0408 21.9602C26.2283 22.1477 26.3337 22.4021 26.3337 22.6673C26.3337 22.9325 26.2283 23.1869 26.0408 23.3744C25.8532 23.562 25.5989 23.6673 25.3337 23.6673H20.0003C19.7351 23.6673 19.4808 23.562 19.2932 23.3744C19.1057 23.1869 19.0003 22.9325 19.0003 22.6673ZM39.899 25.0007H36.307C34.4083 25.0007 32.999 26.4127 32.999 28.0007C32.999 29.5887 34.4083 31.0007 36.3057 31.0007H39.9297C40.2043 30.9833 40.323 30.798 40.3323 30.686V25.3153C40.323 25.2033 40.2043 25.018 39.9297 25.002L39.899 25.0007Z" fill="white"/>
</svg>
