<svg width="36" height="32" viewBox="0 0 36 32" fill="none" xmlns="http://www.w3.org/2000/svg">
<g clip-path="url(#clip0_1500_1431)">
<path d="M3.88842 20.9845C3.88842 22.8138 4.1902 24.2182 4.58452 25.0678C5.10159 26.1807 5.87264 26.6521 6.65887 26.6521C7.67292 26.6521 8.60063 26.3171 10.3883 23.0269C11.8205 20.3898 13.5082 16.6879 14.6436 14.3673L16.5666 10.4356C17.9024 7.70508 19.4484 4.66975 21.2213 2.61221C22.6682 0.932865 24.2294 0 25.8005 0C28.4383 0 30.9509 2.03415 32.8739 5.84926C34.9784 10.0274 36 15.2902 36 20.7212C36 23.9498 35.5219 26.3222 34.7081 28.1965C33.9218 30.0091 32.3895 31.82 29.8118 31.82V26.6521C32.0189 26.6521 32.5697 23.9532 32.5697 20.8646C32.5697 16.4632 31.7985 11.5784 30.0998 8.08833C28.8941 5.61254 27.3317 4.09993 25.6129 4.09993C23.7538 4.09993 22.2577 5.96566 20.5764 9.29291C19.6826 11.0604 18.7649 13.2145 17.7346 15.645L16.6004 18.319C14.3218 23.695 13.7447 24.9194 12.6055 26.9403C10.6086 30.479 8.90367 31.82 6.65887 31.82C3.99614 31.82 2.31216 30.2855 1.26942 27.9732C0.418078 26.089 0 23.6167 0 20.7996L3.88842 20.9845Z" fill="#0081FB"/>
<path d="M3.06543 6.21399C4.84827 2.55738 7.42087 0 10.3716 0C12.0806 0 13.7794 0.673123 15.5534 2.60061C17.4937 4.70793 19.5619 8.17815 22.1421 13.8975L23.0674 15.9498C25.3006 20.9012 26.5713 23.4483 27.3149 24.6497C28.2715 26.1923 28.9413 26.6521 29.8113 26.6521C32.0184 26.6521 32.5693 23.9532 32.5693 20.8646L35.9995 20.7212C35.9995 23.9498 35.5214 26.3222 34.7076 28.1965C33.9214 30.0091 32.389 31.82 29.8113 31.82C28.2089 31.82 26.7893 31.3568 25.2194 29.3859C24.0125 27.8733 22.6016 25.1861 21.5161 22.7703L18.2874 15.5934C16.6675 11.9916 15.1814 9.3062 14.3215 8.08982C13.3964 6.78213 12.207 5.20271 10.3092 5.20271C8.77312 5.20271 7.46854 6.63729 6.37687 8.83125L3.06543 6.21399Z" fill="url(#paint0_linear_1500_1431)"/>
<path d="M10.3095 5.20271C8.77345 5.20271 7.46887 6.63729 6.3772 8.83125C4.8337 11.9317 3.88842 16.5496 3.88842 20.9845C3.88842 22.8138 4.1902 24.2182 4.58452 25.0678L1.26942 27.9732C0.418078 26.089 0 23.6167 0 20.7996C0 15.6766 1.05666 10.3373 3.06591 6.21399C4.84875 2.55738 7.42134 0 10.3721 0L10.3095 5.20271Z" fill="url(#paint1_linear_1500_1431)"/>
</g>
<defs>
<linearGradient id="paint0_linear_1500_1431" x1="460.125" y1="1779.82" x2="2938.7" y2="1873.89" gradientUnits="userSpaceOnUse">
<stop stop-color="#0064E1"/>
<stop offset="0.4" stop-color="#0064E1"/>
<stop offset="0.83" stop-color="#0073EE"/>
<stop offset="1" stop-color="#0082FB"/>
</linearGradient>
<linearGradient id="paint1_linear_1500_1431" x1="563.359" y1="2315.68" x2="563.359" y2="1099.54" gradientUnits="userSpaceOnUse">
<stop stop-color="#0082FB"/>
<stop offset="1" stop-color="#0064E0"/>
</linearGradient>
<clipPath id="clip0_1500_1431">
<rect width="36" height="32" fill="white"/>
</clipPath>
</defs>
</svg>
