<svg width="23" height="23" viewBox="0 0 23 23" fill="none" xmlns="http://www.w3.org/2000/svg">
<rect x="1.08015" y="11.5" width="15" height="15" rx="7.5" transform="rotate(-45 1.08015 11.5)" stroke="#4779E8"/>
<path d="M8.50485 13.9746C8.30958 14.1698 8.30958 14.4864 8.50485 14.6817C8.70011 14.8769 9.01669 14.8769 9.21195 14.6817L8.50485 13.9746ZM15.0153 8.67127C15.0153 8.39513 14.7914 8.17127 14.5153 8.17127L10.0153 8.17127C9.73911 8.17127 9.51525 8.39513 9.51525 8.67127C9.51525 8.94741 9.73911 9.17127 10.0153 9.17127L14.0153 9.17127L14.0153 13.1713C14.0153 13.4474 14.2391 13.6713 14.5153 13.6713C14.7914 13.6713 15.0153 13.4474 15.0153 13.1713L15.0153 8.67127ZM9.21195 14.6817L14.8688 9.02482L14.1617 8.31772L8.50485 13.9746L9.21195 14.6817Z" fill="#4779E8"/>
</svg>
