<svg width="22" height="23" viewBox="0 0 22 23" fill="none" xmlns="http://www.w3.org/2000/svg">
<path d="M14.6667 20.8841H7.33338C3.09838 20.8841 2.31005 18.9132 2.10838 16.9974L1.42088 9.6549C1.32005 8.6924 1.29255 7.27156 2.24588 6.20823C3.07088 5.29156 4.43671 4.85156 6.41671 4.85156H15.5834C17.5725 4.85156 18.9384 5.30073 19.7542 6.20823C20.7075 7.27156 20.68 8.6924 20.5792 9.66406L19.8917 16.9882C19.69 18.9132 18.9017 20.8841 14.6667 20.8841ZM6.41671 6.2174C4.86755 6.2174 3.80421 6.5199 3.26338 7.1249C2.81421 7.6199 2.66755 8.38073 2.78671 9.5174L3.47421 16.8599C3.63005 18.3082 4.02421 19.5091 7.33338 19.5091H14.6667C17.9667 19.5091 18.37 18.3082 18.5259 16.8507L19.2134 9.52656C19.3325 8.38073 19.1859 7.6199 18.7367 7.1249C18.1959 6.5199 17.1325 6.2174 15.5834 6.2174H6.41671Z" fill="white"/>
<path d="M14.6663 6.21745C14.2905 6.21745 13.9788 5.90578 13.9788 5.52995V4.79661C13.9788 3.16495 13.9788 2.55078 11.733 2.55078H10.2663C8.02051 2.55078 8.02051 3.16495 8.02051 4.79661V5.52995C8.02051 5.90578 7.70884 6.21745 7.33301 6.21745C6.95717 6.21745 6.64551 5.90578 6.64551 5.52995V4.79661C6.64551 3.18328 6.64551 1.17578 10.2663 1.17578H11.733C15.3538 1.17578 15.3538 3.18328 15.3538 4.79661V5.52995C15.3538 5.90578 15.0422 6.21745 14.6663 6.21745Z" fill="white"/>
<path d="M11.0003 15.3854C8.47949 15.3854 8.47949 13.8271 8.47949 12.8921V11.9479C8.47949 10.6554 8.79116 10.3438 10.0837 10.3438H11.917C13.2095 10.3438 13.5212 10.6554 13.5212 11.9479V12.8646C13.5212 13.8179 13.5212 15.3854 11.0003 15.3854ZM9.85449 11.7188C9.85449 11.7921 9.85449 11.8746 9.85449 11.9479V12.8921C9.85449 13.8363 9.85449 14.0104 11.0003 14.0104C12.1462 14.0104 12.1462 13.8638 12.1462 12.8829V11.9479C12.1462 11.8746 12.1462 11.7921 12.1462 11.7188C12.0728 11.7188 11.9903 11.7188 11.917 11.7188H10.0837C10.0103 11.7188 9.92783 11.7188 9.85449 11.7188Z" fill="white"/>
<path d="M12.8329 13.5708C12.4937 13.5708 12.1912 13.3141 12.1546 12.9658C12.1087 12.59 12.3746 12.2416 12.7504 12.1958C15.1704 11.8933 17.4896 10.9766 19.4421 9.5558C19.7446 9.32663 20.1754 9.39997 20.4046 9.71163C20.6246 10.0141 20.5604 10.445 20.2487 10.6741C18.1037 12.2325 15.5737 13.2316 12.9154 13.5708C12.8879 13.5708 12.8604 13.5708 12.8329 13.5708Z" fill="white"/>
<path d="M9.16635 13.5784C9.13885 13.5784 9.11135 13.5784 9.08385 13.5784C6.57219 13.2943 4.12469 12.3776 2.00719 10.9293C1.69552 10.7184 1.61302 10.2876 1.82385 9.97594C2.03469 9.66427 2.46552 9.58177 2.77719 9.7926C4.71135 11.1126 6.93885 11.9468 9.23052 12.2126C9.60635 12.2584 9.88135 12.5976 9.83552 12.9734C9.80802 13.3218 9.51469 13.5784 9.16635 13.5784Z" fill="white"/>
</svg>
