<svg width="42" height="43" viewBox="0 0 42 43" fill="none" xmlns="http://www.w3.org/2000/svg">
<path d="M21 41.668C32.0457 41.668 41 32.7137 41 21.668C41 10.6223 32.0457 1.66797 21 1.66797C9.9543 1.66797 1 10.6223 1 21.668C1 32.7137 9.9543 41.668 21 41.668Z" stroke="#4779E8" stroke-width="2"/>
<path d="M27 11.273C25.1757 10.2208 23.1066 9.66726 21.0006 9.66797C18.8946 9.66868 16.8259 10.2236 15.0023 11.277C13.1787 12.3304 11.6645 13.8452 10.6117 15.6691C9.55891 17.4931 9.00467 19.562 9.00467 21.668C9.00467 23.774 9.55891 25.8428 10.6117 27.6668C11.6645 29.4908 13.1787 31.0055 15.0023 32.0589C16.8259 33.1123 18.8946 33.6673 21.0006 33.668C23.1066 33.6687 25.1757 33.1151 27 32.063M7 18.667H17M7 24.667H17" stroke="#4779E8" stroke-width="2" stroke-linecap="round"/>
</svg>
