<svg width="18" height="19" viewBox="0 0 18 19" fill="none" xmlns="http://www.w3.org/2000/svg">
<path d="M9 0.78125C10.8394 0.78125 12.2713 0.86478 13.3913 1.08025C14.5074 1.29498 15.2578 1.63063 15.7834 2.09389C16.8275 3.01426 17.25 4.67759 17.25 8.03126C17.25 10.1924 17.056 11.7826 16.5335 12.8186C16.2828 13.3158 15.9653 13.666 15.5657 13.899C15.1619 14.1344 14.6205 14.2812 13.8752 14.2812C12.9143 14.2812 12.1931 14.497 11.6292 14.8791C11.0787 15.2521 10.7467 15.7404 10.4998 16.129C10.4624 16.1878 10.4274 16.2433 10.3943 16.2959C10.1872 16.6246 10.0532 16.8374 9.86718 17.0043C9.70137 17.1531 9.46967 17.2813 9.0002 17.2812C8.53077 17.2812 8.29907 17.153 8.13325 17.0043C7.94721 16.8373 7.81322 16.6246 7.60615 16.2959C7.57302 16.2433 7.53803 16.1877 7.50065 16.1289C7.25365 15.7403 6.92163 15.252 6.37118 14.8791C5.80723 14.497 5.08605 14.2812 4.12518 14.2812C3.38381 14.2812 2.84413 14.1307 2.44041 13.8904C2.03973 13.6519 1.72015 13.2936 1.4678 12.7889C0.94355 11.7403 0.75 10.1473 0.75 8.03126C0.75 4.72021 1.17131 3.05255 2.21896 2.12131C2.74606 1.65277 3.49764 1.31081 4.61238 1.09059C5.73116 0.86958 7.16216 0.78125 9 0.78125Z" stroke="white" stroke-width="1.5" stroke-linecap="round" stroke-linejoin="round"/>
</svg>
