<svg width="32" height="33" viewBox="0 0 32 33" fill="none" xmlns="http://www.w3.org/2000/svg">
<path d="M16.0026 19.1663V21.833C13.8809 21.833 11.846 22.6759 10.3458 24.1762C8.84546 25.6764 8.0026 27.7113 8.0026 29.833H5.33594C5.33594 27.004 6.45974 24.2909 8.46013 22.2905C10.4605 20.2901 13.1736 19.1663 16.0026 19.1663ZM16.0026 17.833C11.5826 17.833 8.0026 14.253 8.0026 9.83301C8.0026 5.41301 11.5826 1.83301 16.0026 1.83301C20.4226 1.83301 24.0026 5.41301 24.0026 9.83301C24.0026 14.253 20.4226 17.833 16.0026 17.833ZM16.0026 15.1663C18.9493 15.1663 21.3359 12.7797 21.3359 9.83301C21.3359 6.88634 18.9493 4.49967 16.0026 4.49967C13.0559 4.49967 10.6693 6.88634 10.6693 9.83301C10.6693 12.7797 13.0559 15.1663 16.0026 15.1663ZM28.0026 23.1663H29.3359V29.833H18.6693V23.1663H20.0026V21.833C20.0026 20.7721 20.424 19.7547 21.1742 19.0046C21.9243 18.2544 22.9417 17.833 24.0026 17.833C25.0635 17.833 26.0809 18.2544 26.831 19.0046C27.5812 19.7547 28.0026 20.7721 28.0026 21.833V23.1663ZM25.3359 23.1663V21.833C25.3359 21.4794 25.1955 21.1402 24.9454 20.8902C24.6954 20.6402 24.3562 20.4997 24.0026 20.4997C23.649 20.4997 23.3098 20.6402 23.0598 20.8902C22.8097 21.1402 22.6693 21.4794 22.6693 21.833V23.1663H25.3359Z" fill="#171C20"/>
</svg>
