<svg width="40" height="40" viewBox="0 0 40 40" fill="none" xmlns="http://www.w3.org/2000/svg">
<path d="M0 4C0 1.79086 1.79086 0 4 0H36C38.2091 0 40 1.79086 40 4V36C40 38.2091 38.2091 40 36 40H4C1.79086 40 0 38.2091 0 36V4Z" fill="#4779E8"/>
<path d="M27.0218 5.5C27.0218 5.10218 27.1798 4.72064 27.4611 4.43934C27.7424 4.15804 28.124 4 28.5218 4H33.5218C33.9196 4 34.3011 4.15804 34.5825 4.43934C34.8638 4.72064 35.0218 5.10218 35.0218 5.5V10.5C35.0218 10.8978 34.8638 11.2794 34.5825 11.5607C34.3011 11.842 33.9196 12 33.5218 12C33.124 12 32.7424 11.842 32.4611 11.5607C32.1798 11.2794 32.0218 10.8978 32.0218 10.5V9.12L23.0818 18.06C22.8005 18.3409 22.4193 18.4987 22.0218 18.4987C21.6243 18.4987 21.243 18.3409 20.9618 18.06L16.0218 13.12L7.58179 21.56C7.44447 21.7074 7.27887 21.8256 7.09487 21.9076C6.91087 21.9895 6.71224 22.0336 6.51084 22.0372C6.30943 22.0407 6.10937 22.0037 5.9226 21.9282C5.73582 21.8528 5.56615 21.7405 5.42371 21.5981C5.28128 21.4556 5.16899 21.286 5.09355 21.0992C5.0181 20.9124 4.98105 20.7124 4.98461 20.511C4.98816 20.3095 5.03225 20.1109 5.11423 19.9269C5.19621 19.7429 5.31442 19.5773 5.46179 19.44L14.9618 9.94C15.243 9.6591 15.6243 9.50132 16.0218 9.50132C16.4193 9.50132 16.8005 9.6591 17.0818 9.94L22.0218 14.88L29.9018 7H28.5218C28.124 7 27.7424 6.84196 27.4611 6.56066C27.1798 6.27936 27.0218 5.89782 27.0218 5.5ZM6.52179 28C6.91962 28 7.30115 28.158 7.58245 28.4393C7.86376 28.7206 8.02179 29.1022 8.02179 29.5V34.5C8.02179 34.8978 7.86376 35.2794 7.58245 35.5607C7.30115 35.842 6.91962 36 6.52179 36C6.12397 36 5.74244 35.842 5.46113 35.5607C5.17983 35.2794 5.02179 34.8978 5.02179 34.5V29.5C5.02179 29.1022 5.17983 28.7206 5.46113 28.4393C5.74244 28.158 6.12397 28 6.52179 28ZM16.0218 23.5C16.0218 23.1022 15.8638 22.7206 15.5825 22.4393C15.3011 22.158 14.9196 22 14.5218 22C14.124 22 13.7424 22.158 13.4611 22.4393C13.1798 22.7206 13.0218 23.1022 13.0218 23.5V34.5C13.0218 34.8978 13.1798 35.2794 13.4611 35.5607C13.7424 35.842 14.124 36 14.5218 36C14.9196 36 15.3011 35.842 15.5825 35.5607C15.8638 35.2794 16.0218 34.8978 16.0218 34.5V23.5ZM22.5218 26C22.9196 26 23.3011 26.158 23.5825 26.4393C23.8638 26.7206 24.0218 27.1022 24.0218 27.5V34.5C24.0218 34.8978 23.8638 35.2794 23.5825 35.5607C23.3011 35.842 22.9196 36 22.5218 36C22.124 36 21.7424 35.842 21.4611 35.5607C21.1798 35.2794 21.0218 34.8978 21.0218 34.5V27.5C21.0218 27.1022 21.1798 26.7206 21.4611 26.4393C21.7424 26.158 22.124 26 22.5218 26ZM32.0218 19.5C32.0218 19.1022 31.8638 18.7206 31.5825 18.4393C31.3011 18.158 30.9196 18 30.5218 18C30.124 18 29.7424 18.158 29.4611 18.4393C29.1798 18.7206 29.0218 19.1022 29.0218 19.5V34.5C29.0218 34.8978 29.1798 35.2794 29.4611 35.5607C29.7424 35.842 30.124 36 30.5218 36C30.9196 36 31.3011 35.842 31.5825 35.5607C31.8638 35.2794 32.0218 34.8978 32.0218 34.5V19.5Z" fill="white"/>
</svg>
