<svg width="17" height="17" viewBox="0 0 17 17" fill="none" xmlns="http://www.w3.org/2000/svg">
<path d="M0.789604 5.43655H4.1097V16.1182H0.789604V5.43655ZM2.4504 0.126953C2.9605 0.127353 3.4496 0.330353 3.8103 0.691153C4.171 1.05195 4.3737 1.54115 4.374 2.05125C4.3739 2.56155 4.1713 3.05095 3.8106 3.41185C3.4499 3.77285 2.9607 3.97585 2.4504 3.97635C1.9398 3.97635 1.4501 3.77355 1.089 3.41255C0.727905 3.05155 0.525002 2.56185 0.524902 2.05125C0.525202 1.54075 0.728203 1.05135 1.0892 0.690453C1.4503 0.329653 1.9399 0.126953 2.4504 0.126953ZM6.19151 5.43655H9.3755V6.89235H9.4194C9.8587 6.05265 10.9459 5.16715 12.5602 5.16715C15.922 5.16715 16.5429 7.37965 16.5429 10.2554V16.1142H13.226V10.9162C13.226 9.67735 13.2033 8.08395 11.5008 8.08395C9.773 8.08395 9.5083 9.43325 9.5083 10.8265V16.1105H6.1919V5.42885L6.19151 5.43655Z" fill="white"/>
</svg>
