<svg width="94" height="27" viewBox="0 0 94 27" fill="none" xmlns="http://www.w3.org/2000/svg">
<mask id="mask0_269_2397" style="mask-type:luminance" maskUnits="userSpaceOnUse" x="0" y="0" width="94" height="27">
<path d="M93.8335 0H0.833496V27H93.8335V0Z" fill="white"/>
</mask>
<g mask="url(#mask0_269_2397)">
<path d="M18.6065 9.74683C20.3558 10.9915 22.5 11.725 24.8139 11.725V7.28883C24.3766 7.28883 23.9393 7.24283 23.5093 7.15273V10.644C21.1935 10.644 19.0512 9.91043 17.3019 8.66583V17.7185C17.3019 22.2467 13.6151 25.9181 9.06846 25.9181C7.37086 25.9181 5.79496 25.407 4.48486 24.5319C5.97956 26.0542 8.06466 26.9992 10.3731 26.9992C14.9216 26.9992 18.6084 23.3277 18.6084 18.7995V9.74683H18.6065ZM20.2156 5.27193C19.3206 4.29943 18.7338 3.04193 18.6065 1.65203V1.08203H17.3702C17.6821 2.84883 18.7412 4.35823 20.2137 5.27193H20.2156ZM7.35976 21.0572C6.85966 20.4045 6.59026 19.6066 6.59216 18.7866C6.59216 16.7147 8.27866 15.0361 10.3583 15.0361C10.7458 15.0361 11.1315 15.095 11.5005 15.2126V10.6771C11.0687 10.6183 10.6332 10.5925 10.1978 10.6017V14.1316C9.82866 14.0139 9.44306 13.9551 9.05366 13.9551C6.97406 13.9551 5.28756 15.6336 5.28756 17.7056C5.28756 19.1709 6.13086 20.4376 7.35976 21.0572Z" fill="#FF004F"/>
<path d="M17.3024 8.66763C19.0516 9.91233 21.1958 10.6458 23.5097 10.6458V7.15453C22.2181 6.88063 21.074 6.20773 20.2141 5.27193C18.7416 4.35643 17.6806 2.84703 17.3706 1.08203H14.1249V18.8014C14.1175 20.8678 12.4346 22.539 10.3587 22.539C9.13529 22.539 8.04849 21.958 7.36019 21.059C6.13129 20.4413 5.28799 19.1727 5.28799 17.7093C5.28799 15.6373 6.97459 13.9588 9.05409 13.9588C9.45269 13.9588 9.83649 14.0213 10.1982 14.1353V10.6054C5.73089 10.6973 2.13818 14.332 2.13818 18.8032C2.13818 21.0351 3.03312 23.0574 4.48529 24.5356C5.79539 25.4107 7.37309 25.9218 9.06889 25.9218C13.6174 25.9218 17.3024 22.2504 17.3024 17.7222V8.66953V8.66763Z" fill="#171C20"/>
<path d="M23.5096 7.1517V6.2067C22.3453 6.2067 21.2012 5.8832 20.214 5.2691C21.0887 6.2233 22.242 6.8815 23.5096 7.1517ZM17.3705 1.0792C17.341 0.910101 17.3189 0.740901 17.3022 0.569901V0H12.822V17.7193C12.8146 19.7839 11.1318 21.457 9.0559 21.457C8.447 21.457 7.8712 21.3136 7.362 21.0562C8.0502 21.9552 9.1371 22.5362 10.3605 22.5362C12.4364 22.5362 14.1192 20.8631 14.1266 18.7985V1.0792H17.3724H17.3705ZM10.1981 10.6007V9.5951C9.82349 9.5436 9.4471 9.5178 9.0688 9.5178C4.5203 9.5178 0.833496 13.1893 0.833496 17.7175C0.833496 20.5561 2.28201 23.0583 4.4834 24.5309C3.03118 23.0528 2.13624 21.0286 2.13624 18.7985C2.13624 14.3273 5.7289 10.6926 10.1962 10.6007H10.1981Z" fill="#00F2EA"/>
<path d="M75.431 22.2075C78.6842 22.2075 81.3229 19.6005 81.3229 16.385C81.3229 13.1695 78.6842 10.5625 75.431 10.5625H74.5435C77.7966 10.5625 80.4353 13.1695 80.4353 16.385C80.4353 19.6005 77.7966 22.2075 74.5435 22.2075H75.431Z" fill="#FF004F"/>
<path d="M74.4625 10.5605H73.5749C70.3218 10.5605 67.6831 13.1675 67.6831 16.383C67.6831 19.5985 70.3218 22.2055 73.5749 22.2055H74.4625C71.2075 22.2055 68.5706 19.5985 68.5706 16.383C68.5706 13.1675 71.2093 10.5605 74.4625 10.5605Z" fill="#00F2EA"/>
<path d="M29.6689 7.92963V10.8803H33.138V22.1264H36.6089V10.9594H39.4339L40.4027 7.92773H29.6689V7.92963ZM58.0782 7.92963V10.8803H61.5473V22.1264H65.0182V10.9594H67.8432L68.812 7.92773H58.0782V7.92963ZM41.0485 9.60443C41.0485 8.67973 41.8069 7.92963 42.7425 7.92963C43.678 7.92963 44.4382 8.67973 44.4382 9.60443C44.4382 10.5292 43.6798 11.2793 42.7425 11.2793C41.8069 11.2793 41.0485 10.5292 41.0485 9.60443ZM41.0485 12.4761H44.4364V22.1282H41.0485V12.4761ZM45.8904 7.92963V22.1282H49.2801V18.4586L50.3301 17.5007L53.6386 22.2073H57.27L52.5075 15.3479L56.7847 11.2002H52.668L49.2783 14.55V7.92963H45.8886H45.8904ZM82.452 7.92963V22.1282H85.8417V18.4586L86.8898 17.5007L90.2001 22.2073H93.8316L89.069 15.3479L93.3463 11.2002H89.2295L85.8398 14.55V7.92963H82.4501H82.452Z" fill="#171C20"/>
<path d="M74.5434 22.2075C77.7965 22.2075 80.4352 19.6005 80.4352 16.385C80.4352 13.1695 77.7965 10.5625 74.5434 10.5625H74.4622C71.209 10.5625 68.5703 13.1695 68.5703 16.385C68.5703 19.6005 71.209 22.2075 74.4622 22.2075H74.5434ZM71.6371 16.385C71.6371 14.8204 72.9214 13.5537 74.5028 13.5537C76.0841 13.5537 77.3684 14.8204 77.3684 16.385C77.3684 17.9495 76.086 19.2163 74.5028 19.2163C72.9195 19.2163 71.6371 17.9477 71.6371 16.385Z" fill="#171C20"/>
</g>
</svg>
