<svg width="74" height="36" viewBox="0 0 74 36" fill="none" xmlns="http://www.w3.org/2000/svg">
<path d="M8.87901 9.83398L16.086 19.4863L8.8335 27.334H10.4657L16.8152 20.4632L21.9455 27.334H27.5001L19.8876 17.1388L26.6382 9.83398H25.006L19.1583 16.1619L14.4336 9.83398H8.87901ZM11.2793 11.0383H13.8311L25.0994 26.1295H22.5476L11.2793 11.0383Z" fill="#171C20"/>
<path d="M43.7668 19.5336H48.2512L46.0461 13.3631H46.0091L43.7668 19.5336ZM45.0826 11.7695H47.0282L52.1981 25H50.2523L48.8071 21.016H43.211L41.7285 25H39.9312L45.0826 11.7695ZM54.3927 20.2934C54.3927 20.7381 54.4483 21.1766 54.5595 21.609C54.6831 22.029 54.8622 22.4058 55.0969 22.7393C55.344 23.0729 55.6528 23.3385 56.0233 23.5361C56.4062 23.7338 56.8511 23.8326 57.3576 23.8326C57.8888 23.8326 58.3397 23.7276 58.7103 23.5176C59.0809 23.3076 59.3835 23.0358 59.6182 22.7023C59.8529 22.3564 60.0196 21.9672 60.1185 21.5349C60.2297 21.1025 60.2853 20.664 60.2853 20.2192C60.2853 19.7498 60.2297 19.2989 60.1185 18.8665C60.0074 18.4218 59.8281 18.0327 59.5812 17.6992C59.3465 17.3656 59.0376 17.1 58.6547 16.9024C58.2717 16.6924 57.8085 16.5874 57.2649 16.5874C56.7337 16.5874 56.2828 16.6924 55.9122 16.9024C55.5416 17.1124 55.2451 17.3903 55.0228 17.7362C54.8004 18.0821 54.6398 18.4774 54.541 18.9221C54.4422 19.3669 54.3927 19.8239 54.3927 20.2934ZM61.8048 25H60.2297V23.7029H60.1926C59.9331 24.2341 59.5256 24.617 58.9697 24.8518C58.4137 25.0865 57.8023 25.2038 57.1352 25.2038C56.394 25.2038 55.7454 25.0679 55.1895 24.7962C54.646 24.5244 54.1889 24.16 53.8183 23.7029C53.4601 23.2458 53.1883 22.7146 53.003 22.1093C52.8177 21.504 52.725 20.8616 52.725 20.1822C52.725 19.5027 52.8115 18.8604 52.9845 18.2551C53.1698 17.6497 53.4415 17.1247 53.7998 16.68C54.1704 16.2229 54.6275 15.8647 55.171 15.6053C55.7269 15.3335 56.3693 15.1976 57.0981 15.1976C57.3452 15.1976 57.6108 15.2223 57.8949 15.2717C58.1791 15.3211 58.4632 15.4076 58.7472 15.5311C59.0313 15.6423 59.297 15.7967 59.5441 15.9944C59.8035 16.1797 60.0196 16.4144 60.1926 16.6985H60.2297V11.7695H61.8048V25ZM65.1916 21.9796C65.2039 22.3255 65.2841 22.622 65.4324 22.869C65.5806 23.1038 65.7722 23.2952 66.0069 23.4435C66.254 23.5794 66.5257 23.6782 66.8222 23.74C67.1311 23.8017 67.4461 23.8326 67.7673 23.8326C68.0142 23.8326 68.2736 23.8141 68.5454 23.777C68.8172 23.74 69.0644 23.672 69.2867 23.5732C69.5214 23.4744 69.7129 23.3323 69.8612 23.147C70.0094 22.9493 70.0835 22.7023 70.0835 22.4058C70.0835 21.9981 69.9291 21.6893 69.6203 21.4793C69.3114 21.2693 68.9223 21.1025 68.4529 20.979C67.9958 20.8431 67.4955 20.7257 66.9519 20.6269C66.4083 20.5157 65.9018 20.3675 65.4324 20.1822C64.9753 19.9845 64.5924 19.7128 64.2836 19.3669C63.9748 19.021 63.8204 18.5392 63.8204 17.9215C63.8204 17.4397 63.9254 17.0259 64.1354 16.68C64.3577 16.3341 64.6357 16.0562 64.9692 15.8462C65.3151 15.6238 65.698 15.4632 66.118 15.3644C66.5504 15.2532 66.9766 15.1976 67.3967 15.1976C67.9402 15.1976 68.4405 15.247 68.8976 15.3458C69.3547 15.4323 69.7561 15.5929 70.102 15.8276C70.4603 16.05 70.7444 16.3588 70.9544 16.7541C71.1644 17.1371 71.288 17.6189 71.325 18.1995H69.75C69.7253 17.8906 69.6449 17.6374 69.509 17.4397C69.3731 17.2297 69.2001 17.063 68.9902 16.9394C68.7802 16.8159 68.5454 16.7294 68.286 16.68C68.0389 16.6182 67.7858 16.5874 67.5264 16.5874C67.2917 16.5874 67.0508 16.6059 66.8036 16.6429C66.569 16.68 66.3528 16.7479 66.1551 16.8468C65.9575 16.9332 65.7969 17.0568 65.6734 17.2174C65.5498 17.3656 65.4881 17.5633 65.4881 17.8103C65.4881 18.0821 65.5807 18.3106 65.766 18.4959C65.9637 18.6689 66.2106 18.8171 66.5071 18.9407C66.8036 19.0519 67.1372 19.1507 67.5078 19.2372C67.8784 19.3113 68.249 19.3916 68.6196 19.478C69.0149 19.5645 69.3978 19.6695 69.7684 19.7931C70.1514 19.9166 70.485 20.0834 70.7691 20.2934C71.0655 20.491 71.3003 20.7443 71.4733 21.0531C71.6586 21.3619 71.7512 21.7449 71.7512 22.202C71.7512 22.7826 71.6277 23.2644 71.3806 23.6473C71.1459 24.0303 70.8309 24.3391 70.4356 24.5738C70.0526 24.8085 69.614 24.9691 69.1199 25.0556C68.6381 25.1544 68.1564 25.2038 67.6746 25.2038C67.1434 25.2038 66.6369 25.1482 66.1551 25.0371C65.6734 24.9259 65.2471 24.7468 64.8765 24.4997C64.5059 24.2403 64.2095 23.9067 63.9871 23.4991C63.7648 23.0791 63.6412 22.5726 63.6165 21.9796H65.1916Z" fill="#555555"/>
</svg>
