<svg width="105" height="28" viewBox="0 0 105 28" fill="none" xmlns="http://www.w3.org/2000/svg">
<mask id="mask0_269_2370" style="mask-type:luminance" maskUnits="userSpaceOnUse" x="0" y="0" width="105" height="28">
<path d="M104.167 0.517578H0.166504V27.4806H104.167V0.517578Z" fill="white"/>
</mask>
<g mask="url(#mask0_269_2370)">
<path d="M26.7964 22.0876V5.91446H31.3408C32.7217 5.91446 33.8173 6.25556 34.6278 6.94116C35.4367 7.62496 35.8419 8.51656 35.8419 9.61416C35.8419 10.531 35.5968 11.328 35.1065 12.0052C34.6162 12.6823 33.9408 13.1635 33.0802 13.4489V13.4945C34.1559 13.6228 35.0181 14.0348 35.6651 14.7288C36.3105 15.4245 36.6341 16.3296 36.6341 17.4423C36.6341 18.8253 36.1438 19.9465 35.1632 20.8026C34.1826 21.6604 32.9468 22.0893 31.4542 22.0893H26.7981L26.7964 22.0876ZM28.6675 7.62836V12.8494H30.5837C31.6093 12.8494 32.4148 12.5995 33.0018 12.0997C33.5889 11.5999 33.8824 10.8941 33.8824 9.98556C33.8824 8.41356 32.8618 7.62836 30.8189 7.62836H28.6692H28.6675ZM28.6675 14.5532V20.3737H31.2074C32.3064 20.3737 33.1586 20.1103 33.764 19.5834C34.3693 19.0566 34.6729 18.3356 34.6729 17.4187C34.6729 15.5089 33.3888 14.5532 30.8189 14.5532H28.6692H28.6675ZM41.1501 6.75536C41.1501 6.42776 41.0351 6.14746 40.8083 5.91616C40.5798 5.68486 40.2946 5.56836 39.9561 5.56836C39.6175 5.56836 39.334 5.68656 39.1089 5.92126C38.8838 6.15596 38.7704 6.43456 38.7704 6.75536C38.7704 7.11336 38.8838 7.40376 39.1139 7.62326C39.3424 7.84446 39.6225 7.95426 39.9561 7.95426C40.2896 7.95426 40.5598 7.84116 40.7966 7.61316C41.0317 7.38526 41.1501 7.09986 41.1501 6.75536ZM40.84 10.6087H39.0255V22.0825H40.84V10.6087ZM53.2725 15.0615C53.2725 13.5536 52.9457 12.3868 52.2936 11.5661C51.6399 10.7455 50.691 10.3335 49.4435 10.3335C47.8125 10.3335 46.5734 11.0613 45.7246 12.5185H45.6796V10.6138H43.8651V22.0876H45.6796V15.5444C45.6796 14.484 45.9798 13.6127 46.5818 12.9288C47.1838 12.2449 47.9309 11.9038 48.8231 11.9038C50.5792 11.9038 51.4564 13.1179 51.4564 15.5444V22.0876H53.2709V15.0631L53.2725 15.0615ZM66.0837 21.1673C66.0837 25.3718 64.0925 27.4758 60.1084 27.4758C58.7208 27.4758 57.4968 27.2107 56.4345 26.6805L56.9097 25.0932C58.0238 25.6758 58.9176 25.9172 60.075 25.9172C62.87 25.9172 64.2692 24.4195 64.2692 21.424V20.1575H64.2242C63.3603 21.63 62.0629 22.3645 60.3302 22.3645C59.4163 22.3645 58.5991 22.1332 57.8853 21.6688C57.1699 21.2061 56.6162 20.5459 56.226 19.6864C55.8341 18.827 55.639 17.8375 55.639 16.7162C55.639 14.7592 56.1093 13.2057 57.0498 12.0558C57.9904 10.9059 59.2495 10.3301 60.8288 10.3301C62.4081 10.3301 63.4887 10.9515 64.2259 12.1892H64.2709V10.6087H66.0853V21.1639L66.0837 21.1673ZM64.2692 16.8986V15.2067C64.2692 14.2797 63.9557 13.4978 63.3287 12.8596C62.7016 12.2213 61.9528 11.9022 61.0823 11.9022C59.9533 11.9022 59.0744 12.3159 58.444 13.1466C57.812 13.9757 57.4968 15.1307 57.4968 16.6082C57.4968 17.8628 57.8003 18.8742 58.404 19.6442C59.0077 20.4142 59.8165 20.7975 60.8271 20.7975C61.8377 20.7975 62.6632 20.4328 63.3053 19.705C63.9474 18.9772 64.2676 18.0401 64.2676 16.8986" fill="#F4BD27"/>
<path d="M6.9973 9.40948L9.3071 15.2452L12.9943 16.9844L5.4914 21.3561V2.40538L0.166504 0.517578V24.4597L5.4931 27.4805L18.8079 19.725V13.5955L6.9973 9.40948Z" fill="#F4BD27"/>
<path d="M80.8718 22.1387V19.8203H80.8268C80.4616 20.6122 79.9279 21.2438 79.2241 21.7149C78.5204 22.186 77.7516 22.4224 76.9177 22.4224C75.8671 22.4224 75.0166 22.1201 74.3645 21.5173C73.7124 20.9145 73.3872 20.1259 73.3872 19.1533C73.3872 17.1254 74.7097 15.9028 77.353 15.4875L80.8718 14.9556C80.8718 12.4666 79.9479 11.2221 78.1018 11.2221C76.8427 11.2221 75.6169 11.7355 74.4262 12.7604V11.5041C74.8431 11.1715 75.4268 10.8844 76.1739 10.6396C76.9227 10.3947 77.5981 10.2715 78.2018 10.2715C79.3859 10.2715 80.2981 10.6396 80.9385 11.3741C81.5789 12.1086 81.8991 13.1859 81.8991 14.6043V22.1387H80.8718ZM74.4696 19.1077C74.4696 19.8321 74.6997 20.4062 75.1617 20.8334C75.6236 21.259 76.2457 21.4734 77.0278 21.4734C78.1368 21.4734 79.0557 21.0563 79.7811 20.2239C80.5066 19.3897 80.8701 18.3293 80.8701 17.0392V15.9079L77.7199 16.3723C76.4458 16.5681 75.5869 16.8636 75.14 17.2604C74.693 17.6573 74.4696 18.2736 74.4696 19.1094" fill="#F4BD27"/>
<path d="M93.4636 22.1393V20.0353H93.4186C93.0376 20.7665 92.4806 21.3473 91.7486 21.7779C91.0166 22.2085 90.1976 22.423 89.2976 22.423C87.8686 22.423 86.7126 21.8944 85.8336 20.8391C84.9546 19.7837 84.5156 18.3552 84.5156 16.5518C84.5156 15.3529 84.7346 14.274 85.1696 13.3165C85.6046 12.3591 86.2236 11.6128 87.0246 11.0775C87.8246 10.5422 88.7356 10.2737 89.7556 10.2737C91.4686 10.2737 92.6906 10.9863 93.4196 12.4115H93.4646V4.99023H94.4926V22.1393H93.4636ZM93.4636 15.0929C93.4636 13.9768 93.1146 13.0531 92.4176 12.322C91.7206 11.5908 90.8246 11.2244 89.7306 11.2244C88.5166 11.2244 87.5226 11.6989 86.7476 12.6496C85.9736 13.6002 85.5846 14.87 85.5846 16.4623C85.5846 18.0546 85.9236 19.2113 86.6026 20.1164C87.2796 21.0214 88.1996 21.474 89.3626 21.474C90.5916 21.474 91.5816 21.0839 92.3346 20.3038C93.0866 19.5237 93.4636 18.5072 93.4636 17.2543V15.0946V15.0929Z" fill="#F4BD27"/>
<path d="M97.5635 21.6288V20.3725C97.9045 20.6747 98.3585 20.9331 98.9205 21.1475C99.4825 21.362 99.9765 21.47 100.401 21.47C102.195 21.47 103.094 20.7271 103.094 19.2411C103.094 18.7582 102.913 18.3377 102.552 17.9798C102.19 17.6218 101.533 17.2317 100.581 16.8096C99.5455 16.3638 98.7925 15.8876 98.3205 15.3794C97.8465 14.8711 97.6115 14.2193 97.6115 13.4274C97.6115 12.5071 97.9635 11.7507 98.6675 11.1597C99.3705 10.5687 100.251 10.2715 101.308 10.2715C102.284 10.2715 103.126 10.4741 103.833 10.8827V12.0597C102.976 11.5024 102.097 11.2221 101.196 11.2221C100.451 11.2221 99.8465 11.4214 99.3805 11.8216C98.9155 12.2218 98.6825 12.7334 98.6825 13.3599C98.6825 13.8056 98.7505 14.1518 98.8885 14.4C99.0275 14.6499 99.2605 14.888 99.5925 15.1193C99.9245 15.349 100.406 15.604 101.038 15.8826C102.26 16.433 103.086 16.943 103.518 17.409C103.95 17.8768 104.167 18.488 104.167 19.2411C104.167 20.1918 103.816 20.9584 103.116 21.5426C102.416 22.1269 101.485 22.419 100.323 22.419C99.1605 22.419 98.2935 22.1539 97.5635 21.6271" fill="#F4BD27"/>
</g>
</svg>
