<svg width="38" height="49" viewBox="0 0 38 49" fill="none" xmlns="http://www.w3.org/2000/svg">
<path d="M24.4728 10.3936C26.231 7.34763 25.1876 3.45273 22.1422 1.69413C19.0967 -0.0644742 15.2026 0.979125 13.4443 4.02513L0.854852 25.8346C-0.903448 28.8806 0.140051 32.7754 3.18545 34.534C6.23085 36.2926 10.1251 35.249 11.8834 32.203L24.4728 10.3936Z" fill="#FBBD04"/>
<path d="M24.5403 3.9304C22.7821 0.884399 18.8879 -0.159201 15.8425 1.5994C12.797 3.358 11.7536 7.2529 13.5119 10.2988L26.1013 32.1083C27.8595 35.1543 31.7537 36.1979 34.7991 34.4393C37.8446 32.6807 38.888 28.7858 37.1297 25.7399L24.5403 3.9304Z" fill="#438EDC"/>
<path d="M6.4555 35.3802C10.0208 35.3802 12.911 32.4894 12.911 28.9235C12.911 25.3576 10.0208 22.4668 6.4555 22.4668C2.8902 22.4668 0 25.3576 0 28.9235C0 32.4894 2.8902 35.3802 6.4555 35.3802Z" fill="#34A952"/>
<path d="M17.1091 45.5742C17.5861 45.4352 17.8658 45.0249 17.8658 44.4644C17.8658 44.1205 17.7722 43.8504 17.5834 43.6482C17.0332 43.0594 16.0974 43.3139 15.8642 44.1162C15.7685 44.4452 15.769 44.4703 15.8685 44.8292C15.9578 45.1501 16.2402 45.4828 16.4642 45.5314C16.5305 45.5459 16.6284 45.5764 16.6819 45.5994C16.8166 45.6571 16.8288 45.656 17.1091 45.5742ZM16.2439 48.1682C15.7428 48.0046 15.2899 47.6184 15.0525 47.1531C14.9846 47.0194 15.0188 46.9921 15.4674 46.8194C15.7835 46.6979 15.8845 46.6846 15.8845 46.7637C15.8845 46.8787 16.1851 47.1879 16.3915 47.2852C16.8038 47.4788 17.346 47.3628 17.6032 47.0253C17.7219 46.8696 17.8278 46.4557 17.8086 46.2219L17.7984 46.0978L17.6027 46.2342C17.3246 46.4278 16.8647 46.5134 16.4888 46.4407C16.0391 46.354 15.7546 46.2037 15.453 45.8957C15.1348 45.5699 14.9974 45.3063 14.8974 44.8276C14.6974 43.8681 15.3065 42.8417 16.2562 42.5363C16.7385 42.3812 17.4155 42.4812 17.7011 42.7491L17.8107 42.8524L17.8262 42.7144L17.8417 42.5764H18.7118L18.7262 44.5099C18.7412 46.5412 18.7193 46.8194 18.508 47.2515C18.2995 47.6794 17.8947 48.0163 17.3979 48.1757C17.084 48.2763 16.5674 48.2725 16.2439 48.1672V48.1682Z" fill="#7F7F7F"/>
<path d="M8.84 45.4215C9.2144 45.1621 9.3967 44.5984 9.2646 44.1106C9.1545 43.7036 8.6866 43.3276 8.2908 43.3276C7.6518 43.3276 7.1871 43.7993 7.1844 44.4502C7.1823 44.969 7.5037 45.4477 7.9272 45.5568C8.2015 45.6274 8.6352 45.5633 8.84 45.4215ZM7.8711 46.4404C7.1058 46.304 6.5502 45.8039 6.2887 45.0166C6.1679 44.653 6.208 44.0224 6.3748 43.6656C6.7342 42.897 7.4176 42.4563 8.2443 42.459C9.8202 42.4643 10.7523 44.0646 10.0117 45.4937C9.7999 45.9024 9.1956 46.3383 8.7186 46.426C8.2919 46.5046 8.2347 46.5051 7.8711 46.4404Z" fill="#7F7F7F"/>
<path d="M21.5385 44.2782C21.7171 44.1985 21.6513 44.2204 21.6824 44.2194C21.7139 44.2188 21.915 44.1322 22.0872 44.052C22.2594 43.9723 22.4353 43.907 22.477 43.907C22.5187 43.907 22.2706 44.014 22.2706 43.9931C22.2706 43.9723 22.6733 43.7899 22.8198 43.7401C23.0786 43.6524 23.0834 43.6471 23.0011 43.5561C22.7577 43.2871 22.2652 43.2336 21.938 43.4401C21.6722 43.6075 21.4604 43.8926 21.4198 44.137C21.3829 44.3563 21.3658 44.3552 21.5385 44.2782ZM22.0465 46.439C21.2824 46.2598 20.7813 45.7768 20.5278 44.9756C20.4589 44.7585 20.4615 44.1279 20.5316 43.9108C20.8278 42.9956 21.5016 42.457 22.3497 42.457C22.8342 42.457 23.2342 42.6218 23.5818 42.9635C23.8305 43.208 24.1492 43.7428 24.1492 43.9145C24.1492 44.0257 24.0914 44.0589 23.4968 44.2926C23.0187 44.4804 22.7877 44.575 22.4091 44.7382C22.3428 44.767 22.2449 44.8082 22.1914 44.8296C22.1385 44.851 21.9968 44.9109 21.877 44.9617C21.7572 45.0131 21.6289 45.0644 21.592 45.0757C21.4759 45.1115 21.8754 45.4848 22.0947 45.5453C22.5251 45.6645 22.9043 45.5822 23.2048 45.3056C23.3182 45.2013 23.4326 45.1158 23.4599 45.1158C23.5417 45.1158 24.147 45.5228 24.1481 45.5784C24.1497 45.6811 23.7256 46.0689 23.4449 46.2208C23.1877 46.3604 22.5979 46.5262 22.4091 46.5123C22.369 46.5096 22.2059 46.4764 22.0465 46.439Z" fill="#7F7F7F"/>
<path d="M2.51958 46.4178C1.92978 46.3237 1.36028 46.0113 0.862384 45.5086C0.512684 45.1561 0.283283 44.7833 0.0902835 44.2565C-0.0322165 43.9217 -0.0295158 42.8183 0.0950842 42.4797C0.487584 41.4089 1.23938 40.6906 2.30248 40.3697C2.64048 40.2676 3.71428 40.282 4.01848 40.3927C4.47948 40.5601 5.04368 40.8864 5.20138 41.0763C5.25918 41.1458 5.22978 41.1934 4.95858 41.4672C4.78858 41.6384 4.63828 41.7791 4.62438 41.7791C4.61048 41.7791 4.53568 41.7245 4.45808 41.6582C4.05758 41.3137 3.28748 41.1313 2.70408 41.2431C2.03998 41.3704 1.48858 41.7908 1.17958 42.4075C1.02448 42.7161 0.923884 42.7338 0.923884 43.3745C0.923884 44.0153 1.03038 44.0463 1.15228 44.3068C1.22448 44.4603 1.40738 44.7164 1.55868 44.8753C2.11158 45.4551 2.91958 45.6835 3.69288 45.4775C4.12658 45.3625 4.31208 45.2631 4.58318 45.0021C4.82008 44.7742 4.97408 44.4913 5.02918 44.1853L5.06128 44.0051L4.08058 43.9923L3.09978 43.9794V43.0766L4.50138 43.0809C5.27248 43.083 5.91638 43.0852 5.93298 43.0852C5.94948 43.0852 5.98588 43.2018 6.01478 43.3446C6.12228 43.881 5.92488 44.6929 5.54578 45.2727C5.23348 45.7503 4.89928 46.0081 4.18808 46.3199C3.89288 46.4488 3.03028 46.5007 2.52068 46.4189L2.51958 46.4178Z" fill="#7F7F7F"/>
<path d="M12.9008 45.5426C13.1259 45.4865 13.4275 45.203 13.5382 44.9447C13.5826 44.8409 13.6537 44.6414 13.6436 44.4425C13.6286 44.1579 13.5682 43.9552 13.5083 43.883C13.2564 43.5781 13.1243 43.4664 12.9398 43.4011C12.5259 43.2551 12.1409 43.3348 11.8297 43.6311C11.2212 44.2109 11.4543 45.2865 12.2473 45.5549C12.4746 45.632 12.5506 45.6304 12.9008 45.5426ZM12.0671 46.4193C11.5538 46.3107 11.0179 45.9026 10.7746 45.4351C10.3693 44.6559 10.4725 43.752 11.0377 43.1262C11.8441 42.2335 13.2655 42.2341 14.0869 43.1273C14.7938 43.8958 14.7206 45.2907 13.9382 45.9604C13.5655 46.2797 13.2024 46.4235 12.7136 46.4455C12.4768 46.4562 12.1852 46.4444 12.0671 46.4193Z" fill="#7F7F7F"/>
<path d="M19.2197 43.4231V40.4707L19.6908 40.4846L20.162 40.4985V46.3482L19.6908 46.3621L19.2197 46.376V43.4231Z" fill="#7F7F7F"/>
<path d="M29.4932 43.9217C29.4761 43.8763 29.2756 43.327 29.0483 42.7012C28.821 42.0749 28.6178 41.5448 28.5975 41.5229C28.5649 41.4881 28.1777 42.4921 28.1462 42.6937C28.1392 42.7365 28.12 42.7937 28.1029 42.821C28.0574 42.8937 27.6772 43.9132 27.6772 43.9624C27.6772 43.9854 28.0927 44.0041 28.6007 44.0041C29.4499 44.0041 29.5221 43.9977 29.4932 43.9217ZM25.9863 46.2515C25.9863 46.2253 26.1847 45.6814 26.4264 45.0433C26.6681 44.4052 26.959 43.6329 27.0724 43.327C27.3799 42.4985 27.8638 41.2164 27.9959 40.8773C28.0601 40.7132 28.1125 40.5554 28.1125 40.527C28.1125 40.4933 28.274 40.4746 28.5665 40.4746C28.9542 40.4746 29.0253 40.4869 29.0531 40.5591C29.1809 40.8886 30.8114 45.2134 30.9167 45.5022C30.9895 45.7017 31.0841 45.9493 31.1274 46.052C31.1707 46.1547 31.206 46.2472 31.206 46.2574C31.206 46.2676 31.0119 46.2756 30.7745 46.2756H30.343L30.2387 45.9975C30.1815 45.8445 30.0579 45.4968 29.9638 45.2241L29.7927 44.7283H27.3959L27.3189 44.9342C27.2767 45.047 27.1494 45.3968 27.036 45.7119L26.8302 46.2841L26.4082 46.2922C26.1537 46.297 25.9857 46.2809 25.9863 46.2515ZM36.4172 46.367C35.9557 46.3109 35.5696 46.0392 35.3466 45.6145C35.2611 45.4509 35.2766 45.4225 35.4964 45.3343C35.6092 45.2888 35.7156 45.2294 35.7327 45.2016C35.7514 45.1711 35.7996 45.1947 35.8536 45.2615C36.2632 45.7637 36.3552 45.8151 36.7974 45.783C37.0653 45.7637 37.1097 45.7445 37.2327 45.5974C37.4985 45.2792 37.3081 45.0759 36.561 44.8796C35.7231 44.6598 35.3873 44.3779 35.3873 43.8934C35.3873 43.497 35.5338 43.2687 35.9108 43.0772C36.2044 42.928 36.2621 42.9162 36.6894 42.9162C37.1001 42.9162 37.1792 42.9312 37.4049 43.0499C37.6707 43.1895 38.0075 43.5815 37.9626 43.6981C37.9493 43.7329 37.9209 43.75 37.8995 43.7372C37.8781 43.7238 37.7557 43.7581 37.6279 43.8131C37.4717 43.88 37.3888 43.895 37.3771 43.8591C37.3498 43.7778 37.1696 43.6185 37.0108 43.535C36.8215 43.4355 36.3937 43.4719 36.2188 43.6019C36.137 43.6628 36.0824 43.7538 36.0734 43.8458C36.052 44.0602 36.2145 44.1624 36.8167 44.3132C37.5632 44.5004 37.7412 44.6053 37.9241 44.9663C38.0535 45.2214 38.0092 45.6803 37.8327 45.9119C37.5429 46.2922 37.0637 46.4457 36.4161 46.367H36.4172ZM33.6579 45.6263C33.7728 45.5498 33.9065 45.3974 33.9868 45.2492C34.099 45.0422 34.122 44.9427 34.121 44.6593C34.1199 44.2314 34.0215 43.9864 33.7557 43.749C33.3477 43.3847 32.86 43.3858 32.4675 43.7522C32.2258 43.9773 32.1199 44.226 32.1157 44.5769C32.1092 45.1235 32.3215 45.514 32.7279 45.7054C32.9985 45.8327 33.3981 45.799 33.6579 45.6263ZM32.7552 46.3628C32.2713 46.2884 31.8461 45.9386 31.5991 45.4113C31.4895 45.1775 31.4718 45.0754 31.4718 44.6807C31.4718 44.0752 31.6082 43.6912 31.9387 43.3687C32.2948 43.0205 32.5509 42.9157 33.0429 42.9173C33.4953 42.9183 33.7686 43.0205 34.0081 43.2778L34.1301 43.4088L34.106 42.453L34.0819 41.4972L34.4146 41.4817C34.6065 41.4726 34.7547 41.4865 34.7654 41.5149C34.7755 41.5416 34.7782 42.6263 34.7712 43.9255L34.7584 46.2879H34.444L34.1295 46.2874L34.1466 46.0793L34.1638 45.8712L33.9798 46.0328C33.637 46.3339 33.2461 46.4393 32.7541 46.3638L32.7552 46.3628Z" fill="#7F7F7F"/>
</svg>
