<svg width="96" height="19" viewBox="0 0 96 19" fill="none" xmlns="http://www.w3.org/2000/svg">
<path d="M9.1618 0.827921C8.1903 0.631421 7.4498 0.482422 6.4308 0.482422C3.5028 0.482422 2.3343 1.87112 2.3343 4.34352V6.14542H0.5V9.06492H2.3343V17.9522H5.9077V9.06492H8.5164L8.761 6.14542H5.9077V4.73642C5.9077 3.94392 5.9824 3.44942 7.1237 3.44942C7.5449 3.44942 8.2175 3.52392 8.7134 3.62552L9.1618 0.827921ZM19.9296 17.9522V10.2571C19.9296 6.91762 19.0125 5.65092 14.8209 5.65092C13.4282 5.65092 11.6143 5.90152 10.473 6.24702L10.9485 8.92262C12.0898 8.69912 13.1564 8.57042 14.223 8.57042C16.132 8.57042 16.3562 8.99722 16.3562 10.23V11.1445H13.7475C11.2678 11.1445 10.1537 12.1131 10.1537 14.5382C10.1537 16.5906 11.0708 18.196 13.3059 18.196C14.1211 18.196 15.3643 17.9522 16.7502 17.18L17.0016 17.9522H19.9296ZM16.3562 15.0056C15.8127 15.2562 15.2896 15.4255 14.5423 15.4255C13.8494 15.4255 13.5776 15.1546 13.5776 14.484C13.5776 13.8201 13.8766 13.6237 14.6442 13.6237H16.3562V15.0056ZM25.7381 10.5009C25.7381 9.26812 26.2545 8.69912 27.6947 8.69912C28.3944 8.69912 29.4338 8.82102 30.1811 8.99722L30.6227 6.02342C29.4067 5.75252 28.5371 5.65092 27.6947 5.65092C23.7748 5.65092 22.1647 7.11402 22.1647 10.5551V13.2986C22.1647 16.7397 23.7748 18.196 27.6947 18.196C28.5371 18.196 29.4067 18.1012 30.6227 17.8235L30.1811 14.8565C29.3116 15.053 28.6118 15.1546 27.6947 15.1546C26.2545 15.1546 25.7381 14.5856 25.7381 13.346V10.5009ZM42.3145 13.1766V10.65C42.3145 8.02852 41.4449 5.65092 37.4231 5.65092C33.4013 5.65092 32.2396 7.87952 32.2396 10.4806V13.2986C32.2396 16.2655 33.7274 18.196 37.6473 18.196C39.3321 18.196 41.0984 17.8235 42.1854 17.4306L41.6691 14.7617C40.6025 15.0801 39.1079 15.2765 37.9938 15.2765C36.3565 15.2765 35.813 14.904 35.813 13.5221V13.1766H42.3145ZM38.9381 10.5009H35.813V9.98612C35.813 9.13942 36.207 8.44852 37.4503 8.44852C38.6867 8.44852 38.9381 9.13942 38.9381 9.98612V10.5009ZM55.6367 13.1224V10.0065C55.6367 7.31052 54.5973 5.65092 51.9138 5.65092C50.6026 5.65092 49.4613 5.94892 48.4898 6.32152V0.482422L44.9164 0.976921V17.8032C46.5808 18.0741 48.5374 18.196 49.8282 18.196C54.8214 18.196 55.6367 15.9945 55.6367 13.1224ZM48.4898 9.41712C49.1624 9.06492 50.0048 8.74652 50.7725 8.74652C51.7168 8.74652 52.0633 9.24102 52.0633 10.0336V13.1495C52.0633 14.2875 51.744 15.1072 49.9572 15.1072C49.4613 15.1072 49.0129 15.1072 48.4898 15.053V9.41712ZM63.0824 18.196C67.376 18.196 68.5377 15.7981 68.5377 13.3256V10.528C68.5377 8.05562 67.376 5.65092 63.0824 5.65092C58.7889 5.65092 57.6204 8.05562 57.6204 10.528V13.3256C57.6204 15.7981 58.7889 18.196 63.0824 18.196ZM63.0824 15.202C61.7917 15.202 61.1938 14.5585 61.1938 13.4205V10.4264C61.1938 9.28842 61.7917 8.64492 63.0824 8.64492C64.3732 8.64492 64.9643 9.28842 64.9643 10.4264V13.4205C64.9643 14.5585 64.3732 15.202 63.0824 15.202ZM75.9834 18.196C80.277 18.196 81.4455 15.7981 81.4455 13.3256V10.528C81.4455 8.05562 80.277 5.65092 75.9834 5.65092C71.6899 5.65092 70.5282 8.05562 70.5282 10.528V13.3256C70.5282 15.7981 71.6899 18.196 75.9834 18.196ZM75.9834 15.202C74.6927 15.202 74.1016 14.5585 74.1016 13.4205V10.4264C74.1016 9.28842 74.6927 8.64492 75.9834 8.64492C77.2742 8.64492 77.8721 9.28842 77.8721 10.4264V13.4205C77.8721 14.5585 77.2742 15.202 75.9834 15.202ZM87.6208 17.9522V0.482422L84.0474 0.976921V17.9522H87.6208ZM88.0964 11.8896L91.317 17.9522H95.141L91.819 11.8896L94.992 5.90152H91.174L88.0964 11.8896Z" fill="#3A589E"/>
</svg>
