<svg width="78" height="77" viewBox="0 0 78 77" fill="none" xmlns="http://www.w3.org/2000/svg">
<g opacity="0.999997">
<path d="M39.0001 0C60.2078 0 77.4001 17.1923 77.4001 38.4C77.4001 59.6077 60.2078 76.8 39.0001 76.8C17.7923 76.8 0.600098 59.6077 0.600098 38.4C0.600098 17.1923 17.7923 0 39.0001 0Z" fill="#E7EFFF"/>
</g>
<path d="M39.0001 6C56.8942 6 71.4 20.5059 71.4 38.4C71.4 56.2941 56.8942 70.7999 39.0001 70.7999C21.106 70.7999 6.6001 56.2941 6.6001 38.4C6.6001 20.5059 21.106 6 39.0001 6Z" fill="#323FD4"/>
<path d="M39.0001 10.8008C54.2431 10.8008 66.6001 23.1578 66.6001 38.4007C66.6001 53.6437 54.2431 66.0007 39.0001 66.0007C23.7571 66.0007 11.4001 53.6437 11.4001 38.4007C11.4001 23.1578 23.7571 10.8008 39.0001 10.8008Z" fill="#4E6AFF"/>
<path d="M39.0001 15.5996C51.5922 15.5996 61.8001 25.8075 61.8001 38.3996C61.8001 50.9916 51.5922 61.1995 39.0001 61.1995C26.4081 61.1995 16.2002 50.9916 16.2002 38.3996C16.2002 25.8075 26.4081 15.5996 39.0001 15.5996Z" fill="#323FD4"/>
<path d="M39 20.4004C48.9411 20.4004 57 28.4593 57 38.4004C57 48.3415 48.9411 56.4004 39 56.4004C29.0589 56.4004 21 48.3415 21 38.4004C21 28.4593 29.0589 20.4004 39 20.4004Z" fill="#4E6AFF"/>
<path d="M39.0002 25.1992C46.2904 25.1992 52.2002 31.109 52.2002 38.3992C52.2002 45.6893 46.2904 51.5991 39.0002 51.5991C31.7101 51.5991 25.8003 45.6893 25.8003 38.3992C25.8003 31.109 31.7101 25.1992 39.0002 25.1992Z" fill="#323FD4"/>
<path d="M69.0724 16.4449L63.4264 22.0909C63.2009 22.3177 62.8942 22.4452 62.5744 22.4449H54.6724V14.5429C54.6721 14.2231 54.7996 13.9164 55.0264 13.6909L60.6724 8.04492L62.4724 14.6449L69.0724 16.4449Z" fill="#7F96D1"/>
<path d="M69.0722 16.4449L66.6722 18.8449L59.4722 17.6449L58.2722 10.4449L60.6722 8.04492L62.4722 14.6449L69.0722 16.4449Z" fill="#7F96D1"/>
<path d="M39.0724 39.2443C38.4097 39.2415 37.8746 38.7019 37.8775 38.0392C37.8788 37.7239 38.0041 37.422 38.2264 37.1983L64.6264 10.7983C65.1298 10.3672 65.8873 10.4259 66.3184 10.9293C66.7031 11.3785 66.7031 12.0411 66.3184 12.4903L39.9184 38.8903C39.6944 39.1156 39.3901 39.243 39.0724 39.2443Z" fill="#A5BCED"/>
</svg>
