<svg width="20" height="20" viewBox="0 0 20 20" fill="none" xmlns="http://www.w3.org/2000/svg">
<path d="M14.1693 15.0003C14.6113 15.0003 15.0352 15.1759 15.3478 15.4885C15.6603 15.801 15.8359 16.225 15.8359 16.667C15.8359 17.109 15.6603 17.5329 15.3478 17.8455C15.0352 18.1581 14.6113 18.3337 14.1693 18.3337C13.7272 18.3337 13.3033 18.1581 12.9908 17.8455C12.6782 17.5329 12.5026 17.109 12.5026 16.667C12.5026 15.742 13.2443 15.0003 14.1693 15.0003ZM0.835938 1.66699H3.56094L4.34427 3.33366H16.6693C16.8903 3.33366 17.1022 3.42146 17.2585 3.57774C17.4148 3.73402 17.5026 3.94598 17.5026 4.16699C17.5026 4.30866 17.4609 4.45033 17.4026 4.58366L14.4193 9.97533C14.1359 10.4837 13.5859 10.8337 12.9609 10.8337H6.7526L6.0026 12.192L5.9776 12.292C5.9776 12.3472 5.99955 12.4002 6.03862 12.4393C6.07769 12.4784 6.13068 12.5003 6.18594 12.5003H15.8359V14.167H5.83594C5.39391 14.167 4.96999 13.9914 4.65743 13.6788C4.34486 13.3663 4.16927 12.9424 4.16927 12.5003C4.16927 12.2087 4.24427 11.9337 4.36927 11.7003L5.5026 9.65866L2.5026 3.33366H0.835938V1.66699ZM5.83594 15.0003C6.27796 15.0003 6.70189 15.1759 7.01445 15.4885C7.32701 15.801 7.5026 16.225 7.5026 16.667C7.5026 17.109 7.32701 17.5329 7.01445 17.8455C6.70189 18.1581 6.27796 18.3337 5.83594 18.3337C5.39391 18.3337 4.96999 18.1581 4.65743 17.8455C4.34486 17.5329 4.16927 17.109 4.16927 16.667C4.16927 15.742 4.91094 15.0003 5.83594 15.0003ZM13.3359 9.16699L15.6526 5.00033H5.11927L7.08594 9.16699H13.3359Z" fill="#3E4C59"/>
</svg>
