<svg width="20" height="20" viewBox="0 0 20 20" fill="none" xmlns="http://www.w3.org/2000/svg">
<path d="M4.8192 2.14258C4.1088 2.14258 3.42749 2.42478 2.92516 2.92711C2.42283 3.42944 2.14063 4.11075 2.14062 4.82115V15.1783C2.14063 15.8887 2.42283 16.57 2.92516 17.0723C3.42749 17.5747 4.1088 17.8569 4.8192 17.8569H15.1763C15.8867 17.8569 16.568 17.5747 17.0704 17.0723C17.5727 16.57 17.8549 15.8887 17.8549 15.1783V4.82115C17.8549 4.11075 17.5727 3.42944 17.0704 2.92711C16.568 2.42478 15.8867 2.14258 15.1763 2.14258H4.8192ZM3.21205 4.82115C3.21205 4.39491 3.38138 3.98613 3.68278 3.68473C3.98417 3.38333 4.39296 3.21401 4.8192 3.21401H15.1763C15.6026 3.21401 16.0114 3.38333 16.3128 3.68473C16.6142 3.98613 16.7835 4.39491 16.7835 4.82115V15.1783C16.7835 15.6045 16.6142 16.0133 16.3128 16.3147C16.0114 16.6161 15.6026 16.7854 15.1763 16.7854H4.8192C4.39296 16.7854 3.98417 16.6161 3.68278 16.3147C3.38138 16.0133 3.21205 15.6045 3.21205 15.1783V4.82115ZM4.28348 6.42829C4.28348 6.04941 4.43399 5.68605 4.7019 5.41814C4.96981 5.15023 5.33317 4.99972 5.71205 4.99972H14.2835C14.6624 4.99972 15.0257 5.15023 15.2936 5.41814C15.5615 5.68605 15.7121 6.04941 15.7121 6.42829V7.85686C15.7121 8.23574 15.5615 8.59911 15.2936 8.86702C15.0257 9.13493 14.6624 9.28544 14.2835 9.28544H5.71205C5.33317 9.28544 4.96981 9.13493 4.7019 8.86702C4.43399 8.59911 4.28348 8.23574 4.28348 7.85686V6.42829ZM5.71205 6.07115C5.61733 6.07115 5.52649 6.10878 5.45952 6.17575C5.39254 6.24273 5.35491 6.33357 5.35491 6.42829V7.85686C5.35491 7.95158 5.39254 8.04243 5.45952 8.1094C5.52649 8.17638 5.61733 8.21401 5.71205 8.21401H14.2835C14.3782 8.21401 14.469 8.17638 14.536 8.1094C14.603 8.04243 14.6406 7.95158 14.6406 7.85686V6.42829C14.6406 6.33357 14.603 6.24273 14.536 6.17575C14.469 6.10878 14.3782 6.07115 14.2835 6.07115H5.71205ZM4.28348 11.2497C4.28348 11.1076 4.33992 10.9714 4.44039 10.8709C4.54086 10.7704 4.67712 10.714 4.8192 10.714H8.74777C8.88985 10.714 9.02611 10.7704 9.12657 10.8709C9.22704 10.9714 9.28348 11.1076 9.28348 11.2497C9.28348 11.3918 9.22704 11.5281 9.12657 11.6285C9.02611 11.729 8.88985 11.7854 8.74777 11.7854H4.8192C4.67712 11.7854 4.54086 11.729 4.44039 11.6285C4.33992 11.5281 4.28348 11.3918 4.28348 11.2497ZM4.8192 13.3926C4.67712 13.3926 4.54086 13.449 4.44039 13.5495C4.33992 13.65 4.28348 13.7862 4.28348 13.9283C4.28348 14.0704 4.33992 14.2066 4.44039 14.3071C4.54086 14.4076 4.67712 14.464 4.8192 14.464H8.74777C8.88985 14.464 9.02611 14.4076 9.12657 14.3071C9.22704 14.2066 9.28348 14.0704 9.28348 13.9283C9.28348 13.7862 9.22704 13.65 9.12657 13.5495C9.02611 13.449 8.88985 13.3926 8.74777 13.3926H4.8192ZM11.0692 11.6069C11.0692 10.9169 11.6292 10.3569 12.3192 10.3569H14.4621C15.1521 10.3569 15.7121 10.9169 15.7121 11.6069V13.7497C15.7121 14.0812 15.5804 14.3992 15.3459 14.6336C15.1115 14.868 14.7936 14.9997 14.4621 14.9997H12.3192C11.9877 14.9997 11.6697 14.868 11.4353 14.6336C11.2009 14.3992 11.0692 14.0812 11.0692 13.7497V11.6069ZM12.3192 11.4283C12.2718 11.4283 12.2264 11.4471 12.1929 11.4806C12.1594 11.5141 12.1406 11.5595 12.1406 11.6069V13.7497C12.1406 13.8483 12.2206 13.9283 12.3192 13.9283H14.4621C14.5094 13.9283 14.5548 13.9095 14.5883 13.876C14.6218 13.8425 14.6406 13.7971 14.6406 13.7497V11.6069C14.6406 11.5595 14.6218 11.5141 14.5883 11.4806C14.5548 11.4471 14.5094 11.4283 14.4621 11.4283H12.3192Z" fill="#3E4C59"/>
</svg>
