<svg width="24" height="24" viewBox="0 0 24 24" fill="none" xmlns="http://www.w3.org/2000/svg">
<path d="M5.795 14.3075L4.023 12.5325L2.25 14.3075M18.205 9.72852L19.977 11.5045L21.75 9.72852" stroke="white" stroke-width="1.5" stroke-linecap="round" stroke-linejoin="round"/>
<path d="M19.9774 11.5037C19.9774 9.38368 19.1374 7.35268 17.6414 5.85368C16.9011 5.11199 16.0219 4.52354 15.0539 4.12202C14.086 3.72049 13.0484 3.51377 12.0004 3.51368C10.9824 3.51209 9.97379 3.70805 9.03044 4.09068C7.977 4.51285 7.02576 5.15493 6.24027 5.97406C5.45477 6.79318 4.8531 7.77048 4.47544 8.84068M4.02344 12.5307C4.02472 14.3853 4.67057 16.1818 5.85044 17.6127C7.02846 19.0425 8.66793 20.0171 10.4868 20.3688C12.3057 20.7205 14.1903 20.4273 15.8164 19.5397C17.4434 18.6518 18.7108 17.2257 19.4014 15.5057" stroke="white" stroke-width="1.5" stroke-linecap="round" stroke-linejoin="round"/>
<path d="M9.57812 13.9787C9.62993 14.5724 9.91227 15.1223 10.3646 15.5103C10.817 15.8984 11.4034 16.0938 11.9981 16.0547C13.9501 16.0547 14.4181 14.9317 14.4181 13.9787C14.4181 13.0257 13.6111 12.0157 11.9981 12.0157C10.3851 12.0157 9.57812 11.3777 9.57812 10.0777C9.60107 9.62735 9.76035 9.19465 10.0348 8.83693C10.3093 8.47921 10.6861 8.21337 11.1151 8.07467C11.4001 7.98267 11.7001 7.94967 11.9981 7.97767C12.5936 7.95155 13.1764 8.15474 13.6266 8.54539C14.0768 8.93605 14.3601 9.48445 14.4181 10.0777M11.9981 17.2647V16.2137M11.9981 6.76367V7.97367" stroke="white" stroke-width="1.5" stroke-linecap="round" stroke-linejoin="round"/>
</svg>
